G04 #@! TF.GenerationSoftware,KiCad,Pcbnew,5.1.9+dfsg1-1*
G04 #@! TF.CreationDate,2022-04-23T11:50:34+01:00*
G04 #@! TF.ProjectId,dmb2022,646d6232-3032-4322-9e6b-696361645f70,rev?*
G04 #@! TF.SameCoordinates,Original*
G04 #@! TF.FileFunction,Copper,L1,Top*
G04 #@! TF.FilePolarity,Positive*
%FSLAX46Y46*%
G04 Gerber Fmt 4.6, Leading zero omitted, Abs format (unit mm)*
G04 Created by KiCad (PCBNEW 5.1.9+dfsg1-1) date 2022-04-23 11:50:34*
%MOMM*%
%LPD*%
G01*
G04 APERTURE LIST*
G04 #@! TA.AperFunction,ComponentPad*
%ADD10O,1.600000X1.600000*%
G04 #@! TD*
G04 #@! TA.AperFunction,ComponentPad*
%ADD11R,1.600000X1.600000*%
G04 #@! TD*
G04 #@! TA.AperFunction,ComponentPad*
%ADD12R,2.000000X2.000000*%
G04 #@! TD*
G04 #@! TA.AperFunction,ComponentPad*
%ADD13C,2.000000*%
G04 #@! TD*
G04 #@! TA.AperFunction,ComponentPad*
%ADD14C,1.600000*%
G04 #@! TD*
G04 #@! TA.AperFunction,ComponentPad*
%ADD15O,1.700000X1.700000*%
G04 #@! TD*
G04 #@! TA.AperFunction,ComponentPad*
%ADD16R,1.700000X1.700000*%
G04 #@! TD*
G04 #@! TA.AperFunction,ComponentPad*
%ADD17C,1.700000*%
G04 #@! TD*
G04 #@! TA.AperFunction,SMDPad,CuDef*
%ADD18R,0.900000X0.900000*%
G04 #@! TD*
G04 #@! TA.AperFunction,SMDPad,CuDef*
%ADD19R,1.000000X2.000000*%
G04 #@! TD*
G04 #@! TA.AperFunction,SMDPad,CuDef*
%ADD20R,2.000000X1.000000*%
G04 #@! TD*
G04 #@! TA.AperFunction,ViaPad*
%ADD21C,0.800000*%
G04 #@! TD*
G04 #@! TA.AperFunction,Conductor*
%ADD22C,0.635000*%
G04 #@! TD*
G04 APERTURE END LIST*
D10*
X242062000Y-73914000D03*
D11*
X242062000Y-66294000D03*
D12*
X240538000Y-79248000D03*
D13*
X188548000Y-79248000D03*
D14*
X197826000Y-73660000D03*
D11*
X195326000Y-73660000D03*
D15*
X231140000Y-76200000D03*
X233680000Y-76200000D03*
D16*
X236220000Y-76200000D03*
D15*
X221488000Y-67310000D03*
X218948000Y-67310000D03*
X216408000Y-67310000D03*
X213868000Y-67310000D03*
X211328000Y-67310000D03*
X208788000Y-67310000D03*
D16*
X206248000Y-67310000D03*
D13*
X237156000Y-92964000D03*
D12*
X232156000Y-92964000D03*
D17*
X248920000Y-102362000D03*
X248920000Y-99822000D03*
X248920000Y-97282000D03*
X246380000Y-102362000D03*
X246380000Y-99822000D03*
G04 #@! TA.AperFunction,ComponentPad*
G36*
G01*
X245530000Y-97882000D02*
X245530000Y-96682000D01*
G75*
G02*
X245780000Y-96432000I250000J0D01*
G01*
X246980000Y-96432000D01*
G75*
G02*
X247230000Y-96682000I0J-250000D01*
G01*
X247230000Y-97882000D01*
G75*
G02*
X246980000Y-98132000I-250000J0D01*
G01*
X245780000Y-98132000D01*
G75*
G02*
X245530000Y-97882000I0J250000D01*
G01*
G37*
G04 #@! TD.AperFunction*
D15*
X194310000Y-67310000D03*
X191770000Y-67310000D03*
X189230000Y-67310000D03*
X186690000Y-67310000D03*
X184150000Y-67310000D03*
D16*
X181610000Y-67310000D03*
D18*
X178739000Y-86024000D03*
X180009000Y-86024000D03*
X181279000Y-86024000D03*
X182549000Y-86024000D03*
X183819000Y-86024000D03*
X185089000Y-86024000D03*
X186359000Y-86024000D03*
X187629000Y-86024000D03*
X190034000Y-86614000D03*
X190034000Y-87884000D03*
X190034000Y-89154000D03*
X190034000Y-90424000D03*
X190034000Y-91694000D03*
X190034000Y-92964000D03*
X190034000Y-94234000D03*
D19*
X178104000Y-83924000D03*
X179374000Y-83924000D03*
X180644000Y-83924000D03*
X181914000Y-83924000D03*
X183184000Y-83924000D03*
X184454000Y-83924000D03*
X185724000Y-83924000D03*
X186994000Y-83924000D03*
X188264000Y-83924000D03*
X189534000Y-83924000D03*
X178104000Y-96924000D03*
X179374000Y-96924000D03*
X180644000Y-96924000D03*
X181914000Y-96924000D03*
X183184000Y-96924000D03*
X184454000Y-96924000D03*
X185724000Y-96924000D03*
X186994000Y-96924000D03*
X188264000Y-96924000D03*
X189534000Y-96924000D03*
D20*
X192134000Y-85974000D03*
X192134000Y-87244000D03*
X192134000Y-88514000D03*
X192134000Y-89784000D03*
X192134000Y-91054000D03*
X192134000Y-92324000D03*
X192134000Y-93594000D03*
X192134000Y-94864000D03*
D13*
X195730000Y-105156000D03*
X195730000Y-109656000D03*
X189230000Y-105156000D03*
X189230000Y-109656000D03*
D15*
X247396000Y-74930000D03*
X247396000Y-72390000D03*
D16*
X247396000Y-69850000D03*
D13*
X208176000Y-112776000D03*
X208176000Y-117276000D03*
X201676000Y-112776000D03*
X201676000Y-117276000D03*
X183284000Y-112776000D03*
X183284000Y-117276000D03*
X176784000Y-112776000D03*
X176784000Y-117276000D03*
X195730000Y-120396000D03*
X195730000Y-124896000D03*
X189230000Y-120396000D03*
X189230000Y-124896000D03*
X234084000Y-119888000D03*
X234084000Y-124388000D03*
X227584000Y-119888000D03*
X227584000Y-124388000D03*
X250848000Y-119888000D03*
X250848000Y-124388000D03*
X244348000Y-119888000D03*
X244348000Y-124388000D03*
D21*
X191008000Y-76708000D03*
X221488000Y-76708000D03*
X202946000Y-79248000D03*
X218948000Y-79248000D03*
X202692000Y-95758000D03*
X187706000Y-101346000D03*
X240538000Y-100330000D03*
X185674000Y-101190500D03*
X195326000Y-99568000D03*
X195966000Y-89784000D03*
X195966000Y-79126000D03*
X195966000Y-87244000D03*
X183134000Y-101600000D03*
X199390000Y-88392000D03*
X208026000Y-81280000D03*
X216408000Y-81280000D03*
D22*
X180644000Y-96924000D02*
X180644000Y-103936000D01*
X180644000Y-103936000D02*
X185928000Y-109220000D01*
X185928000Y-109220000D02*
X185928000Y-117094000D01*
X185928000Y-117094000D02*
X189230000Y-120396000D01*
X189230000Y-120396000D02*
X195580000Y-120396000D01*
X183284000Y-112776000D02*
X176784000Y-112776000D01*
X179374000Y-96924000D02*
X179374000Y-110694000D01*
X179374000Y-110694000D02*
X177292000Y-112776000D01*
X177292000Y-112776000D02*
X176784000Y-112776000D01*
X205921902Y-112776000D02*
X208026000Y-112776000D01*
X198628000Y-112776000D02*
X205921902Y-112776000D01*
X198628000Y-103632000D02*
X198628000Y-112776000D01*
X197866000Y-102870000D02*
X198628000Y-103632000D01*
X184912000Y-102870000D02*
X197866000Y-102870000D01*
X184404000Y-102362000D02*
X184912000Y-102870000D01*
X184404000Y-98135502D02*
X184404000Y-102362000D01*
X184454000Y-98085502D02*
X184404000Y-98135502D01*
X184454000Y-96924000D02*
X184454000Y-98085502D01*
X183184000Y-82366098D02*
X188842098Y-76708000D01*
X183184000Y-83924000D02*
X183184000Y-82366098D01*
X188842098Y-76708000D02*
X191008000Y-76708000D01*
X221488000Y-76708000D02*
X221488000Y-67310000D01*
X186450997Y-80765501D02*
X201428499Y-80765501D01*
X184454000Y-82762498D02*
X186450997Y-80765501D01*
X184454000Y-83924000D02*
X184454000Y-82762498D01*
X201428499Y-80765501D02*
X202946000Y-79248000D01*
X218948000Y-79248000D02*
X218948000Y-67310000D01*
X189230000Y-105156000D02*
X195580000Y-105156000D01*
X188976000Y-104902000D02*
X189230000Y-105156000D01*
X188722000Y-105156000D02*
X188976000Y-104902000D01*
X184404000Y-105156000D02*
X188722000Y-105156000D01*
X181914000Y-102666000D02*
X184404000Y-105156000D01*
X181914000Y-96924000D02*
X181914000Y-102666000D01*
X193040000Y-90932000D02*
X202184000Y-90932000D01*
X192918000Y-91054000D02*
X193040000Y-90932000D01*
X192134000Y-91054000D02*
X192918000Y-91054000D01*
X202184000Y-90932000D02*
X211328000Y-81788000D01*
X211328000Y-81788000D02*
X211328000Y-67310000D01*
X192134000Y-92324000D02*
X201554000Y-92324000D01*
X201554000Y-92324000D02*
X204602000Y-92324000D01*
X204602000Y-92324000D02*
X213868000Y-83058000D01*
X213868000Y-83058000D02*
X213868000Y-67310000D01*
X192134000Y-94864000D02*
X201798000Y-94864000D01*
X201798000Y-94864000D02*
X202692000Y-95758000D01*
X181914000Y-83924000D02*
X181914000Y-81484000D01*
X181914000Y-81484000D02*
X194310000Y-69088000D01*
X194310000Y-69088000D02*
X194310000Y-67310000D01*
X180644000Y-83924000D02*
X180644000Y-82289000D01*
X180644000Y-82289000D02*
X180644000Y-80722000D01*
X180644000Y-80722000D02*
X191770000Y-69596000D01*
X191770000Y-69596000D02*
X191770000Y-67310000D01*
X179374000Y-83924000D02*
X179374000Y-80468000D01*
X179374000Y-80468000D02*
X189230000Y-70612000D01*
X189230000Y-70612000D02*
X189230000Y-67310000D01*
X178104000Y-83924000D02*
X178104000Y-79706000D01*
X178104000Y-79706000D02*
X186690000Y-71120000D01*
X186690000Y-71120000D02*
X186690000Y-67310000D01*
X192134000Y-93594000D02*
X203576000Y-93594000D01*
X203576000Y-93594000D02*
X213868000Y-103886000D01*
X213868000Y-103886000D02*
X215646000Y-105664000D01*
X215646000Y-105664000D02*
X230378000Y-105664000D01*
X230378000Y-105664000D02*
X244348000Y-119634000D01*
X244348000Y-119634000D02*
X244602000Y-119888000D01*
X244602000Y-119888000D02*
X250952000Y-119888000D01*
X227838000Y-119888000D02*
X234188000Y-119888000D01*
X216916000Y-108966000D02*
X227838000Y-119888000D01*
X212598000Y-108966000D02*
X216916000Y-108966000D01*
X200556000Y-96924000D02*
X212598000Y-108966000D01*
X189534000Y-96924000D02*
X200556000Y-96924000D01*
X186994000Y-96924000D02*
X186994000Y-100634000D01*
X186994000Y-100634000D02*
X187706000Y-101346000D01*
X240538000Y-100330000D02*
X240538000Y-105156000D01*
X240538000Y-105156000D02*
X241808000Y-106426000D01*
X241808000Y-106426000D02*
X252476000Y-106426000D01*
X252476000Y-106426000D02*
X252476000Y-100076000D01*
X252476000Y-100076000D02*
X248920000Y-100076000D01*
X248920000Y-100076000D02*
X249174000Y-99822000D01*
X248920000Y-99822000D02*
X248920000Y-100076000D01*
X185674000Y-96774000D02*
X185674000Y-101190500D01*
X188264000Y-96924000D02*
X188264000Y-99110000D01*
X188264000Y-99110000D02*
X188722000Y-99568000D01*
X188722000Y-99568000D02*
X195326000Y-99568000D01*
X240538000Y-79248000D02*
X249936000Y-79248000D01*
X249936000Y-79248000D02*
X249936000Y-72390000D01*
X249936000Y-72390000D02*
X247142000Y-72390000D01*
X192134000Y-89784000D02*
X195966000Y-89784000D01*
X195966000Y-79126000D02*
X195966000Y-74300000D01*
X195966000Y-74300000D02*
X195326000Y-73660000D01*
X192134000Y-87244000D02*
X195966000Y-87244000D01*
X183184000Y-101550000D02*
X183134000Y-101600000D01*
X183184000Y-96924000D02*
X183184000Y-101550000D01*
X199268000Y-88514000D02*
X199390000Y-88392000D01*
X192134000Y-88514000D02*
X199268000Y-88514000D01*
X189534000Y-83924000D02*
X205382000Y-83924000D01*
X205382000Y-83924000D02*
X208026000Y-81280000D01*
X216408000Y-81280000D02*
X216408000Y-67310000D01*
X246126000Y-76200000D02*
X247396000Y-74930000D01*
X244856000Y-70473000D02*
X244856000Y-76200000D01*
X244856000Y-76200000D02*
X246126000Y-76200000D01*
X236220000Y-76200000D02*
X244856000Y-76200000D01*
X242062000Y-67679000D02*
X244856000Y-70473000D01*
X242062000Y-66294000D02*
X242062000Y-67679000D01*
M02*
