G04 #@! TF.GenerationSoftware,KiCad,Pcbnew,5.1.9+dfsg1-1*
G04 #@! TF.CreationDate,2022-04-23T11:50:34+01:00*
G04 #@! TF.ProjectId,dmb2022,646d6232-3032-4322-9e6b-696361645f70,rev?*
G04 #@! TF.SameCoordinates,Original*
G04 #@! TF.FileFunction,Legend,Top*
G04 #@! TF.FilePolarity,Positive*
%FSLAX46Y46*%
G04 Gerber Fmt 4.6, Leading zero omitted, Abs format (unit mm)*
G04 Created by KiCad (PCBNEW 5.1.9+dfsg1-1) date 2022-04-23 11:50:34*
%MOMM*%
%LPD*%
G01*
G04 APERTURE LIST*
%ADD10C,0.120000*%
%ADD11C,0.150000*%
%ADD12C,0.010000*%
%ADD13C,0.127000*%
G04 APERTURE END LIST*
D10*
X175259999Y-65531999D02*
G75*
G02*
X175259999Y-65531999I-1523999J1777999D01*
G01*
D11*
X193206952Y-70254761D02*
X193349809Y-70302380D01*
X193587904Y-70302380D01*
X193683142Y-70254761D01*
X193730761Y-70207142D01*
X193778380Y-70111904D01*
X193778380Y-70016666D01*
X193730761Y-69921428D01*
X193683142Y-69873809D01*
X193587904Y-69826190D01*
X193397428Y-69778571D01*
X193302190Y-69730952D01*
X193254571Y-69683333D01*
X193206952Y-69588095D01*
X193206952Y-69492857D01*
X193254571Y-69397619D01*
X193302190Y-69350000D01*
X193397428Y-69302380D01*
X193635523Y-69302380D01*
X193778380Y-69350000D01*
X194111714Y-69302380D02*
X194349809Y-70302380D01*
X194540285Y-69588095D01*
X194730761Y-70302380D01*
X194968857Y-69302380D01*
X195349809Y-70302380D02*
X195349809Y-69302380D01*
X195587904Y-69302380D01*
X195730761Y-69350000D01*
X195826000Y-69445238D01*
X195873619Y-69540476D01*
X195921238Y-69730952D01*
X195921238Y-69873809D01*
X195873619Y-70064285D01*
X195826000Y-70159523D01*
X195730761Y-70254761D01*
X195587904Y-70302380D01*
X195349809Y-70302380D01*
X196349809Y-70302380D02*
X196349809Y-69302380D01*
X197016476Y-69302380D02*
X197206952Y-69302380D01*
X197302190Y-69350000D01*
X197397428Y-69445238D01*
X197445047Y-69635714D01*
X197445047Y-69969047D01*
X197397428Y-70159523D01*
X197302190Y-70254761D01*
X197206952Y-70302380D01*
X197016476Y-70302380D01*
X196921238Y-70254761D01*
X196826000Y-70159523D01*
X196778380Y-69969047D01*
X196778380Y-69635714D01*
X196826000Y-69445238D01*
X196921238Y-69350000D01*
X197016476Y-69302380D01*
X192174761Y-73889904D02*
X192222380Y-73747047D01*
X192222380Y-73508952D01*
X192174761Y-73413714D01*
X192127142Y-73366095D01*
X192031904Y-73318476D01*
X191936666Y-73318476D01*
X191841428Y-73366095D01*
X191793809Y-73413714D01*
X191746190Y-73508952D01*
X191698571Y-73699428D01*
X191650952Y-73794666D01*
X191603333Y-73842285D01*
X191508095Y-73889904D01*
X191412857Y-73889904D01*
X191317619Y-73842285D01*
X191270000Y-73794666D01*
X191222380Y-73699428D01*
X191222380Y-73461333D01*
X191270000Y-73318476D01*
X191222380Y-72985142D02*
X192222380Y-72747047D01*
X191508095Y-72556571D01*
X192222380Y-72366095D01*
X191222380Y-72128000D01*
X192127142Y-71175619D02*
X192174761Y-71223238D01*
X192222380Y-71366095D01*
X192222380Y-71461333D01*
X192174761Y-71604190D01*
X192079523Y-71699428D01*
X191984285Y-71747047D01*
X191793809Y-71794666D01*
X191650952Y-71794666D01*
X191460476Y-71747047D01*
X191365238Y-71699428D01*
X191270000Y-71604190D01*
X191222380Y-71461333D01*
X191222380Y-71366095D01*
X191270000Y-71223238D01*
X191317619Y-71175619D01*
X192222380Y-70270857D02*
X192222380Y-70747047D01*
X191222380Y-70747047D01*
X192222380Y-69937523D02*
X191222380Y-69937523D01*
X192222380Y-69366095D02*
X191650952Y-69794666D01*
X191222380Y-69366095D02*
X191793809Y-69937523D01*
X189682380Y-70270666D02*
X189206190Y-70604000D01*
X189682380Y-70842095D02*
X188682380Y-70842095D01*
X188682380Y-70461142D01*
X188730000Y-70365904D01*
X188777619Y-70318285D01*
X188872857Y-70270666D01*
X189015714Y-70270666D01*
X189110952Y-70318285D01*
X189158571Y-70365904D01*
X189206190Y-70461142D01*
X189206190Y-70842095D01*
X188682380Y-69937333D02*
X189682380Y-69270666D01*
X188682380Y-69270666D02*
X189682380Y-69937333D01*
X186142380Y-70865904D02*
X186142380Y-70294476D01*
X187142380Y-70580190D02*
X186142380Y-70580190D01*
X186142380Y-70056380D02*
X187142380Y-69389714D01*
X186142380Y-69389714D02*
X187142380Y-70056380D01*
X183602380Y-72342190D02*
X183602380Y-71723142D01*
X183983333Y-72056476D01*
X183983333Y-71913619D01*
X184030952Y-71818380D01*
X184078571Y-71770761D01*
X184173809Y-71723142D01*
X184411904Y-71723142D01*
X184507142Y-71770761D01*
X184554761Y-71818380D01*
X184602380Y-71913619D01*
X184602380Y-72199333D01*
X184554761Y-72294571D01*
X184507142Y-72342190D01*
X184507142Y-71294571D02*
X184554761Y-71246952D01*
X184602380Y-71294571D01*
X184554761Y-71342190D01*
X184507142Y-71294571D01*
X184602380Y-71294571D01*
X183602380Y-70913619D02*
X183602380Y-70294571D01*
X183983333Y-70627904D01*
X183983333Y-70485047D01*
X184030952Y-70389809D01*
X184078571Y-70342190D01*
X184173809Y-70294571D01*
X184411904Y-70294571D01*
X184507142Y-70342190D01*
X184554761Y-70389809D01*
X184602380Y-70485047D01*
X184602380Y-70770761D01*
X184554761Y-70866000D01*
X184507142Y-70913619D01*
X183602380Y-70008857D02*
X184602380Y-69675523D01*
X183602380Y-69342190D01*
X181110000Y-71000857D02*
X181062380Y-71096095D01*
X181062380Y-71238952D01*
X181110000Y-71381809D01*
X181205238Y-71477047D01*
X181300476Y-71524666D01*
X181490952Y-71572285D01*
X181633809Y-71572285D01*
X181824285Y-71524666D01*
X181919523Y-71477047D01*
X182014761Y-71381809D01*
X182062380Y-71238952D01*
X182062380Y-71143714D01*
X182014761Y-71000857D01*
X181967142Y-70953238D01*
X181633809Y-70953238D01*
X181633809Y-71143714D01*
X181395714Y-70524666D02*
X182062380Y-70524666D01*
X181490952Y-70524666D02*
X181443333Y-70477047D01*
X181395714Y-70381809D01*
X181395714Y-70238952D01*
X181443333Y-70143714D01*
X181538571Y-70096095D01*
X182062380Y-70096095D01*
X182062380Y-69191333D02*
X181062380Y-69191333D01*
X182014761Y-69191333D02*
X182062380Y-69286571D01*
X182062380Y-69477047D01*
X182014761Y-69572285D01*
X181967142Y-69619904D01*
X181871904Y-69667523D01*
X181586190Y-69667523D01*
X181490952Y-69619904D01*
X181443333Y-69572285D01*
X181395714Y-69477047D01*
X181395714Y-69286571D01*
X181443333Y-69191333D01*
D10*
X243182000Y-68584000D02*
X240942000Y-68584000D01*
X243182000Y-68824000D02*
X240942000Y-68824000D01*
X243182000Y-68704000D02*
X240942000Y-68704000D01*
X242062000Y-72874000D02*
X242062000Y-72224000D01*
X242062000Y-67334000D02*
X242062000Y-67984000D01*
X243182000Y-72224000D02*
X243182000Y-67984000D01*
X240942000Y-72224000D02*
X243182000Y-72224000D01*
X240942000Y-67984000D02*
X240942000Y-72224000D01*
X243182000Y-67984000D02*
X240942000Y-67984000D01*
D12*
G36*
X228330125Y-113263303D02*
G01*
X228448514Y-113267413D01*
X228531537Y-113281344D01*
X228585673Y-113308496D01*
X228617400Y-113352268D01*
X228633196Y-113416058D01*
X228634044Y-113422779D01*
X228636878Y-113498038D01*
X228621656Y-113554002D01*
X228583524Y-113593826D01*
X228517630Y-113620663D01*
X228419120Y-113637665D01*
X228287792Y-113647745D01*
X228134333Y-113655800D01*
X228134333Y-113262833D01*
X228330125Y-113263303D01*
G37*
X228330125Y-113263303D02*
X228448514Y-113267413D01*
X228531537Y-113281344D01*
X228585673Y-113308496D01*
X228617400Y-113352268D01*
X228633196Y-113416058D01*
X228634044Y-113422779D01*
X228636878Y-113498038D01*
X228621656Y-113554002D01*
X228583524Y-113593826D01*
X228517630Y-113620663D01*
X228419120Y-113637665D01*
X228287792Y-113647745D01*
X228134333Y-113655800D01*
X228134333Y-113262833D01*
X228330125Y-113263303D01*
G36*
X223433338Y-113406168D02*
G01*
X223435318Y-113448848D01*
X223435333Y-113458621D01*
X223440657Y-113512757D01*
X223453745Y-113546227D01*
X223456500Y-113548583D01*
X223473408Y-113578016D01*
X223477667Y-113609099D01*
X223484947Y-113655796D01*
X223495255Y-113676641D01*
X223509672Y-113706188D01*
X223530292Y-113763946D01*
X223551750Y-113834333D01*
X223574031Y-113907221D01*
X223594502Y-113964158D01*
X223608245Y-113992025D01*
X223622759Y-114015423D01*
X223614456Y-114031103D01*
X223578324Y-114040480D01*
X223509352Y-114044969D01*
X223417102Y-114046000D01*
X223208370Y-114046000D01*
X223218859Y-113987791D01*
X223231572Y-113937157D01*
X223243804Y-113908416D01*
X223257210Y-113878051D01*
X223277487Y-113820453D01*
X223296514Y-113760250D01*
X223319811Y-113686754D01*
X223341158Y-113625867D01*
X223353301Y-113596495D01*
X223368987Y-113544690D01*
X223372506Y-113511828D01*
X223385846Y-113456226D01*
X223404256Y-113422829D01*
X223424607Y-113399364D01*
X223433338Y-113406168D01*
G37*
X223433338Y-113406168D02*
X223435318Y-113448848D01*
X223435333Y-113458621D01*
X223440657Y-113512757D01*
X223453745Y-113546227D01*
X223456500Y-113548583D01*
X223473408Y-113578016D01*
X223477667Y-113609099D01*
X223484947Y-113655796D01*
X223495255Y-113676641D01*
X223509672Y-113706188D01*
X223530292Y-113763946D01*
X223551750Y-113834333D01*
X223574031Y-113907221D01*
X223594502Y-113964158D01*
X223608245Y-113992025D01*
X223622759Y-114015423D01*
X223614456Y-114031103D01*
X223578324Y-114040480D01*
X223509352Y-114044969D01*
X223417102Y-114046000D01*
X223208370Y-114046000D01*
X223218859Y-113987791D01*
X223231572Y-113937157D01*
X223243804Y-113908416D01*
X223257210Y-113878051D01*
X223277487Y-113820453D01*
X223296514Y-113760250D01*
X223319811Y-113686754D01*
X223341158Y-113625867D01*
X223353301Y-113596495D01*
X223368987Y-113544690D01*
X223372506Y-113511828D01*
X223385846Y-113456226D01*
X223404256Y-113422829D01*
X223424607Y-113399364D01*
X223433338Y-113406168D01*
G36*
X220958833Y-113463916D02*
G01*
X220948250Y-113474500D01*
X220937667Y-113463916D01*
X220948250Y-113453333D01*
X220958833Y-113463916D01*
G37*
X220958833Y-113463916D02*
X220948250Y-113474500D01*
X220937667Y-113463916D01*
X220948250Y-113453333D01*
X220958833Y-113463916D01*
G36*
X215328182Y-113263834D02*
G01*
X215391462Y-113268086D01*
X215432096Y-113277461D01*
X215459919Y-113293828D01*
X215475842Y-113309157D01*
X215513351Y-113374691D01*
X215509135Y-113443242D01*
X215486200Y-113484352D01*
X215464196Y-113504746D01*
X215428965Y-113518719D01*
X215371622Y-113528283D01*
X215283282Y-113535446D01*
X215252258Y-113537269D01*
X215164361Y-113541270D01*
X215093758Y-113542770D01*
X215050116Y-113541655D01*
X215040968Y-113539763D01*
X215036404Y-113515630D01*
X215033223Y-113461436D01*
X215032167Y-113396888D01*
X215032167Y-113262833D01*
X215232425Y-113262833D01*
X215328182Y-113263834D01*
G37*
X215328182Y-113263834D02*
X215391462Y-113268086D01*
X215432096Y-113277461D01*
X215459919Y-113293828D01*
X215475842Y-113309157D01*
X215513351Y-113374691D01*
X215509135Y-113443242D01*
X215486200Y-113484352D01*
X215464196Y-113504746D01*
X215428965Y-113518719D01*
X215371622Y-113528283D01*
X215283282Y-113535446D01*
X215252258Y-113537269D01*
X215164361Y-113541270D01*
X215093758Y-113542770D01*
X215050116Y-113541655D01*
X215040968Y-113539763D01*
X215036404Y-113515630D01*
X215033223Y-113461436D01*
X215032167Y-113396888D01*
X215032167Y-113262833D01*
X215232425Y-113262833D01*
X215328182Y-113263834D01*
G36*
X215350360Y-113940878D02*
G01*
X215417084Y-113944207D01*
X215460319Y-113951939D01*
X215489479Y-113965863D01*
X215513984Y-113987768D01*
X215516732Y-113990669D01*
X215551303Y-114044555D01*
X215558116Y-114112353D01*
X215557463Y-114121388D01*
X215542117Y-114184791D01*
X215504955Y-114229541D01*
X215440823Y-114258185D01*
X215344564Y-114273273D01*
X215242069Y-114277286D01*
X215158145Y-114276443D01*
X215091141Y-114272861D01*
X215051749Y-114267225D01*
X215046278Y-114264722D01*
X215039402Y-114238046D01*
X215034380Y-114180812D01*
X215032192Y-114104789D01*
X215032167Y-114095388D01*
X215032167Y-113940166D01*
X215250727Y-113940166D01*
X215350360Y-113940878D01*
G37*
X215350360Y-113940878D02*
X215417084Y-113944207D01*
X215460319Y-113951939D01*
X215489479Y-113965863D01*
X215513984Y-113987768D01*
X215516732Y-113990669D01*
X215551303Y-114044555D01*
X215558116Y-114112353D01*
X215557463Y-114121388D01*
X215542117Y-114184791D01*
X215504955Y-114229541D01*
X215440823Y-114258185D01*
X215344564Y-114273273D01*
X215242069Y-114277286D01*
X215158145Y-114276443D01*
X215091141Y-114272861D01*
X215051749Y-114267225D01*
X215046278Y-114264722D01*
X215039402Y-114238046D01*
X215034380Y-114180812D01*
X215032192Y-114104789D01*
X215032167Y-114095388D01*
X215032167Y-113940166D01*
X215250727Y-113940166D01*
X215350360Y-113940878D01*
G36*
X211972768Y-113271186D02*
G01*
X212066510Y-113299040D01*
X212136322Y-113350588D01*
X212189976Y-113430021D01*
X212201383Y-113453857D01*
X212250480Y-113612839D01*
X212262757Y-113787725D01*
X212244322Y-113942202D01*
X212217090Y-114043285D01*
X212176948Y-114119544D01*
X212115519Y-114181048D01*
X212024425Y-114237863D01*
X211979162Y-114260869D01*
X211938751Y-114270610D01*
X211872467Y-114277134D01*
X211815120Y-114278833D01*
X211687833Y-114278833D01*
X211687833Y-113262833D01*
X211847328Y-113262833D01*
X211972768Y-113271186D01*
G37*
X211972768Y-113271186D02*
X212066510Y-113299040D01*
X212136322Y-113350588D01*
X212189976Y-113430021D01*
X212201383Y-113453857D01*
X212250480Y-113612839D01*
X212262757Y-113787725D01*
X212244322Y-113942202D01*
X212217090Y-114043285D01*
X212176948Y-114119544D01*
X212115519Y-114181048D01*
X212024425Y-114237863D01*
X211979162Y-114260869D01*
X211938751Y-114270610D01*
X211872467Y-114277134D01*
X211815120Y-114278833D01*
X211687833Y-114278833D01*
X211687833Y-113262833D01*
X211847328Y-113262833D01*
X211972768Y-113271186D01*
G36*
X224684167Y-109844416D02*
G01*
X224673583Y-109855000D01*
X224663000Y-109844416D01*
X224673583Y-109833833D01*
X224684167Y-109844416D01*
G37*
X224684167Y-109844416D02*
X224673583Y-109855000D01*
X224663000Y-109844416D01*
X224673583Y-109833833D01*
X224684167Y-109844416D01*
G36*
X220935531Y-108237092D02*
G01*
X220939663Y-108260958D01*
X220944406Y-108321127D01*
X220949453Y-108411578D01*
X220954492Y-108526290D01*
X220959216Y-108659243D01*
X220961921Y-108750755D01*
X220969626Y-109021375D01*
X220978568Y-109315316D01*
X220988434Y-109623468D01*
X220998911Y-109936722D01*
X221009687Y-110245968D01*
X221020450Y-110542099D01*
X221030888Y-110816003D01*
X221040688Y-111058573D01*
X221042599Y-111103833D01*
X221048923Y-111263016D01*
X221054536Y-111424829D01*
X221059136Y-111578864D01*
X221062421Y-111714714D01*
X221064087Y-111821972D01*
X221064229Y-111848227D01*
X221065463Y-111948948D01*
X221068482Y-112036025D01*
X221072821Y-112099596D01*
X221077514Y-112128685D01*
X221107748Y-112157509D01*
X221159584Y-112156238D01*
X221225456Y-112125456D01*
X221239093Y-112116206D01*
X221303639Y-112070246D01*
X221390528Y-112116265D01*
X221445535Y-112143715D01*
X221484599Y-112160144D01*
X221493292Y-112162225D01*
X221499684Y-112142463D01*
X221504845Y-112088937D01*
X221508190Y-112010211D01*
X221509167Y-111930343D01*
X221509167Y-111698520D01*
X221641458Y-111692218D01*
X221773750Y-111685916D01*
X221780135Y-111598482D01*
X221797036Y-111521904D01*
X221841157Y-111462568D01*
X221848744Y-111455607D01*
X221910967Y-111400166D01*
X222335995Y-111400166D01*
X222495352Y-111400993D01*
X222616220Y-111403621D01*
X222702414Y-111408275D01*
X222757748Y-111415176D01*
X222786038Y-111424548D01*
X222788668Y-111426625D01*
X222827947Y-111459609D01*
X222861240Y-111484214D01*
X222882096Y-111502543D01*
X222895308Y-111528573D01*
X222902583Y-111571354D01*
X222905628Y-111639938D01*
X222906167Y-111722339D01*
X222908092Y-111827835D01*
X222915041Y-111894241D01*
X222928770Y-111924675D01*
X222951037Y-111922252D01*
X222983596Y-111890091D01*
X222993681Y-111877604D01*
X223042723Y-111837494D01*
X223115178Y-111820098D01*
X223123727Y-111819395D01*
X223180373Y-111812756D01*
X223208390Y-111795663D01*
X223221445Y-111755932D01*
X223225955Y-111728250D01*
X223234096Y-111679643D01*
X223238653Y-111670783D01*
X223241401Y-111699421D01*
X223241830Y-111708141D01*
X223256228Y-111774933D01*
X223295743Y-111811562D01*
X223366534Y-111823453D01*
X223372786Y-111823500D01*
X223450259Y-111840264D01*
X223504769Y-111885877D01*
X223528044Y-111953319D01*
X223528160Y-111955335D01*
X223542165Y-111993721D01*
X223585760Y-112009745D01*
X223588792Y-112010114D01*
X223647000Y-112016811D01*
X223647000Y-111315500D01*
X223790759Y-111315500D01*
X223868040Y-111314321D01*
X223918606Y-111306603D01*
X223958078Y-111286077D01*
X224002072Y-111246471D01*
X224028000Y-111220250D01*
X224082052Y-111167779D01*
X224123833Y-111139260D01*
X224169666Y-111127425D01*
X224235870Y-111125004D01*
X224241876Y-111125000D01*
X224362271Y-111125000D01*
X224364127Y-110744260D01*
X224365769Y-110594399D01*
X224369595Y-110480693D01*
X224376440Y-110396987D01*
X224387138Y-110337123D01*
X224402524Y-110294945D01*
X224423432Y-110264297D01*
X224430167Y-110257166D01*
X224444926Y-110232894D01*
X224469155Y-110184841D01*
X224478480Y-110165046D01*
X224511142Y-110111510D01*
X224546662Y-110077305D01*
X224556439Y-110072989D01*
X224591040Y-110048230D01*
X224626767Y-109999881D01*
X224634600Y-109985193D01*
X224658837Y-109939298D01*
X224671729Y-109928534D01*
X224678813Y-109949211D01*
X224679763Y-109955096D01*
X224698855Y-109996526D01*
X224739455Y-110049559D01*
X224767259Y-110078335D01*
X224826469Y-110144930D01*
X224879765Y-110221774D01*
X224894445Y-110248342D01*
X224910878Y-110285505D01*
X224923845Y-110327286D01*
X224933825Y-110379203D01*
X224941295Y-110446776D01*
X224946735Y-110535523D01*
X224950623Y-110650963D01*
X224953437Y-110798615D01*
X224955309Y-110950375D01*
X224957158Y-111125000D01*
X225080838Y-111125000D01*
X225150708Y-111126897D01*
X225198047Y-111137413D01*
X225239348Y-111163780D01*
X225291100Y-111213232D01*
X225298000Y-111220250D01*
X225349279Y-111270686D01*
X225388883Y-111299172D01*
X225432430Y-111311976D01*
X225495539Y-111315371D01*
X225535240Y-111315500D01*
X225679000Y-111315500D01*
X225679000Y-111664750D01*
X225679326Y-111798116D01*
X225681282Y-111894398D01*
X225686338Y-111958846D01*
X225695962Y-111996710D01*
X225711623Y-112013238D01*
X225734788Y-112013679D01*
X225766928Y-112003284D01*
X225773059Y-112000944D01*
X225794442Y-111980456D01*
X225787189Y-111963903D01*
X225785511Y-111929782D01*
X225817384Y-111881708D01*
X225870862Y-111837390D01*
X225937736Y-111823588D01*
X225945526Y-111823500D01*
X226015929Y-111811775D01*
X226052390Y-111786458D01*
X226076278Y-111760976D01*
X226092975Y-111770031D01*
X226103400Y-111786458D01*
X226143786Y-111815556D01*
X226207454Y-111823500D01*
X226261834Y-111829321D01*
X226294629Y-111843772D01*
X226297610Y-111848414D01*
X226315274Y-111863583D01*
X226338286Y-111850012D01*
X226354485Y-111817502D01*
X226356333Y-111801084D01*
X226344972Y-111767255D01*
X226329875Y-111759675D01*
X226316027Y-111753115D01*
X226326160Y-111743800D01*
X226334916Y-111720044D01*
X226341348Y-111672276D01*
X226344676Y-111615932D01*
X226344121Y-111566449D01*
X226338904Y-111539264D01*
X226336563Y-111537750D01*
X226333635Y-111518215D01*
X226331934Y-111466096D01*
X226331341Y-111391121D01*
X226331739Y-111303017D01*
X226333009Y-111211513D01*
X226335034Y-111126336D01*
X226337696Y-111057214D01*
X226340877Y-111013876D01*
X226343031Y-111004246D01*
X226342778Y-110979638D01*
X226332391Y-110962905D01*
X226321752Y-110939288D01*
X226329047Y-110934500D01*
X226343253Y-110916102D01*
X226349276Y-110871777D01*
X226349278Y-110871000D01*
X226342632Y-110826309D01*
X226326620Y-110807184D01*
X226326347Y-110807175D01*
X226320748Y-110798446D01*
X226333805Y-110787622D01*
X226353156Y-110766382D01*
X226338436Y-110737380D01*
X226336505Y-110735029D01*
X226320848Y-110708139D01*
X226333824Y-110701666D01*
X226347712Y-110688617D01*
X226342766Y-110675671D01*
X226330607Y-110634471D01*
X226328817Y-110601588D01*
X226330192Y-110556273D01*
X226331733Y-110484500D01*
X226333050Y-110405333D01*
X226335167Y-110257166D01*
X227052480Y-110257166D01*
X227058948Y-110534405D01*
X227060590Y-110637867D01*
X227060504Y-110724796D01*
X227058808Y-110787124D01*
X227055620Y-110816784D01*
X227054833Y-110818074D01*
X227051684Y-110840393D01*
X227050481Y-110897020D01*
X227051224Y-110979973D01*
X227053913Y-111081273D01*
X227054833Y-111107044D01*
X227065417Y-111389583D01*
X227255084Y-111395764D01*
X227350823Y-111400370D01*
X227416062Y-111408500D01*
X227462624Y-111422858D01*
X227502335Y-111446148D01*
X227514376Y-111455049D01*
X227584000Y-111508154D01*
X227584000Y-111825241D01*
X227584530Y-111949204D01*
X227586572Y-112037215D01*
X227590801Y-112095647D01*
X227597893Y-112130872D01*
X227608523Y-112149264D01*
X227619047Y-112155777D01*
X227660604Y-112150323D01*
X227693130Y-112121018D01*
X227708544Y-112097165D01*
X227719342Y-112065152D01*
X227726311Y-112017672D01*
X227730239Y-111947416D01*
X227731913Y-111847076D01*
X227732167Y-111758706D01*
X227732764Y-111634547D01*
X227735001Y-111546237D01*
X227739548Y-111487305D01*
X227747074Y-111451278D01*
X227758247Y-111431683D01*
X227766635Y-111425314D01*
X227787344Y-111404183D01*
X227777218Y-111391263D01*
X227761925Y-111362345D01*
X227753756Y-111308970D01*
X227753333Y-111293084D01*
X227753333Y-111209666D01*
X227965000Y-111209666D01*
X227965000Y-111290100D01*
X227958751Y-111349277D01*
X227943365Y-111391384D01*
X227939864Y-111395668D01*
X227931528Y-111414943D01*
X227957599Y-111428614D01*
X227982198Y-111434297D01*
X228028340Y-111448565D01*
X228049519Y-111465055D01*
X228049667Y-111466312D01*
X228067571Y-111480645D01*
X228111072Y-111485173D01*
X228164852Y-111480959D01*
X228213594Y-111469067D01*
X228240167Y-111453083D01*
X228283305Y-111430426D01*
X228360077Y-111421417D01*
X228369758Y-111421333D01*
X228435400Y-111417771D01*
X228466979Y-111405489D01*
X228473000Y-111389583D01*
X228484429Y-111361415D01*
X228494167Y-111357833D01*
X228506104Y-111338740D01*
X228514070Y-111289696D01*
X228515977Y-111246708D01*
X228517947Y-111184914D01*
X228523938Y-111160444D01*
X228535500Y-111168360D01*
X228538852Y-111173798D01*
X228566156Y-111197432D01*
X228593235Y-111185846D01*
X228613691Y-111145703D01*
X228621167Y-111088066D01*
X228623466Y-111040795D01*
X228633837Y-111028557D01*
X228654635Y-111041759D01*
X228691997Y-111058569D01*
X228727529Y-111044915D01*
X228752486Y-111033650D01*
X228765395Y-111046337D01*
X228771992Y-111091066D01*
X228773435Y-111109688D01*
X228780464Y-111166379D01*
X228795661Y-111192301D01*
X228826708Y-111199017D01*
X228832833Y-111199083D01*
X228862547Y-111195970D01*
X228879218Y-111179967D01*
X228887599Y-111141081D01*
X228892190Y-111074290D01*
X228892111Y-111003349D01*
X228885247Y-110948836D01*
X228876315Y-110927181D01*
X228856761Y-110887829D01*
X228854000Y-110866766D01*
X228871085Y-110839862D01*
X228910856Y-110827843D01*
X228956083Y-110831486D01*
X228989536Y-110851571D01*
X228994512Y-110860416D01*
X229022220Y-110888626D01*
X229058131Y-110885590D01*
X229079179Y-110860416D01*
X229107650Y-110836621D01*
X229155264Y-110829119D01*
X229202088Y-110837911D01*
X229227345Y-110860416D01*
X229255054Y-110888626D01*
X229290964Y-110885590D01*
X229312012Y-110860416D01*
X229342289Y-110836439D01*
X229396014Y-110828666D01*
X229446333Y-110833884D01*
X229466044Y-110853693D01*
X229467833Y-110869750D01*
X229458114Y-110910271D01*
X229446667Y-110923916D01*
X229437220Y-110949625D01*
X229429946Y-111007242D01*
X229425943Y-111086355D01*
X229425500Y-111124822D01*
X229426325Y-111215184D01*
X229430090Y-111272018D01*
X229438733Y-111304115D01*
X229454188Y-111320270D01*
X229469964Y-111326759D01*
X229515266Y-111328613D01*
X229537697Y-111317602D01*
X229574914Y-111300255D01*
X229620233Y-111294333D01*
X229652814Y-111296280D01*
X229670532Y-111308711D01*
X229677914Y-111341506D01*
X229679485Y-111404548D01*
X229679500Y-111423735D01*
X229679500Y-111553138D01*
X229743000Y-111543818D01*
X229787521Y-111541482D01*
X229804232Y-111560033D01*
X229806500Y-111594861D01*
X229814066Y-111639945D01*
X229845359Y-111661822D01*
X229870000Y-111667925D01*
X229933500Y-111680625D01*
X229933500Y-118025333D01*
X229656781Y-118025333D01*
X229543535Y-118024817D01*
X229466241Y-118022716D01*
X229418523Y-118018203D01*
X229394005Y-118010449D01*
X229386314Y-117998628D01*
X229386906Y-117990291D01*
X229411007Y-117957942D01*
X229432731Y-117949546D01*
X229471105Y-117939534D01*
X229482476Y-117933079D01*
X229485083Y-117908785D01*
X229459929Y-117885995D01*
X229424251Y-117877166D01*
X229389765Y-117861594D01*
X229383167Y-117834833D01*
X229386916Y-117813188D01*
X229404013Y-117800489D01*
X229443230Y-117794394D01*
X229513340Y-117792566D01*
X229541917Y-117792500D01*
X229625653Y-117790836D01*
X229674805Y-117784826D01*
X229697029Y-117772938D01*
X229700667Y-117760750D01*
X229692401Y-117744068D01*
X229662514Y-117734245D01*
X229603368Y-117729766D01*
X229540444Y-117729000D01*
X229459344Y-117728300D01*
X229412109Y-117724449D01*
X229390278Y-117714820D01*
X229385387Y-117696788D01*
X229386986Y-117681375D01*
X229411090Y-117638583D01*
X229441375Y-117626986D01*
X229478610Y-117610800D01*
X229489000Y-117591416D01*
X229470982Y-117566336D01*
X229441375Y-117555847D01*
X229401241Y-117536018D01*
X229385021Y-117501427D01*
X229394687Y-117467501D01*
X229427876Y-117450178D01*
X229470998Y-117434373D01*
X229483841Y-117411683D01*
X229464448Y-117393839D01*
X229437847Y-117390333D01*
X229395594Y-117376869D01*
X229380750Y-117346974D01*
X229394867Y-117316392D01*
X229429134Y-117301847D01*
X229472887Y-117284560D01*
X229480877Y-117258318D01*
X229451757Y-117234532D01*
X229437587Y-117230069D01*
X229395379Y-117206248D01*
X229382946Y-117172582D01*
X229401260Y-117143020D01*
X229430792Y-117132513D01*
X229468027Y-117115213D01*
X229478417Y-117094000D01*
X229460399Y-117066617D01*
X229430792Y-117055486D01*
X229391046Y-117034651D01*
X229383167Y-117008788D01*
X229388198Y-116987753D01*
X229409108Y-116974820D01*
X229454623Y-116967365D01*
X229533467Y-116962764D01*
X229536625Y-116962635D01*
X229619602Y-116957286D01*
X229667609Y-116948369D01*
X229687974Y-116934073D01*
X229690083Y-116924666D01*
X229680481Y-116907109D01*
X229646788Y-116895811D01*
X229581679Y-116888959D01*
X229536625Y-116886697D01*
X229456794Y-116882230D01*
X229410486Y-116875072D01*
X229388891Y-116862489D01*
X229383200Y-116841748D01*
X229383167Y-116839072D01*
X229395596Y-116806852D01*
X229437847Y-116797666D01*
X229476679Y-116787819D01*
X229482189Y-116766294D01*
X229456133Y-116745111D01*
X229429134Y-116737986D01*
X229391202Y-116718560D01*
X229384110Y-116685709D01*
X229406823Y-116653873D01*
X229436083Y-116640808D01*
X229475731Y-116623629D01*
X229489000Y-116606239D01*
X229471486Y-116583793D01*
X229436083Y-116564833D01*
X229392615Y-116534326D01*
X229382685Y-116497248D01*
X229405680Y-116466324D01*
X229441375Y-116455114D01*
X229483660Y-116443591D01*
X229499583Y-116427250D01*
X229481274Y-116409766D01*
X229441375Y-116399385D01*
X229397442Y-116381573D01*
X229381453Y-116350689D01*
X229395270Y-116320791D01*
X229429134Y-116307013D01*
X229472887Y-116289727D01*
X229480877Y-116263484D01*
X229451757Y-116239699D01*
X229437587Y-116235236D01*
X229393524Y-116210313D01*
X229383167Y-116182465D01*
X229388487Y-116161811D01*
X229410227Y-116149070D01*
X229457052Y-116141685D01*
X229536625Y-116137135D01*
X229619602Y-116131786D01*
X229667609Y-116122869D01*
X229687974Y-116108573D01*
X229690083Y-116099166D01*
X229680481Y-116081609D01*
X229646788Y-116070311D01*
X229581679Y-116063459D01*
X229536625Y-116061197D01*
X229456360Y-116056568D01*
X229409789Y-116049095D01*
X229388272Y-116036247D01*
X229383167Y-116016218D01*
X229401527Y-115981947D01*
X229448069Y-115964477D01*
X229491357Y-115947219D01*
X229496433Y-115926602D01*
X229465626Y-115911461D01*
X229433362Y-115908666D01*
X229394408Y-115901407D01*
X229385749Y-115872364D01*
X229386986Y-115861041D01*
X229411090Y-115818250D01*
X229441375Y-115806652D01*
X229481686Y-115791807D01*
X229482794Y-115768510D01*
X229445191Y-115743019D01*
X229436083Y-115739333D01*
X229392188Y-115710433D01*
X229388519Y-115676890D01*
X229425560Y-115645615D01*
X229429422Y-115643810D01*
X229472856Y-115615005D01*
X229483105Y-115588143D01*
X229459030Y-115571732D01*
X229439319Y-115570000D01*
X229395574Y-115558498D01*
X229379347Y-115522375D01*
X229375303Y-115504188D01*
X229364914Y-115491196D01*
X229341790Y-115482365D01*
X229299544Y-115476656D01*
X229231784Y-115473033D01*
X229132124Y-115470460D01*
X229049792Y-115468907D01*
X228727000Y-115463064D01*
X228727000Y-115592596D01*
X228728853Y-115665739D01*
X228736506Y-115707060D01*
X228753100Y-115726991D01*
X228769333Y-115733200D01*
X228787982Y-115741239D01*
X228800189Y-115758824D01*
X228807302Y-115793664D01*
X228810670Y-115853470D01*
X228811640Y-115945953D01*
X228811667Y-115975299D01*
X228812767Y-116081189D01*
X228816674Y-116151728D01*
X228824293Y-116193856D01*
X228836529Y-116214511D01*
X228843417Y-116218512D01*
X228867349Y-116248454D01*
X228875167Y-116299922D01*
X228865982Y-116356125D01*
X228843848Y-116395135D01*
X228843417Y-116395500D01*
X228828046Y-116429129D01*
X228817247Y-116492957D01*
X228811140Y-116575252D01*
X228809846Y-116664286D01*
X228813485Y-116748326D01*
X228822179Y-116815642D01*
X228836049Y-116854504D01*
X228838662Y-116857221D01*
X228874620Y-116871631D01*
X228935477Y-116882931D01*
X228970954Y-116886292D01*
X229076250Y-116892959D01*
X228994290Y-116929979D01*
X228923813Y-116954188D01*
X228854734Y-116966578D01*
X228843423Y-116967000D01*
X228774272Y-116981224D01*
X228735995Y-117021660D01*
X228730667Y-117076846D01*
X228739307Y-117101486D01*
X228761752Y-117121705D01*
X228804610Y-117140175D01*
X228874491Y-117159563D01*
X228978004Y-117182541D01*
X229007458Y-117188655D01*
X229055269Y-117203867D01*
X229064438Y-117219508D01*
X229038534Y-117232785D01*
X228981125Y-117240907D01*
X228939070Y-117242166D01*
X228868129Y-117243587D01*
X228828401Y-117250702D01*
X228808786Y-117267788D01*
X228798913Y-117296196D01*
X228785352Y-117350225D01*
X228507468Y-117342480D01*
X228359326Y-117335830D01*
X228237449Y-117323779D01*
X228125900Y-117304252D01*
X228025133Y-117279642D01*
X227890023Y-117241305D01*
X227796049Y-117209824D01*
X227743365Y-117184692D01*
X227732128Y-117165397D01*
X227762496Y-117151431D01*
X227834623Y-117142283D01*
X227948667Y-117137444D01*
X228069102Y-117136333D01*
X228186368Y-117135554D01*
X228290243Y-117133405D01*
X228372651Y-117130165D01*
X228425520Y-117126115D01*
X228439519Y-117123485D01*
X228455708Y-117109658D01*
X228465863Y-117078070D01*
X228471209Y-117020979D01*
X228472969Y-116930641D01*
X228473000Y-116911818D01*
X228473000Y-116713000D01*
X228102583Y-116713000D01*
X227964166Y-116712375D01*
X227863115Y-116710249D01*
X227794477Y-116706246D01*
X227753301Y-116699988D01*
X227734634Y-116691100D01*
X227732167Y-116684826D01*
X227741857Y-116661126D01*
X227774385Y-116638176D01*
X227834937Y-116613714D01*
X227928698Y-116585474D01*
X228007333Y-116564678D01*
X228137788Y-116532259D01*
X228233652Y-116507037D01*
X228300308Y-116482268D01*
X228343137Y-116451210D01*
X228367521Y-116407120D01*
X228378844Y-116343255D01*
X228382486Y-116252871D01*
X228383829Y-116129226D01*
X228384439Y-116092212D01*
X228387241Y-115962928D01*
X228390459Y-115869805D01*
X228394911Y-115806676D01*
X228401414Y-115767370D01*
X228410787Y-115745719D01*
X228423845Y-115735552D01*
X228432064Y-115732834D01*
X228455148Y-115720631D01*
X228467609Y-115692522D01*
X228472471Y-115638195D01*
X228473000Y-115593148D01*
X228473000Y-115464166D01*
X228134333Y-115464166D01*
X227999461Y-115465023D01*
X227902407Y-115467825D01*
X227838685Y-115472921D01*
X227803809Y-115480659D01*
X227793323Y-115490625D01*
X227792240Y-115519638D01*
X227790703Y-115583508D01*
X227788865Y-115674762D01*
X227786878Y-115785928D01*
X227785284Y-115884199D01*
X227782434Y-116023734D01*
X227778472Y-116126726D01*
X227772851Y-116198961D01*
X227765020Y-116246227D01*
X227754429Y-116274309D01*
X227747360Y-116283544D01*
X227719253Y-116301287D01*
X227697075Y-116290280D01*
X227680261Y-116247944D01*
X227668247Y-116171705D01*
X227660467Y-116058984D01*
X227656357Y-115907207D01*
X227655869Y-115866333D01*
X227654588Y-115747540D01*
X227653213Y-115642662D01*
X227651864Y-115559427D01*
X227650663Y-115505557D01*
X227649992Y-115489657D01*
X227635718Y-115474494D01*
X227592379Y-115467614D01*
X227513855Y-115468121D01*
X227505036Y-115468491D01*
X227362572Y-115474750D01*
X227297204Y-115598727D01*
X227228238Y-115703914D01*
X227137603Y-115805949D01*
X227036055Y-115894909D01*
X226934349Y-115960873D01*
X226878493Y-115985030D01*
X226801332Y-116005290D01*
X226737061Y-116006071D01*
X226687993Y-115996048D01*
X226611474Y-115979486D01*
X226536793Y-115968337D01*
X226525667Y-115967319D01*
X226451583Y-115961583D01*
X226444979Y-116065876D01*
X226448289Y-116154867D01*
X226467106Y-116229270D01*
X226469808Y-116235209D01*
X226492040Y-116293805D01*
X226514321Y-116372099D01*
X226524860Y-116418849D01*
X226545230Y-116493096D01*
X226572023Y-116555684D01*
X226589335Y-116581304D01*
X226652024Y-116657978D01*
X226690738Y-116733511D01*
X226710438Y-116821963D01*
X226716083Y-116937395D01*
X226716087Y-116940541D01*
X226717778Y-117031676D01*
X226724139Y-117091221D01*
X226737255Y-117129844D01*
X226758500Y-117157500D01*
X226794275Y-117202237D01*
X226791994Y-117229566D01*
X226750435Y-117242342D01*
X226721458Y-117244044D01*
X226668391Y-117244713D01*
X226583862Y-117245133D01*
X226478744Y-117245312D01*
X226363907Y-117245261D01*
X226250223Y-117244990D01*
X226148563Y-117244507D01*
X226069800Y-117243823D01*
X226044125Y-117243441D01*
X225992460Y-117231810D01*
X225974429Y-117205317D01*
X225993468Y-117172818D01*
X226011885Y-117160314D01*
X226031148Y-117140105D01*
X226044910Y-117099552D01*
X226055063Y-117030748D01*
X226061703Y-116952271D01*
X226072709Y-116840453D01*
X226090200Y-116758128D01*
X226118641Y-116692504D01*
X226162496Y-116630789D01*
X226181701Y-116608434D01*
X226254152Y-116499790D01*
X226301097Y-116372780D01*
X226308436Y-116336210D01*
X226324744Y-116278347D01*
X226348393Y-116238220D01*
X226352327Y-116234793D01*
X226368411Y-116200191D01*
X226373611Y-116136258D01*
X226369076Y-116054252D01*
X226355954Y-115965429D01*
X226335392Y-115881047D01*
X226309426Y-115814091D01*
X226277732Y-115745560D01*
X226242205Y-115659649D01*
X226220312Y-115601750D01*
X226192482Y-115524378D01*
X226413044Y-115524378D01*
X226420715Y-115537014D01*
X226438387Y-115574285D01*
X226441000Y-115595687D01*
X226457321Y-115659302D01*
X226500074Y-115728618D01*
X226534197Y-115765565D01*
X226578979Y-115798187D01*
X226603891Y-115794028D01*
X226610333Y-115761749D01*
X226601260Y-115721670D01*
X226590507Y-115708411D01*
X226566286Y-115679714D01*
X226537710Y-115629309D01*
X226514033Y-115575575D01*
X226504500Y-115537589D01*
X226489686Y-115503792D01*
X226471137Y-115483994D01*
X226441225Y-115467250D01*
X226420439Y-115484390D01*
X226419101Y-115486517D01*
X226413044Y-115524378D01*
X226192482Y-115524378D01*
X226174631Y-115474750D01*
X225972213Y-115468728D01*
X225818845Y-115464166D01*
X226589167Y-115464166D01*
X226589167Y-115518561D01*
X226602376Y-115569606D01*
X226635886Y-115636437D01*
X226680520Y-115704457D01*
X226727100Y-115759069D01*
X226753685Y-115780238D01*
X226806239Y-115800387D01*
X226851488Y-115786766D01*
X226878048Y-115765791D01*
X226917580Y-115716484D01*
X226956930Y-115646812D01*
X226985273Y-115577386D01*
X226991987Y-115548833D01*
X226995005Y-115510533D01*
X226986555Y-115485953D01*
X226959409Y-115472060D01*
X226906341Y-115465822D01*
X226820123Y-115464204D01*
X226790250Y-115464166D01*
X226589167Y-115464166D01*
X225818845Y-115464166D01*
X225769795Y-115462707D01*
X225758865Y-115994966D01*
X225755285Y-116161419D01*
X225751689Y-116290589D01*
X225747285Y-116387522D01*
X225741283Y-116457261D01*
X225732893Y-116504852D01*
X225721323Y-116535338D01*
X225705782Y-116553763D01*
X225685481Y-116565173D01*
X225668482Y-116571523D01*
X225660337Y-116594466D01*
X225652133Y-116653775D01*
X225644425Y-116743486D01*
X225637769Y-116857637D01*
X225634452Y-116936992D01*
X225627229Y-117085993D01*
X225616970Y-117226877D01*
X225604455Y-117353027D01*
X225590462Y-117457830D01*
X225575770Y-117534671D01*
X225561158Y-117576935D01*
X225558725Y-117580220D01*
X225542032Y-117577720D01*
X225525065Y-117545721D01*
X225512910Y-117496718D01*
X225509991Y-117460502D01*
X225501526Y-117390319D01*
X225485109Y-117333502D01*
X225474603Y-117283332D01*
X225467562Y-117193960D01*
X225464139Y-117068389D01*
X225464252Y-116929645D01*
X225467953Y-116585374D01*
X225362213Y-116537196D01*
X225350917Y-115474750D01*
X224631250Y-115474750D01*
X224631250Y-115728750D01*
X224710625Y-115735319D01*
X224762871Y-115743085D01*
X224785192Y-115761744D01*
X224789996Y-115802048D01*
X224790000Y-115804111D01*
X224780371Y-115853582D01*
X224758250Y-115866333D01*
X224746315Y-115871879D01*
X224737725Y-115892283D01*
X224731963Y-115933191D01*
X224728517Y-116000247D01*
X224726869Y-116099100D01*
X224726500Y-116214587D01*
X224725074Y-116348241D01*
X224721055Y-116462034D01*
X224714828Y-116549278D01*
X224706777Y-116603287D01*
X224703530Y-116613255D01*
X224652754Y-116677391D01*
X224576217Y-116718390D01*
X224487083Y-116729750D01*
X224470886Y-116728167D01*
X224410246Y-116715390D01*
X224363894Y-116691998D01*
X224329990Y-116652882D01*
X224306694Y-116592934D01*
X224292165Y-116507045D01*
X224284565Y-116390104D01*
X224282054Y-116237004D01*
X224282000Y-116203622D01*
X224281704Y-116131650D01*
X224368058Y-116131650D01*
X224374917Y-116185500D01*
X224397431Y-116213693D01*
X224441644Y-116224491D01*
X224504109Y-116226166D01*
X224573096Y-116224045D01*
X224611535Y-116214901D01*
X224631115Y-116194563D01*
X224637604Y-116178541D01*
X224646481Y-116129154D01*
X224650659Y-116058979D01*
X224650492Y-116025083D01*
X224646715Y-115961812D01*
X224636036Y-115929285D01*
X224612411Y-115915923D01*
X224591744Y-115912552D01*
X224554605Y-115912299D01*
X224539109Y-115931420D01*
X224536000Y-115981337D01*
X224536000Y-115981344D01*
X224531305Y-116033216D01*
X224513261Y-116054348D01*
X224495008Y-116056833D01*
X224463957Y-116044960D01*
X224449181Y-116003106D01*
X224447383Y-115988041D01*
X224433219Y-115935374D01*
X224409000Y-115919250D01*
X224389513Y-115930779D01*
X224377508Y-115970173D01*
X224370815Y-116043879D01*
X224368058Y-116131650D01*
X224281704Y-116131650D01*
X224281471Y-116075051D01*
X224279525Y-115983077D01*
X224275623Y-115921971D01*
X224269225Y-115886006D01*
X224259793Y-115869454D01*
X224250250Y-115866333D01*
X224225010Y-115847458D01*
X224218500Y-115803993D01*
X224221481Y-115766172D01*
X224237863Y-115746807D01*
X224278809Y-115738262D01*
X224319042Y-115735201D01*
X224419583Y-115728750D01*
X224419583Y-115614097D01*
X224451657Y-115614097D01*
X224454840Y-115685753D01*
X224468875Y-115723793D01*
X224499579Y-115736636D01*
X224535208Y-115735013D01*
X224565024Y-115728604D01*
X224581104Y-115711290D01*
X224587664Y-115672614D01*
X224588916Y-115602118D01*
X224588917Y-115601750D01*
X224587537Y-115530883D01*
X224580764Y-115491829D01*
X224564642Y-115474090D01*
X224538394Y-115467606D01*
X224492827Y-115471616D01*
X224465505Y-115503054D01*
X224453194Y-115567377D01*
X224451657Y-115614097D01*
X224419583Y-115614097D01*
X224419583Y-115474750D01*
X224040144Y-115468954D01*
X223895579Y-115467499D01*
X223788599Y-115468340D01*
X223714506Y-115471727D01*
X223668601Y-115477910D01*
X223646184Y-115487142D01*
X223643593Y-115490121D01*
X223637078Y-115520625D01*
X223631652Y-115584431D01*
X223627844Y-115672514D01*
X223626185Y-115775845D01*
X223626157Y-115786958D01*
X223624292Y-115914497D01*
X223617309Y-116006508D01*
X223602594Y-116069725D01*
X223577536Y-116110879D01*
X223539520Y-116136701D01*
X223485935Y-116153925D01*
X223483497Y-116154515D01*
X223392086Y-116183297D01*
X223336829Y-116219586D01*
X223311613Y-116268559D01*
X223308333Y-116302775D01*
X223314770Y-116358319D01*
X223337953Y-116384849D01*
X223350667Y-116389366D01*
X223383551Y-116415675D01*
X223394741Y-116459705D01*
X223383970Y-116503355D01*
X223352708Y-116528099D01*
X223331458Y-116540123D01*
X223317052Y-116568654D01*
X223306816Y-116622432D01*
X223298487Y-116705192D01*
X223288381Y-116814013D01*
X223275807Y-116933040D01*
X223264695Y-117026739D01*
X223253920Y-117130754D01*
X223246124Y-117243332D01*
X223243345Y-117323073D01*
X223240248Y-117388719D01*
X223233430Y-117451331D01*
X223224566Y-117502863D01*
X223215330Y-117535269D01*
X223207398Y-117540502D01*
X223202912Y-117517333D01*
X223199017Y-117476493D01*
X223192619Y-117415575D01*
X223191016Y-117400916D01*
X223184068Y-117332531D01*
X223173706Y-117222564D01*
X223159985Y-117071621D01*
X223142963Y-116880312D01*
X223125024Y-116675958D01*
X223116472Y-116595437D01*
X223106382Y-116548707D01*
X223091830Y-116527248D01*
X223072394Y-116522500D01*
X223042191Y-116506281D01*
X223030726Y-116468309D01*
X223037637Y-116424611D01*
X223062562Y-116391214D01*
X223075500Y-116384916D01*
X223106887Y-116361410D01*
X223117651Y-116311042D01*
X223117833Y-116299816D01*
X223117678Y-116269012D01*
X223112890Y-116246432D01*
X223096987Y-116227226D01*
X223063487Y-116206539D01*
X223005905Y-116179520D01*
X222917760Y-116141316D01*
X222890292Y-116129493D01*
X222844312Y-116105683D01*
X222821029Y-116085836D01*
X222820378Y-116083634D01*
X222818765Y-116057546D01*
X222815139Y-115997558D01*
X222810003Y-115912026D01*
X222803861Y-115809309D01*
X222802469Y-115785983D01*
X222794771Y-115680157D01*
X222785554Y-115589277D01*
X222775876Y-115521877D01*
X222766793Y-115486491D01*
X222765106Y-115483973D01*
X222737495Y-115477617D01*
X222671360Y-115472794D01*
X222570488Y-115469610D01*
X222438665Y-115468169D01*
X222279676Y-115468576D01*
X222227390Y-115469073D01*
X221710250Y-115474750D01*
X221714808Y-115633500D01*
X221735478Y-115789154D01*
X221785786Y-115930002D01*
X221861927Y-116045504D01*
X221864812Y-116048735D01*
X221894552Y-116086258D01*
X221937933Y-116146277D01*
X221985417Y-116215583D01*
X222070083Y-116342583D01*
X222072142Y-116755333D01*
X222074022Y-116892272D01*
X222077999Y-117022848D01*
X222083634Y-117137994D01*
X222090486Y-117228645D01*
X222097857Y-117284500D01*
X222114615Y-117372700D01*
X222130038Y-117463130D01*
X222135501Y-117499031D01*
X222142796Y-117558215D01*
X222139159Y-117585465D01*
X222119865Y-117590720D01*
X222093911Y-117586522D01*
X222052899Y-117584650D01*
X222039005Y-117606144D01*
X222038333Y-117619449D01*
X222028989Y-117664510D01*
X222003767Y-117671544D01*
X221966884Y-117639784D01*
X221961892Y-117633351D01*
X221921166Y-117592644D01*
X221888003Y-117582937D01*
X221870189Y-117605425D01*
X221869000Y-117619121D01*
X221856863Y-117666426D01*
X221838990Y-117698449D01*
X221816033Y-117725300D01*
X221796706Y-117722590D01*
X221767716Y-117691911D01*
X221730443Y-117655420D01*
X221699862Y-117649457D01*
X221664679Y-117675762D01*
X221632556Y-117712734D01*
X221576029Y-117781516D01*
X221561996Y-117718216D01*
X221546252Y-117651336D01*
X221533340Y-117618036D01*
X221517358Y-117610477D01*
X221492403Y-117620815D01*
X221489747Y-117622231D01*
X221449708Y-117659153D01*
X221435090Y-117686644D01*
X221414868Y-117723278D01*
X221389634Y-117719096D01*
X221358347Y-117673711D01*
X221348998Y-117654916D01*
X221318905Y-117600516D01*
X221293730Y-117585143D01*
X221265322Y-117607556D01*
X221243194Y-117638840D01*
X221205187Y-117696846D01*
X221175988Y-117625288D01*
X221146789Y-117553729D01*
X221084390Y-117625489D01*
X221046728Y-117667437D01*
X221030311Y-117679105D01*
X221029190Y-117662655D01*
X221032551Y-117644333D01*
X221051640Y-117539077D01*
X221066713Y-117431573D01*
X221078440Y-117313713D01*
X221087493Y-117177385D01*
X221094542Y-117014481D01*
X221099952Y-116829416D01*
X221105054Y-116654156D01*
X221111266Y-116515771D01*
X221119429Y-116408805D01*
X221130386Y-116327802D01*
X221144978Y-116267303D01*
X221164047Y-116221853D01*
X221188434Y-116185995D01*
X221201447Y-116171452D01*
X221228667Y-116138903D01*
X221264278Y-116091770D01*
X221265750Y-116089732D01*
X221303053Y-116040503D01*
X221334109Y-116003540D01*
X221334542Y-116003083D01*
X221357436Y-115967600D01*
X221361000Y-115952511D01*
X221374198Y-115930728D01*
X221379274Y-115929833D01*
X221395093Y-115910534D01*
X221411306Y-115859978D01*
X221425939Y-115789174D01*
X221437016Y-115709131D01*
X221442561Y-115630858D01*
X221441943Y-115580583D01*
X221435083Y-115474750D01*
X220397917Y-115474750D01*
X220386174Y-115559416D01*
X220371400Y-115628351D01*
X220350370Y-115687639D01*
X220346815Y-115694646D01*
X220332923Y-115736027D01*
X220316956Y-115808375D01*
X220301134Y-115900541D01*
X220290559Y-115977099D01*
X220275165Y-116097763D01*
X220262294Y-116182624D01*
X220249796Y-116237956D01*
X220235520Y-116270031D01*
X220217317Y-116285122D01*
X220193038Y-116289502D01*
X220183432Y-116289666D01*
X220125258Y-116298525D01*
X220075629Y-116320290D01*
X220049690Y-116347739D01*
X220048667Y-116353911D01*
X220066620Y-116369978D01*
X220096292Y-116374657D01*
X220136129Y-116377176D01*
X220163943Y-116388283D01*
X220181589Y-116414255D01*
X220190923Y-116461366D01*
X220193800Y-116535894D01*
X220192075Y-116644113D01*
X220190646Y-116693816D01*
X220186187Y-116805040D01*
X220180120Y-116906110D01*
X220173197Y-116986805D01*
X220166166Y-117036904D01*
X220165166Y-117041083D01*
X220130972Y-117125553D01*
X220078951Y-117204921D01*
X220018549Y-117267327D01*
X219959214Y-117300907D01*
X219957977Y-117301236D01*
X219889917Y-117318804D01*
X219879333Y-117585690D01*
X219874183Y-117688093D01*
X219867770Y-117774800D01*
X219860876Y-117837226D01*
X219854284Y-117866785D01*
X219853667Y-117867606D01*
X219834657Y-117866831D01*
X219816801Y-117838715D01*
X219805182Y-117798069D01*
X219804885Y-117759702D01*
X219811510Y-117744791D01*
X219822340Y-117703332D01*
X219814947Y-117685956D01*
X219805753Y-117651195D01*
X219798776Y-117586452D01*
X219795212Y-117504065D01*
X219794991Y-117480291D01*
X219793864Y-117394002D01*
X219789631Y-117341750D01*
X219780417Y-117315254D01*
X219764351Y-117306235D01*
X219755492Y-117305666D01*
X219671294Y-117292348D01*
X219603427Y-117248837D01*
X219544553Y-117169801D01*
X219528888Y-117140982D01*
X219504222Y-117090805D01*
X219486850Y-117046079D01*
X219475266Y-116997528D01*
X219467962Y-116935881D01*
X219463429Y-116851861D01*
X219460161Y-116736195D01*
X219459680Y-116715245D01*
X219457440Y-116588354D01*
X219458536Y-116497681D01*
X219464698Y-116437142D01*
X219477657Y-116400652D01*
X219499144Y-116382126D01*
X219530888Y-116375480D01*
X219556542Y-116374657D01*
X219593719Y-116366231D01*
X219604167Y-116352642D01*
X219585571Y-116329170D01*
X219539613Y-116307171D01*
X219481035Y-116292507D01*
X219445720Y-116289666D01*
X219422290Y-116287511D01*
X219404762Y-116276908D01*
X219391305Y-116251651D01*
X219380086Y-116205535D01*
X219369273Y-116132353D01*
X219357033Y-116025901D01*
X219350888Y-115968478D01*
X219339225Y-115873173D01*
X219326048Y-115788254D01*
X219313446Y-115726388D01*
X219307919Y-115707808D01*
X219294421Y-115650725D01*
X219287100Y-115577774D01*
X219286667Y-115557709D01*
X219286667Y-115463507D01*
X218690517Y-115469128D01*
X218094368Y-115474750D01*
X218055090Y-115545076D01*
X218037374Y-115578863D01*
X218028937Y-115608225D01*
X218030812Y-115643395D01*
X218044032Y-115694606D01*
X218069629Y-115772090D01*
X218081507Y-115806737D01*
X218115523Y-115903301D01*
X218149772Y-115996360D01*
X218178553Y-116070559D01*
X218187016Y-116090952D01*
X218213965Y-116147370D01*
X218240325Y-116174616D01*
X218280186Y-116183225D01*
X218311252Y-116183833D01*
X218432292Y-116203509D01*
X218537821Y-116260010D01*
X218624261Y-116349540D01*
X218688030Y-116468309D01*
X218725551Y-116612521D01*
X218727265Y-116624691D01*
X218733978Y-116745492D01*
X218715597Y-116841420D01*
X218668874Y-116923860D01*
X218629319Y-116968180D01*
X218574458Y-117018121D01*
X218528498Y-117043102D01*
X218473966Y-117051270D01*
X218450296Y-117051666D01*
X218334279Y-117033489D01*
X218236994Y-116978628D01*
X218158035Y-116886584D01*
X218096997Y-116756861D01*
X218053473Y-116588961D01*
X218048300Y-116559677D01*
X218038500Y-116503247D01*
X218191332Y-116503247D01*
X218195486Y-116573965D01*
X218218627Y-116664263D01*
X218260647Y-116745786D01*
X218315231Y-116812895D01*
X218376061Y-116859950D01*
X218436823Y-116881309D01*
X218491199Y-116871332D01*
X218511170Y-116855875D01*
X218579984Y-116765546D01*
X218606998Y-116676820D01*
X218592518Y-116586897D01*
X218548937Y-116508977D01*
X218465796Y-116416087D01*
X218380696Y-116364789D01*
X218314233Y-116353166D01*
X218247563Y-116370049D01*
X218206484Y-116420284D01*
X218191332Y-116503247D01*
X218038500Y-116503247D01*
X218030757Y-116458664D01*
X218012530Y-116360159D01*
X217996756Y-116280927D01*
X217992465Y-116261160D01*
X217980265Y-116185464D01*
X217985488Y-116133261D01*
X217995053Y-116110585D01*
X218006086Y-116079981D01*
X218003666Y-116044190D01*
X217985349Y-115992263D01*
X217952988Y-115922133D01*
X217917985Y-115854126D01*
X217888107Y-115804238D01*
X217869154Y-115782024D01*
X217867729Y-115781666D01*
X217842643Y-115798400D01*
X217810138Y-115838546D01*
X217780409Y-115887018D01*
X217763647Y-115928734D01*
X217762667Y-115937143D01*
X217752502Y-115972735D01*
X217744766Y-115980731D01*
X217736577Y-116005509D01*
X217729957Y-116062286D01*
X217725930Y-116140728D01*
X217725257Y-116177772D01*
X217721938Y-116270101D01*
X217714518Y-116352806D01*
X217704398Y-116411788D01*
X217700824Y-116423336D01*
X217685332Y-116485829D01*
X217678075Y-116558529D01*
X217678000Y-116565417D01*
X217661739Y-116679713D01*
X217617940Y-116800470D01*
X217554082Y-116910357D01*
X217503713Y-116969354D01*
X217450876Y-117016935D01*
X217406769Y-117041495D01*
X217352589Y-117050542D01*
X217297587Y-117051666D01*
X217222789Y-117048609D01*
X217172680Y-117035510D01*
X217129820Y-117006481D01*
X217109984Y-116988312D01*
X217033246Y-116887557D01*
X216992539Y-116770320D01*
X216990138Y-116701527D01*
X217114138Y-116701527D01*
X217116624Y-116711553D01*
X217139422Y-116756838D01*
X217177230Y-116810777D01*
X217183927Y-116818947D01*
X217247847Y-116870792D01*
X217315998Y-116880698D01*
X217386766Y-116848651D01*
X217418892Y-116820685D01*
X217472490Y-116748221D01*
X217512666Y-116658255D01*
X217534792Y-116565622D01*
X217534239Y-116485157D01*
X217529334Y-116466665D01*
X217488044Y-116397613D01*
X217428062Y-116363726D01*
X217355719Y-116368167D01*
X217342104Y-116373185D01*
X217270469Y-116417338D01*
X217204781Y-116482864D01*
X217152114Y-116559149D01*
X217119541Y-116635575D01*
X217114138Y-116701527D01*
X216990138Y-116701527D01*
X216988083Y-116642688D01*
X217020097Y-116510751D01*
X217088162Y-116381535D01*
X217180100Y-116280121D01*
X217292504Y-116215719D01*
X217396082Y-116190773D01*
X217455389Y-116181251D01*
X217491897Y-116164084D01*
X217519022Y-116128561D01*
X217547480Y-116069889D01*
X217586879Y-115982907D01*
X217613708Y-115921021D01*
X217633173Y-115870907D01*
X217650482Y-115819241D01*
X217668831Y-115759370D01*
X217687965Y-115691362D01*
X217693387Y-115646199D01*
X217684249Y-115606391D01*
X217659700Y-115554452D01*
X217658796Y-115552681D01*
X217613319Y-115463538D01*
X216355083Y-115474750D01*
X216348809Y-115993333D01*
X216347379Y-116181744D01*
X216348223Y-116331440D01*
X216351462Y-116445982D01*
X216357215Y-116528933D01*
X216365600Y-116583855D01*
X216369012Y-116596583D01*
X216414682Y-116711778D01*
X216476529Y-116826700D01*
X216544028Y-116922221D01*
X216555394Y-116935250D01*
X216605792Y-116999510D01*
X216638353Y-117066566D01*
X216655699Y-117146885D01*
X216660450Y-117250933D01*
X216657671Y-117343775D01*
X216647365Y-117465676D01*
X216630116Y-117564862D01*
X216607454Y-117635623D01*
X216580907Y-117672250D01*
X216568682Y-117676083D01*
X216553003Y-117657520D01*
X216533024Y-117609936D01*
X216520636Y-117570250D01*
X216497162Y-117485796D01*
X216473196Y-117399725D01*
X216465754Y-117373039D01*
X216434044Y-117285665D01*
X216391972Y-117232797D01*
X216329386Y-117206749D01*
X216236999Y-117199833D01*
X216142745Y-117208529D01*
X216053442Y-117231752D01*
X215980440Y-117265200D01*
X215935088Y-117304576D01*
X215928674Y-117316632D01*
X215927874Y-117351742D01*
X215937287Y-117413315D01*
X215952768Y-117479717D01*
X215987292Y-117614789D01*
X216007440Y-117712200D01*
X216012719Y-117774280D01*
X216002639Y-117803361D01*
X215976709Y-117801773D01*
X215934437Y-117771845D01*
X215898230Y-117738556D01*
X215801800Y-117627998D01*
X215724359Y-117505090D01*
X215671284Y-117380468D01*
X215647950Y-117264767D01*
X215647335Y-117242166D01*
X215653953Y-117185259D01*
X215675464Y-117123264D01*
X215715972Y-117046998D01*
X215778292Y-116949209D01*
X215812467Y-116891841D01*
X215833403Y-116844807D01*
X215836500Y-116829837D01*
X215847799Y-116801400D01*
X215857667Y-116797666D01*
X215875035Y-116779994D01*
X215878833Y-116756582D01*
X215887632Y-116716691D01*
X215898090Y-116703597D01*
X215918555Y-116669146D01*
X215935220Y-116595039D01*
X215947879Y-116483798D01*
X215956331Y-116337947D01*
X215960371Y-116160009D01*
X215959796Y-115952507D01*
X215959628Y-115940416D01*
X215952917Y-115474750D01*
X215187135Y-115469195D01*
X214986454Y-115467850D01*
X214824011Y-115467134D01*
X214695710Y-115467215D01*
X214597458Y-115468260D01*
X214525161Y-115470436D01*
X214474725Y-115473911D01*
X214442056Y-115478853D01*
X214423060Y-115485427D01*
X214413643Y-115493803D01*
X214410523Y-115500945D01*
X214407136Y-115532224D01*
X214403625Y-115599261D01*
X214400207Y-115695483D01*
X214397098Y-115814317D01*
X214394513Y-115949190D01*
X214393500Y-116019397D01*
X214391845Y-116178624D01*
X214391671Y-116300694D01*
X214393232Y-116390765D01*
X214396782Y-116453996D01*
X214402574Y-116495545D01*
X214410863Y-116520570D01*
X214418695Y-116531427D01*
X214453119Y-116549367D01*
X214517467Y-116570248D01*
X214599847Y-116590410D01*
X214630000Y-116596479D01*
X214837560Y-116636126D01*
X215007249Y-116669255D01*
X215142848Y-116696909D01*
X215248140Y-116720136D01*
X215326905Y-116739979D01*
X215382926Y-116757484D01*
X215419982Y-116773697D01*
X215441857Y-116789662D01*
X215452330Y-116806425D01*
X215455176Y-116824578D01*
X215439106Y-116844680D01*
X215388389Y-116866537D01*
X215300430Y-116891042D01*
X215190917Y-116915347D01*
X215098069Y-116934735D01*
X215009653Y-116953590D01*
X214943063Y-116968196D01*
X214936917Y-116969589D01*
X214806601Y-116994864D01*
X214657500Y-117015064D01*
X214485146Y-117030487D01*
X214285068Y-117041431D01*
X214052797Y-117048195D01*
X213783864Y-117051077D01*
X213714542Y-117051223D01*
X213063667Y-117051666D01*
X213063667Y-116808250D01*
X213065031Y-116695294D01*
X213069464Y-116619863D01*
X213077475Y-116577228D01*
X213089574Y-116562656D01*
X213090125Y-116562592D01*
X213118998Y-116561708D01*
X213182891Y-116560631D01*
X213274494Y-116559455D01*
X213386494Y-116558276D01*
X213497583Y-116557300D01*
X213878583Y-116554250D01*
X213878583Y-115474750D01*
X213373221Y-115469068D01*
X213192028Y-115467835D01*
X213050768Y-115468728D01*
X212947091Y-115471830D01*
X212878645Y-115477221D01*
X212843081Y-115484983D01*
X212838763Y-115487535D01*
X212817121Y-115525385D01*
X212809667Y-115571342D01*
X212802869Y-115619250D01*
X212788500Y-115644083D01*
X212773312Y-115674473D01*
X212767977Y-115730003D01*
X212772123Y-115794731D01*
X212785380Y-115852716D01*
X212793791Y-115871611D01*
X212822511Y-115910693D01*
X212871122Y-115965894D01*
X212922529Y-116018701D01*
X212982990Y-116083960D01*
X213008732Y-116127132D01*
X212999714Y-116147640D01*
X212955895Y-116144911D01*
X212931089Y-116137972D01*
X212826256Y-116107472D01*
X212752635Y-116093189D01*
X212702504Y-116094724D01*
X212668141Y-116111674D01*
X212656208Y-116123698D01*
X212627945Y-116170777D01*
X212619167Y-116206095D01*
X212608886Y-116245634D01*
X212598000Y-116257916D01*
X212584470Y-116285669D01*
X212577220Y-116338311D01*
X212576833Y-116354415D01*
X212572619Y-116406978D01*
X212562110Y-116435897D01*
X212558100Y-116437833D01*
X212548142Y-116458550D01*
X212544912Y-116519988D01*
X212548390Y-116621075D01*
X212558553Y-116760740D01*
X212566334Y-116846795D01*
X212572707Y-116933933D01*
X212571129Y-117003578D01*
X212559546Y-117072771D01*
X212535908Y-117158550D01*
X212524281Y-117196045D01*
X212496375Y-117282242D01*
X212471093Y-117355941D01*
X212452459Y-117405583D01*
X212447570Y-117416504D01*
X212431232Y-117464387D01*
X212428666Y-117485583D01*
X212419210Y-117531813D01*
X212409676Y-117554662D01*
X212386671Y-117603126D01*
X212368776Y-117644333D01*
X212356512Y-117668624D01*
X212349601Y-117663410D01*
X212346365Y-117623859D01*
X212345432Y-117577156D01*
X212349051Y-117486382D01*
X212359858Y-117392923D01*
X212366974Y-117354906D01*
X212378960Y-117280927D01*
X212373591Y-117223016D01*
X212355527Y-117171989D01*
X212321492Y-117114030D01*
X212287675Y-117098046D01*
X212255427Y-117123693D01*
X212226097Y-117190627D01*
X212221481Y-117206145D01*
X212205771Y-117271689D01*
X212206023Y-117319280D01*
X212223976Y-117370837D01*
X212236694Y-117397874D01*
X212262374Y-117467726D01*
X212277300Y-117542350D01*
X212281018Y-117610879D01*
X212273076Y-117662444D01*
X212253018Y-117686178D01*
X212248750Y-117686666D01*
X212220636Y-117672150D01*
X212217000Y-117659621D01*
X212210775Y-117628372D01*
X212194452Y-117568466D01*
X212171555Y-117491327D01*
X212145608Y-117408380D01*
X212120136Y-117331049D01*
X212098665Y-117270757D01*
X212091469Y-117252750D01*
X212055898Y-117150263D01*
X212028518Y-117034401D01*
X212010535Y-116915894D01*
X212003154Y-116805472D01*
X212007580Y-116713866D01*
X212024153Y-116653400D01*
X212032068Y-116608987D01*
X212027647Y-116539485D01*
X212023176Y-116511916D01*
X212009747Y-116438444D01*
X211998501Y-116374059D01*
X211995073Y-116353166D01*
X211982511Y-116302699D01*
X211959821Y-116233410D01*
X211945494Y-116195043D01*
X211904221Y-116089836D01*
X211813640Y-116096376D01*
X211743376Y-116105138D01*
X211682852Y-116118653D01*
X211672318Y-116122208D01*
X211603505Y-116140143D01*
X211567106Y-116132784D01*
X211565343Y-116104511D01*
X211600440Y-116059707D01*
X211628409Y-116035666D01*
X211723564Y-115952716D01*
X211783768Y-115877066D01*
X211812967Y-115799306D01*
X211815107Y-115710027D01*
X211800361Y-115625600D01*
X211783276Y-115556196D01*
X211771402Y-115514579D01*
X212099854Y-115514579D01*
X212109924Y-115570514D01*
X212122302Y-115616758D01*
X212146853Y-115699431D01*
X212170664Y-115781418D01*
X212179745Y-115813416D01*
X212199341Y-115873330D01*
X212218639Y-115917242D01*
X212222897Y-115923930D01*
X212232096Y-115960640D01*
X212232754Y-116025490D01*
X212225648Y-116105321D01*
X212211555Y-116186978D01*
X212205971Y-116210291D01*
X212199069Y-116247112D01*
X212210591Y-116263806D01*
X212250399Y-116268322D01*
X212278180Y-116268500D01*
X212365462Y-116268500D01*
X212351944Y-116123047D01*
X212354696Y-115961894D01*
X212395822Y-115809172D01*
X212430543Y-115734328D01*
X212447427Y-115680735D01*
X212449833Y-115656203D01*
X212459488Y-115615563D01*
X212471000Y-115601750D01*
X212486250Y-115573135D01*
X212492167Y-115526417D01*
X212492167Y-115464166D01*
X212302916Y-115464166D01*
X212217450Y-115466297D01*
X212149010Y-115471996D01*
X212107925Y-115480224D01*
X212101119Y-115484466D01*
X212099854Y-115514579D01*
X211771402Y-115514579D01*
X211768260Y-115503571D01*
X211760305Y-115482725D01*
X211733794Y-115472103D01*
X211680357Y-115466185D01*
X211615153Y-115465085D01*
X211553338Y-115468916D01*
X211510071Y-115477789D01*
X211503917Y-115480816D01*
X211480421Y-115512447D01*
X211467731Y-115549284D01*
X211456314Y-115598066D01*
X211438221Y-115669789D01*
X211422734Y-115728750D01*
X211399826Y-115817079D01*
X211373478Y-115922632D01*
X211351314Y-116014500D01*
X211331858Y-116095018D01*
X211314882Y-116161790D01*
X211303651Y-116202027D01*
X211302658Y-116205000D01*
X211289439Y-116249266D01*
X211271784Y-116316381D01*
X211253889Y-116389369D01*
X211239952Y-116451256D01*
X211234622Y-116480166D01*
X211225652Y-116523974D01*
X211207560Y-116596259D01*
X211183497Y-116684985D01*
X211157091Y-116776500D01*
X211139930Y-116842803D01*
X211128730Y-116901485D01*
X211128472Y-116903500D01*
X211119244Y-116957745D01*
X211111538Y-116988166D01*
X211074794Y-117106898D01*
X211050672Y-117201882D01*
X211040749Y-117252750D01*
X211028491Y-117311726D01*
X211016247Y-117352949D01*
X211013571Y-117358583D01*
X211000589Y-117396153D01*
X211000143Y-117400916D01*
X210994434Y-117436012D01*
X210981218Y-117496704D01*
X210964182Y-117567763D01*
X210947012Y-117633957D01*
X210933395Y-117680058D01*
X210930975Y-117686666D01*
X210916389Y-117733421D01*
X210905188Y-117798227D01*
X210901326Y-117828913D01*
X210888650Y-117861306D01*
X210852961Y-117880094D01*
X210807511Y-117889142D01*
X210732770Y-117893440D01*
X210644533Y-117889170D01*
X210605593Y-117884280D01*
X210491917Y-117866185D01*
X210486565Y-114211323D01*
X210486373Y-114080201D01*
X211246690Y-114080201D01*
X211246962Y-114238749D01*
X211247817Y-114375781D01*
X211249219Y-114486457D01*
X211251135Y-114565935D01*
X211253531Y-114609376D01*
X211254339Y-114614659D01*
X211266537Y-114664736D01*
X211683560Y-114654349D01*
X211865774Y-114648260D01*
X212006696Y-114640061D01*
X212107320Y-114629673D01*
X212168640Y-114617016D01*
X212174667Y-114614856D01*
X212225613Y-114593263D01*
X212256829Y-114577108D01*
X212259333Y-114575132D01*
X212283927Y-114558844D01*
X212328693Y-114534182D01*
X212330280Y-114533361D01*
X212431933Y-114459864D01*
X212527666Y-114349584D01*
X212613260Y-114208036D01*
X212662648Y-114098916D01*
X212685919Y-114013170D01*
X212701250Y-113899777D01*
X212707679Y-113772843D01*
X212704238Y-113646476D01*
X212697916Y-113583276D01*
X212685500Y-113504093D01*
X212672360Y-113444107D01*
X212660789Y-113413161D01*
X212657752Y-113411000D01*
X212643637Y-113393222D01*
X212640333Y-113368246D01*
X212624835Y-113310573D01*
X212588803Y-113247378D01*
X212916611Y-113247378D01*
X212917200Y-113391551D01*
X212918870Y-113548024D01*
X212919117Y-113565424D01*
X212922046Y-113745290D01*
X212925230Y-113887873D01*
X212929006Y-113998220D01*
X212933714Y-114081382D01*
X212939693Y-114142407D01*
X212947280Y-114186345D01*
X212956815Y-114218245D01*
X212963988Y-114234460D01*
X212987801Y-114288968D01*
X212999816Y-114330347D01*
X213000167Y-114335002D01*
X213012715Y-114361016D01*
X213021333Y-114363500D01*
X213040521Y-114380459D01*
X213042500Y-114392786D01*
X213060644Y-114433968D01*
X213109544Y-114485256D01*
X213180897Y-114540427D01*
X213266403Y-114593256D01*
X213357761Y-114637518D01*
X213381167Y-114646749D01*
X213426388Y-114654324D01*
X213501506Y-114657448D01*
X213595740Y-114656666D01*
X213698312Y-114652522D01*
X213798442Y-114645559D01*
X213885351Y-114636321D01*
X213948258Y-114625352D01*
X213972239Y-114616935D01*
X214093142Y-114531819D01*
X214186341Y-114441876D01*
X214243708Y-114356271D01*
X214275615Y-114286171D01*
X214300769Y-114222890D01*
X214319718Y-114160959D01*
X214612410Y-114160959D01*
X214613010Y-114311859D01*
X214614604Y-114430087D01*
X214617268Y-114518862D01*
X214621077Y-114581400D01*
X214626108Y-114620922D01*
X214632438Y-114640644D01*
X214635053Y-114643521D01*
X214666618Y-114650186D01*
X214733001Y-114654370D01*
X214826772Y-114656282D01*
X214940501Y-114656130D01*
X215066758Y-114654122D01*
X215198114Y-114650467D01*
X215327138Y-114645374D01*
X215446400Y-114639052D01*
X215548471Y-114631708D01*
X215625920Y-114623552D01*
X215671319Y-114614791D01*
X215672458Y-114614397D01*
X215722557Y-114592847D01*
X215750039Y-114574007D01*
X215751833Y-114569987D01*
X215768757Y-114555280D01*
X215779623Y-114554000D01*
X215814004Y-114537423D01*
X215861464Y-114493788D01*
X215913140Y-114432242D01*
X215950943Y-114377248D01*
X215974691Y-114312829D01*
X215988184Y-114222330D01*
X215990022Y-114160710D01*
X216242240Y-114160710D01*
X216242835Y-114311483D01*
X216244422Y-114429581D01*
X216247076Y-114518222D01*
X216250873Y-114580622D01*
X216255891Y-114619998D01*
X216262205Y-114639568D01*
X216264887Y-114642435D01*
X216292539Y-114646866D01*
X216356597Y-114650477D01*
X216451139Y-114653144D01*
X216570245Y-114654744D01*
X216707992Y-114655154D01*
X216841917Y-114654415D01*
X217392250Y-114649250D01*
X217398358Y-114464545D01*
X217404467Y-114279840D01*
X217042083Y-114274045D01*
X216679700Y-114268250D01*
X216681669Y-113747136D01*
X217656833Y-113747136D01*
X217657102Y-113974877D01*
X217657969Y-114163384D01*
X217659526Y-114315751D01*
X217661863Y-114435072D01*
X217665073Y-114524445D01*
X217669245Y-114586963D01*
X217674471Y-114625722D01*
X217680842Y-114643817D01*
X217683292Y-114645815D01*
X217722180Y-114652758D01*
X217787725Y-114656621D01*
X217866636Y-114657533D01*
X217945620Y-114655621D01*
X218011386Y-114651014D01*
X218050644Y-114643840D01*
X218053946Y-114642237D01*
X218060759Y-114629244D01*
X218066247Y-114597639D01*
X218070487Y-114544207D01*
X218073556Y-114465731D01*
X218075529Y-114358993D01*
X218076483Y-114220777D01*
X218076494Y-114047865D01*
X218075637Y-113837041D01*
X218075113Y-113748270D01*
X218075107Y-113747251D01*
X218376500Y-113747251D01*
X218376769Y-113974977D01*
X218377636Y-114163468D01*
X218379193Y-114315819D01*
X218381531Y-114435127D01*
X218384740Y-114524485D01*
X218388913Y-114586991D01*
X218394140Y-114625738D01*
X218400513Y-114643822D01*
X218402958Y-114645815D01*
X218442178Y-114652843D01*
X218508017Y-114656698D01*
X218587161Y-114657525D01*
X218666296Y-114655469D01*
X218732110Y-114650676D01*
X218771288Y-114643291D01*
X218774396Y-114641753D01*
X218783021Y-114627653D01*
X218789472Y-114594943D01*
X218793905Y-114539429D01*
X218796475Y-114456919D01*
X218797338Y-114343217D01*
X218796652Y-114194130D01*
X218795443Y-114075869D01*
X218793027Y-113926038D01*
X218789565Y-113788934D01*
X218785310Y-113670638D01*
X218780518Y-113577227D01*
X218775440Y-113514781D01*
X218770990Y-113490375D01*
X218764865Y-113459054D01*
X218776402Y-113453333D01*
X218798427Y-113469849D01*
X218799833Y-113478372D01*
X218808176Y-113505380D01*
X218833483Y-113564891D01*
X218876170Y-113657783D01*
X218936652Y-113784931D01*
X219015346Y-113947213D01*
X219112668Y-114145504D01*
X219210009Y-114342333D01*
X219362209Y-114649250D01*
X219596462Y-114655205D01*
X219707013Y-114656672D01*
X219782133Y-114654026D01*
X219828579Y-114646650D01*
X219853108Y-114633927D01*
X219855264Y-114631581D01*
X219861803Y-114610614D01*
X219867010Y-114563458D01*
X219870938Y-114487610D01*
X219873639Y-114380570D01*
X219875167Y-114239838D01*
X219875574Y-114062915D01*
X219874914Y-113847298D01*
X219874463Y-113768331D01*
X220556667Y-113768331D01*
X220557020Y-113995626D01*
X220558137Y-114183382D01*
X220560097Y-114334387D01*
X220562983Y-114451428D01*
X220566877Y-114537295D01*
X220571860Y-114594775D01*
X220578014Y-114626656D01*
X220582067Y-114634433D01*
X220614277Y-114646222D01*
X220675543Y-114654711D01*
X220752683Y-114659446D01*
X220832517Y-114659972D01*
X220901861Y-114655836D01*
X220946519Y-114646985D01*
X220956679Y-114638832D01*
X220964608Y-114619971D01*
X220970584Y-114585713D01*
X220974888Y-114531364D01*
X220977798Y-114452235D01*
X220979595Y-114343635D01*
X220980558Y-114200872D01*
X220980899Y-114070193D01*
X220981797Y-113506250D01*
X221030683Y-113643833D01*
X221062630Y-113734661D01*
X221094950Y-113827991D01*
X221115118Y-113887250D01*
X221139491Y-113955305D01*
X221162025Y-114010906D01*
X221171167Y-114029837D01*
X221188751Y-114077126D01*
X221191667Y-114098916D01*
X221201086Y-114145185D01*
X221210556Y-114167995D01*
X221232549Y-114215375D01*
X221252435Y-114262958D01*
X221266476Y-114292732D01*
X221286190Y-114310106D01*
X221321909Y-114318415D01*
X221383962Y-114320988D01*
X221432898Y-114321166D01*
X221535083Y-114319140D01*
X221601783Y-114311774D01*
X221639709Y-114297140D01*
X221655574Y-114273308D01*
X221657333Y-114256651D01*
X221667593Y-114217078D01*
X221678500Y-114204750D01*
X221695408Y-114175316D01*
X221699667Y-114144234D01*
X221706809Y-114097533D01*
X221716920Y-114076691D01*
X221730534Y-114048705D01*
X221752723Y-113990341D01*
X221779752Y-113911729D01*
X221794522Y-113866083D01*
X221822638Y-113780925D01*
X221847924Y-113710736D01*
X221866629Y-113665649D01*
X221872519Y-113655475D01*
X221887936Y-113618292D01*
X221890167Y-113597266D01*
X221899265Y-113565230D01*
X221909927Y-113559166D01*
X221928790Y-113541229D01*
X221938820Y-113511541D01*
X221942296Y-113498122D01*
X221939928Y-113522248D01*
X221937852Y-113538000D01*
X221934569Y-113580067D01*
X221930903Y-113657396D01*
X221927094Y-113762917D01*
X221923382Y-113889562D01*
X221920008Y-114030263D01*
X221918423Y-114108965D01*
X221915212Y-114275849D01*
X221913824Y-114405175D01*
X221916079Y-114501717D01*
X221923799Y-114570250D01*
X221938802Y-114615548D01*
X221962911Y-114642387D01*
X221997944Y-114655541D01*
X222045722Y-114659785D01*
X222108065Y-114659893D01*
X222128437Y-114659833D01*
X222184210Y-114660904D01*
X222230101Y-114661629D01*
X222267067Y-114658272D01*
X222296062Y-114647102D01*
X222318045Y-114624383D01*
X222325919Y-114605590D01*
X222571644Y-114605590D01*
X222580467Y-114644468D01*
X222581611Y-114645722D01*
X222608093Y-114652365D01*
X222665664Y-114657326D01*
X222743087Y-114659733D01*
X222763129Y-114659833D01*
X222849822Y-114658449D01*
X222905484Y-114652554D01*
X222941378Y-114639528D01*
X222968765Y-114616754D01*
X222974251Y-114610755D01*
X223011869Y-114555033D01*
X223041280Y-114489545D01*
X223041441Y-114489047D01*
X223064917Y-114416416D01*
X223409337Y-114410598D01*
X223538019Y-114408780D01*
X223630580Y-114408723D01*
X223693215Y-114410979D01*
X223732120Y-114416100D01*
X223753488Y-114424639D01*
X223763515Y-114437148D01*
X223765424Y-114442348D01*
X223785985Y-114494680D01*
X223796712Y-114516671D01*
X223813403Y-114559554D01*
X223816333Y-114577837D01*
X223833623Y-114616349D01*
X223886748Y-114642262D01*
X223977597Y-114656201D01*
X224062450Y-114659160D01*
X224164099Y-114657099D01*
X224228698Y-114646828D01*
X224261384Y-114623638D01*
X224267295Y-114582824D01*
X224251568Y-114519681D01*
X224242794Y-114493961D01*
X224218936Y-114430624D01*
X224198788Y-114384739D01*
X224190212Y-114370490D01*
X224178177Y-114339452D01*
X224176167Y-114317351D01*
X224166506Y-114264169D01*
X224157469Y-114241504D01*
X224133328Y-114190272D01*
X224125105Y-114170276D01*
X224476424Y-114170276D01*
X224477552Y-114329069D01*
X224479868Y-114452078D01*
X224483418Y-114541484D01*
X224488245Y-114599463D01*
X224494396Y-114628197D01*
X224496018Y-114630917D01*
X224527481Y-114644384D01*
X224588191Y-114654252D01*
X224665171Y-114659952D01*
X224745443Y-114660914D01*
X224816031Y-114656568D01*
X224862352Y-114646985D01*
X224874972Y-114636851D01*
X224884034Y-114613656D01*
X224890094Y-114571418D01*
X224893709Y-114504155D01*
X224895435Y-114405886D01*
X224895833Y-114287152D01*
X224895833Y-113940166D01*
X224982333Y-113940166D01*
X225031455Y-113943697D01*
X225072362Y-113958819D01*
X225116937Y-113992330D01*
X225177065Y-114051024D01*
X225178163Y-114052149D01*
X225265458Y-114158552D01*
X225352610Y-114296701D01*
X225391363Y-114369271D01*
X225447823Y-114479538D01*
X225492077Y-114557644D01*
X225531164Y-114609135D01*
X225572124Y-114639555D01*
X225621996Y-114654450D01*
X225687821Y-114659363D01*
X225760258Y-114659833D01*
X225852268Y-114657209D01*
X225923630Y-114650056D01*
X225964726Y-114639452D01*
X225969131Y-114636401D01*
X225974422Y-114613015D01*
X225961655Y-114567136D01*
X225929105Y-114493951D01*
X225891296Y-114419443D01*
X225806988Y-114258963D01*
X225738879Y-114131583D01*
X225683887Y-114032715D01*
X225638933Y-113957770D01*
X225600935Y-113902161D01*
X225566812Y-113861299D01*
X225533483Y-113830596D01*
X225497868Y-113805464D01*
X225466435Y-113786729D01*
X225416476Y-113755558D01*
X225386582Y-113731805D01*
X225382830Y-113725776D01*
X225400111Y-113709497D01*
X225441405Y-113688271D01*
X226185687Y-113688271D01*
X226185988Y-113855673D01*
X226187161Y-114020139D01*
X226189194Y-114176108D01*
X226192076Y-114318015D01*
X226195796Y-114440298D01*
X226200342Y-114537392D01*
X226205703Y-114603735D01*
X226211869Y-114633763D01*
X226212400Y-114634433D01*
X226241783Y-114643072D01*
X226306585Y-114650091D01*
X226400157Y-114655513D01*
X226515853Y-114659361D01*
X226647024Y-114661659D01*
X226787023Y-114662430D01*
X226929202Y-114661698D01*
X227066912Y-114659486D01*
X227193507Y-114655818D01*
X227302338Y-114650717D01*
X227386758Y-114644207D01*
X227440119Y-114636311D01*
X227455375Y-114630041D01*
X227468749Y-114590113D01*
X227474667Y-114516034D01*
X227473842Y-114444832D01*
X227467583Y-114289416D01*
X227054833Y-114278833D01*
X226928307Y-114274811D01*
X226818009Y-114269816D01*
X226730244Y-114264258D01*
X226671320Y-114258545D01*
X226647543Y-114253087D01*
X226647375Y-114252375D01*
X226650011Y-114224634D01*
X226651907Y-114166855D01*
X226651969Y-114160664D01*
X227714573Y-114160664D01*
X227715167Y-114311415D01*
X227716752Y-114429489D01*
X227719404Y-114518105D01*
X227723200Y-114580480D01*
X227728215Y-114619830D01*
X227734526Y-114639373D01*
X227737220Y-114642237D01*
X227771732Y-114650797D01*
X227834869Y-114656477D01*
X227913008Y-114659099D01*
X227992527Y-114658486D01*
X228059805Y-114654460D01*
X228100852Y-114646985D01*
X228114225Y-114636160D01*
X228123576Y-114611414D01*
X228129576Y-114566373D01*
X228132899Y-114494664D01*
X228134216Y-114389913D01*
X228134333Y-114329485D01*
X228134333Y-114024833D01*
X228205258Y-114024833D01*
X228324731Y-114042514D01*
X228432640Y-114091519D01*
X228477730Y-114126385D01*
X228509267Y-114164930D01*
X228549366Y-114226204D01*
X228591425Y-114298365D01*
X228628841Y-114369576D01*
X228655013Y-114427998D01*
X228663500Y-114459509D01*
X228673313Y-114493216D01*
X228696941Y-114545369D01*
X228725664Y-114598918D01*
X228750765Y-114636810D01*
X228757647Y-114643634D01*
X228787818Y-114650716D01*
X228849085Y-114656192D01*
X228930218Y-114659196D01*
X228963698Y-114659509D01*
X229058811Y-114658226D01*
X229122554Y-114650159D01*
X229157399Y-114629568D01*
X229165819Y-114590712D01*
X229150285Y-114527852D01*
X229113270Y-114435249D01*
X229086637Y-114374083D01*
X229021018Y-114228922D01*
X228966286Y-114118156D01*
X228919307Y-114036239D01*
X228876948Y-113977620D01*
X228842908Y-113942559D01*
X228769185Y-113877830D01*
X228830635Y-113846053D01*
X228882951Y-113809432D01*
X228940057Y-113755268D01*
X228992389Y-113694612D01*
X229030386Y-113638513D01*
X229044500Y-113598939D01*
X229055165Y-113560018D01*
X229065667Y-113548583D01*
X229079357Y-113519332D01*
X229085683Y-113462503D01*
X229084793Y-113392181D01*
X229076840Y-113322447D01*
X229062692Y-113269120D01*
X229023447Y-113176102D01*
X228992433Y-113112773D01*
X228963629Y-113068958D01*
X228931018Y-113034485D01*
X228916315Y-113021667D01*
X228859272Y-112977137D01*
X228802491Y-112942454D01*
X228739723Y-112916396D01*
X228664719Y-112897738D01*
X228571230Y-112885259D01*
X228453008Y-112877736D01*
X228303805Y-112873945D01*
X228155500Y-112872769D01*
X227721583Y-112871250D01*
X227716053Y-113748270D01*
X227714894Y-113974022D01*
X227714573Y-114160664D01*
X226651969Y-114160664D01*
X226652665Y-114091333D01*
X226652667Y-114088333D01*
X226652667Y-113940166D01*
X226934183Y-113940166D01*
X227071664Y-113938267D01*
X227168250Y-113932498D01*
X227225215Y-113922756D01*
X227241100Y-113914766D01*
X227254895Y-113879242D01*
X227263738Y-113810196D01*
X227266500Y-113726531D01*
X227264644Y-113639501D01*
X227258021Y-113586361D01*
X227245043Y-113558789D01*
X227233019Y-113550847D01*
X227200091Y-113546032D01*
X227133940Y-113542031D01*
X227043677Y-113539218D01*
X226938409Y-113537973D01*
X226920810Y-113537944D01*
X226642083Y-113537888D01*
X226642083Y-113262806D01*
X227002975Y-113262819D01*
X227145196Y-113262112D01*
X227250540Y-113259181D01*
X227324451Y-113252834D01*
X227372374Y-113241879D01*
X227399752Y-113225122D01*
X227412029Y-113201372D01*
X227414667Y-113172618D01*
X227421059Y-113130171D01*
X227437334Y-113066197D01*
X227448774Y-113028927D01*
X227464485Y-112981773D01*
X227474664Y-112944346D01*
X227475287Y-112915526D01*
X227462332Y-112894193D01*
X227431774Y-112879225D01*
X227379591Y-112869503D01*
X227301760Y-112863906D01*
X227194256Y-112861314D01*
X227053057Y-112860605D01*
X226874140Y-112860661D01*
X226844576Y-112860666D01*
X226667125Y-112860789D01*
X226527312Y-112861360D01*
X226420441Y-112862682D01*
X226341815Y-112865056D01*
X226286739Y-112868786D01*
X226250517Y-112874173D01*
X226228454Y-112881520D01*
X226215853Y-112891130D01*
X226208911Y-112901608D01*
X226202800Y-112933779D01*
X226197639Y-113001959D01*
X226193416Y-113100584D01*
X226190121Y-113224091D01*
X226187742Y-113366917D01*
X226186267Y-113523498D01*
X226185687Y-113688271D01*
X225441405Y-113688271D01*
X225442394Y-113687763D01*
X225447017Y-113685814D01*
X225499684Y-113653383D01*
X225558223Y-113602313D01*
X225581370Y-113577376D01*
X225618169Y-113526675D01*
X225664252Y-113451810D01*
X225715791Y-113360409D01*
X225768955Y-113260098D01*
X225819916Y-113158506D01*
X225864843Y-113063262D01*
X225899907Y-112981992D01*
X225921278Y-112922325D01*
X225925307Y-112892317D01*
X225912561Y-112876772D01*
X225883724Y-112867550D01*
X225830991Y-112863675D01*
X225746554Y-112864170D01*
X225708359Y-112865187D01*
X225504149Y-112871250D01*
X225416949Y-113040583D01*
X225377144Y-113116839D01*
X225344300Y-113177832D01*
X225323390Y-113214410D01*
X225319167Y-113220500D01*
X225303817Y-113244369D01*
X225277739Y-113291872D01*
X225266250Y-113314025D01*
X225200067Y-113407823D01*
X225112472Y-113481351D01*
X225015476Y-113525356D01*
X224983550Y-113531808D01*
X224896936Y-113543426D01*
X224885250Y-112871250D01*
X224483083Y-112871250D01*
X224477552Y-113736625D01*
X224476439Y-113973521D01*
X224476424Y-114170276D01*
X224125105Y-114170276D01*
X224106100Y-114124068D01*
X224072204Y-114033809D01*
X224038583Y-113940166D01*
X224003366Y-113841477D01*
X223977367Y-113770507D01*
X223955942Y-113714975D01*
X223934446Y-113662601D01*
X223926510Y-113643833D01*
X223907786Y-113593542D01*
X223884158Y-113521972D01*
X223869632Y-113474500D01*
X223847088Y-113403474D01*
X223825834Y-113345124D01*
X223815204Y-113321328D01*
X223797978Y-113273866D01*
X223795167Y-113252250D01*
X223785668Y-113206063D01*
X223776063Y-113183171D01*
X223759015Y-113140619D01*
X223738803Y-113077219D01*
X223731525Y-113051166D01*
X223710797Y-112972357D01*
X223692939Y-112918679D01*
X223670010Y-112885529D01*
X223634074Y-112868305D01*
X223577191Y-112862404D01*
X223491421Y-112863222D01*
X223410963Y-112865305D01*
X223153447Y-112871250D01*
X223122386Y-112966500D01*
X223099676Y-113032003D01*
X223079006Y-113084971D01*
X223072829Y-113098504D01*
X223056827Y-113151758D01*
X223054333Y-113178166D01*
X223044522Y-113233643D01*
X223034698Y-113257828D01*
X223019491Y-113293968D01*
X222995797Y-113358799D01*
X222967826Y-113440627D01*
X222956707Y-113474500D01*
X222928744Y-113557187D01*
X222903751Y-113624823D01*
X222885686Y-113666936D01*
X222881092Y-113674524D01*
X222867263Y-113710277D01*
X222863833Y-113743316D01*
X222857956Y-113781127D01*
X222847958Y-113792180D01*
X222834128Y-113810866D01*
X222813406Y-113859567D01*
X222791333Y-113924472D01*
X222767880Y-113998020D01*
X222747376Y-114058019D01*
X222735594Y-114088333D01*
X222681433Y-114211772D01*
X222636046Y-114332136D01*
X222601345Y-114442506D01*
X222579240Y-114535963D01*
X222571644Y-114605590D01*
X222325919Y-114605590D01*
X222333969Y-114586381D01*
X222344793Y-114529364D01*
X222351471Y-114449596D01*
X222354960Y-114343344D01*
X222356217Y-114206874D01*
X222356197Y-114036453D01*
X222355856Y-113828346D01*
X222355833Y-113771819D01*
X222355520Y-113585835D01*
X222354625Y-113412375D01*
X222353220Y-113256167D01*
X222351371Y-113121939D01*
X222349150Y-113014418D01*
X222346624Y-112938331D01*
X222343864Y-112898407D01*
X222342985Y-112894147D01*
X222331484Y-112880080D01*
X222305212Y-112870490D01*
X222257436Y-112864586D01*
X222181428Y-112861577D01*
X222070455Y-112860672D01*
X222058228Y-112860666D01*
X221786319Y-112860666D01*
X221755573Y-112929458D01*
X221730053Y-112991598D01*
X221700936Y-113069495D01*
X221688841Y-113104083D01*
X221645579Y-113225746D01*
X221609352Y-113314721D01*
X221591364Y-113352504D01*
X221575188Y-113400463D01*
X221572667Y-113421583D01*
X221563128Y-113467728D01*
X221553453Y-113490662D01*
X221534723Y-113536060D01*
X221512200Y-113603393D01*
X221490381Y-113677377D01*
X221473764Y-113742725D01*
X221466845Y-113784153D01*
X221466833Y-113785096D01*
X221455920Y-113805069D01*
X221445667Y-113802583D01*
X221427521Y-113772556D01*
X221424500Y-113750848D01*
X221416882Y-113698021D01*
X221396796Y-113619362D01*
X221368397Y-113527971D01*
X221335839Y-113436952D01*
X221303275Y-113359405D01*
X221295030Y-113342495D01*
X221278855Y-113294536D01*
X221276333Y-113273416D01*
X221266539Y-113227545D01*
X221256407Y-113204337D01*
X221240060Y-113164861D01*
X221218079Y-113100147D01*
X221200017Y-113040583D01*
X221177553Y-112969123D01*
X221156248Y-112912530D01*
X221143268Y-112887125D01*
X221117581Y-112874803D01*
X221060235Y-112866511D01*
X220967574Y-112861916D01*
X220852673Y-112860666D01*
X220738508Y-112861425D01*
X220659909Y-112864233D01*
X220610125Y-112869889D01*
X220582408Y-112879190D01*
X220570007Y-112892936D01*
X220569514Y-112894147D01*
X220566691Y-112922102D01*
X220564082Y-112987652D01*
X220561757Y-113086058D01*
X220559786Y-113212582D01*
X220558239Y-113362486D01*
X220557185Y-113531031D01*
X220556694Y-113713480D01*
X220556667Y-113768331D01*
X219874463Y-113768331D01*
X219874281Y-113736625D01*
X219868750Y-112871250D01*
X219681448Y-112865103D01*
X219573396Y-112864735D01*
X219499151Y-112871499D01*
X219464490Y-112883570D01*
X219454567Y-112899511D01*
X219447016Y-112931941D01*
X219441555Y-112985657D01*
X219437903Y-113065458D01*
X219435778Y-113176143D01*
X219434899Y-113322509D01*
X219434833Y-113389266D01*
X219435899Y-113555751D01*
X219438966Y-113698479D01*
X219443835Y-113812772D01*
X219450311Y-113893951D01*
X219457914Y-113936558D01*
X219472504Y-113991783D01*
X219472719Y-114023953D01*
X219460929Y-114027031D01*
X219439508Y-113994986D01*
X219436997Y-113989766D01*
X219408955Y-113931539D01*
X219386726Y-113887250D01*
X219361166Y-113837922D01*
X219348396Y-113813166D01*
X219334744Y-113785433D01*
X219305644Y-113725522D01*
X219263985Y-113639410D01*
X219212659Y-113533077D01*
X219154554Y-113412498D01*
X219128361Y-113358083D01*
X219068204Y-113233229D01*
X219013535Y-113120068D01*
X218967253Y-113024577D01*
X218932259Y-112952737D01*
X218911453Y-112910524D01*
X218907605Y-112903000D01*
X218891040Y-112888754D01*
X218854861Y-112878610D01*
X218792619Y-112871679D01*
X218697864Y-112867076D01*
X218633528Y-112865306D01*
X218376500Y-112859363D01*
X218376500Y-113747251D01*
X218075107Y-113747251D01*
X218069583Y-112871250D01*
X217863208Y-112865191D01*
X217656833Y-112859133D01*
X217656833Y-113747136D01*
X216681669Y-113747136D01*
X216682221Y-113601330D01*
X216682577Y-113404572D01*
X216681911Y-113246314D01*
X216680089Y-113122735D01*
X216676973Y-113030011D01*
X216672427Y-112964319D01*
X216666315Y-112921836D01*
X216658501Y-112898739D01*
X216657125Y-112896643D01*
X216637882Y-112878433D01*
X216606866Y-112867823D01*
X216554890Y-112863481D01*
X216472767Y-112864073D01*
X216439379Y-112865062D01*
X216249250Y-112871250D01*
X216243720Y-113748270D01*
X216242561Y-113974044D01*
X216242240Y-114160710D01*
X215990022Y-114160710D01*
X215991214Y-114120792D01*
X215983575Y-114023261D01*
X215965058Y-113944777D01*
X215957153Y-113926812D01*
X215917978Y-113869402D01*
X215865239Y-113813743D01*
X215810688Y-113770437D01*
X215766074Y-113750084D01*
X215760792Y-113749666D01*
X215733620Y-113741269D01*
X215743867Y-113717548D01*
X215790417Y-113680707D01*
X215798276Y-113675583D01*
X215877227Y-113601225D01*
X215924960Y-113499121D01*
X215941833Y-113368480D01*
X215941868Y-113358413D01*
X215929136Y-113237922D01*
X215894739Y-113129819D01*
X215843036Y-113046324D01*
X215823614Y-113026856D01*
X215759991Y-112980441D01*
X215686044Y-112939304D01*
X215617113Y-112911102D01*
X215575506Y-112903000D01*
X215527870Y-112894118D01*
X215505850Y-112881383D01*
X215476343Y-112873668D01*
X215407263Y-112868225D01*
X215301313Y-112865147D01*
X215161197Y-112864529D01*
X215051825Y-112865508D01*
X214619417Y-112871250D01*
X214613887Y-113748270D01*
X214612728Y-113974168D01*
X214612410Y-114160959D01*
X214319718Y-114160959D01*
X214319969Y-114160139D01*
X214334012Y-114091632D01*
X214343698Y-114011080D01*
X214349824Y-113912195D01*
X214353189Y-113788690D01*
X214354590Y-113634278D01*
X214354833Y-113480880D01*
X214354463Y-113304048D01*
X214353207Y-113165121D01*
X214350845Y-113059676D01*
X214347158Y-112983289D01*
X214341926Y-112931538D01*
X214334929Y-112899998D01*
X214325948Y-112884248D01*
X214325176Y-112883570D01*
X214285393Y-112870618D01*
X214207974Y-112864473D01*
X214108218Y-112865103D01*
X213920917Y-112871250D01*
X213910333Y-113474500D01*
X213906669Y-113664181D01*
X213902481Y-113816345D01*
X213896918Y-113935809D01*
X213889131Y-114027389D01*
X213878271Y-114095899D01*
X213863487Y-114146157D01*
X213843931Y-114182977D01*
X213818752Y-114211175D01*
X213787101Y-114235567D01*
X213774576Y-114243940D01*
X213730006Y-114261967D01*
X213668626Y-114273861D01*
X213603372Y-114278957D01*
X213547177Y-114276588D01*
X213512977Y-114266086D01*
X213508167Y-114257666D01*
X213491278Y-114238331D01*
X213479744Y-114236500D01*
X213454167Y-114219121D01*
X213421531Y-114175017D01*
X213405585Y-114146541D01*
X213392088Y-114117926D01*
X213381465Y-114087775D01*
X213373316Y-114050723D01*
X213367239Y-114001403D01*
X213362835Y-113934449D01*
X213359703Y-113844496D01*
X213357442Y-113726177D01*
X213355652Y-113574126D01*
X213354633Y-113463916D01*
X213349417Y-112871250D01*
X213143635Y-112865199D01*
X213049111Y-112862772D01*
X212988546Y-112863447D01*
X212953583Y-112869073D01*
X212935866Y-112881500D01*
X212927039Y-112902578D01*
X212924140Y-112913789D01*
X212920868Y-112948711D01*
X212918491Y-113019953D01*
X212917057Y-113121510D01*
X212916611Y-113247378D01*
X212588803Y-113247378D01*
X212583472Y-113238030D01*
X212523941Y-113158998D01*
X212453940Y-113081862D01*
X212381164Y-113015004D01*
X212313313Y-112966809D01*
X212258081Y-112945659D01*
X212252044Y-112945333D01*
X212221823Y-112934849D01*
X212217000Y-112924166D01*
X212198709Y-112908909D01*
X212157733Y-112903000D01*
X212106430Y-112895782D01*
X212076819Y-112881352D01*
X212047078Y-112873417D01*
X211978089Y-112867907D01*
X211872875Y-112864936D01*
X211734457Y-112864618D01*
X211654544Y-112865477D01*
X211253917Y-112871250D01*
X211248029Y-113717916D01*
X211247034Y-113904976D01*
X211246690Y-114080201D01*
X210486373Y-114080201D01*
X210481213Y-110556460D01*
X210528898Y-110549688D01*
X210562215Y-110536931D01*
X210573564Y-110503090D01*
X210573462Y-110474125D01*
X210575824Y-110426378D01*
X210594528Y-110407741D01*
X210619709Y-110405333D01*
X210686415Y-110396503D01*
X210742401Y-110374107D01*
X210774482Y-110344286D01*
X210777667Y-110331773D01*
X210785593Y-110314805D01*
X210814564Y-110304842D01*
X210872370Y-110300301D01*
X210936417Y-110299500D01*
X211022867Y-110301614D01*
X211073307Y-110308691D01*
X211093882Y-110321827D01*
X211095167Y-110327852D01*
X211114136Y-110358570D01*
X211162348Y-110385364D01*
X211226758Y-110402327D01*
X211266241Y-110405333D01*
X211308728Y-110408645D01*
X211317317Y-110424001D01*
X211307654Y-110446133D01*
X211295136Y-110501395D01*
X211317889Y-110542281D01*
X211356248Y-110557554D01*
X211374310Y-110562004D01*
X211387057Y-110573760D01*
X211395603Y-110599442D01*
X211401064Y-110645673D01*
X211404553Y-110719072D01*
X211407187Y-110826262D01*
X211407949Y-110864572D01*
X211413815Y-111165060D01*
X211513782Y-111171488D01*
X211613750Y-111177916D01*
X211616726Y-111350816D01*
X211619538Y-111433610D01*
X211624367Y-111500261D01*
X211630303Y-111539272D01*
X211632026Y-111543656D01*
X211634431Y-111572287D01*
X211631357Y-111576587D01*
X211626335Y-111601502D01*
X211621846Y-111660393D01*
X211618333Y-111744905D01*
X211616240Y-111846680D01*
X211616058Y-111865059D01*
X211616104Y-111984699D01*
X211618921Y-112067648D01*
X211625014Y-112119489D01*
X211634887Y-112145803D01*
X211641939Y-112151353D01*
X211677915Y-112157413D01*
X211739939Y-112161337D01*
X211786796Y-112162166D01*
X211855808Y-112159844D01*
X211893585Y-112150456D01*
X211911088Y-112130371D01*
X211914533Y-112119833D01*
X211935795Y-112085434D01*
X211954885Y-112077500D01*
X211972975Y-112064254D01*
X211982165Y-112020328D01*
X211984167Y-111960338D01*
X211992354Y-111865682D01*
X212015075Y-111796504D01*
X212019001Y-111790013D01*
X212040529Y-111733907D01*
X212058504Y-111637758D01*
X212071993Y-111510299D01*
X212081740Y-111389235D01*
X212093224Y-111247428D01*
X212104705Y-111106327D01*
X212110966Y-111029750D01*
X212121623Y-110895746D01*
X212133168Y-110744226D01*
X212143848Y-110598445D01*
X212148853Y-110527179D01*
X212161646Y-110396491D01*
X212178351Y-110305439D01*
X212197442Y-110254390D01*
X212217389Y-110243712D01*
X212236668Y-110273773D01*
X212253751Y-110344940D01*
X212267110Y-110457582D01*
X212270065Y-110497976D01*
X212288424Y-110777749D01*
X212304749Y-111016769D01*
X212319165Y-111216561D01*
X212331796Y-111378651D01*
X212342767Y-111504563D01*
X212352204Y-111595823D01*
X212360231Y-111653957D01*
X212366891Y-111680337D01*
X212383749Y-111733662D01*
X212386333Y-111759712D01*
X212395144Y-111794263D01*
X212407500Y-111802333D01*
X212418561Y-111821772D01*
X212426134Y-111873268D01*
X212428667Y-111939916D01*
X212430986Y-112018028D01*
X212439017Y-112061297D01*
X212454365Y-112077015D01*
X212458990Y-112077500D01*
X212488973Y-112095158D01*
X212503082Y-112120878D01*
X212516995Y-112146427D01*
X212545212Y-112158034D01*
X212599542Y-112159251D01*
X212626216Y-112157920D01*
X212735583Y-112151583D01*
X212741526Y-111892291D01*
X212747469Y-111633000D01*
X212935712Y-111633000D01*
X212947250Y-110860416D01*
X213116583Y-110849833D01*
X213285917Y-110839250D01*
X213292549Y-110770458D01*
X213302238Y-110722672D01*
X213326898Y-110704162D01*
X213359789Y-110701666D01*
X213410558Y-110690470D01*
X213427239Y-110667808D01*
X213450233Y-110652518D01*
X213505960Y-110641151D01*
X213585005Y-110633705D01*
X213677952Y-110630180D01*
X213775383Y-110630575D01*
X213867882Y-110634888D01*
X213946033Y-110643119D01*
X214000418Y-110655267D01*
X214020522Y-110667868D01*
X214054730Y-110694366D01*
X214090292Y-110701666D01*
X214118241Y-110704837D01*
X214134259Y-110720813D01*
X214142534Y-110759294D01*
X214147257Y-110829978D01*
X214147448Y-110833958D01*
X214153750Y-110966250D01*
X214566500Y-110978366D01*
X214566500Y-111284516D01*
X214566846Y-111404176D01*
X214568439Y-111487880D01*
X214572115Y-111542002D01*
X214578707Y-111572918D01*
X214589050Y-111587002D01*
X214603978Y-111590630D01*
X214606569Y-111590666D01*
X214646345Y-111575104D01*
X214659485Y-111557185D01*
X214663134Y-111527185D01*
X214666381Y-111461247D01*
X214669069Y-111365765D01*
X214671044Y-111247136D01*
X214672151Y-111111752D01*
X214672333Y-111028018D01*
X214672333Y-110532333D01*
X214926333Y-110532333D01*
X214926657Y-111056208D01*
X214927348Y-111234100D01*
X214929450Y-111373532D01*
X214933376Y-111478365D01*
X214939542Y-111552460D01*
X214948359Y-111599677D01*
X214960242Y-111623879D01*
X214975605Y-111628926D01*
X214987467Y-111623879D01*
X214996921Y-111598112D01*
X215003917Y-111533402D01*
X215008507Y-111428789D01*
X215010745Y-111283314D01*
X215011000Y-111200149D01*
X215011000Y-110790964D01*
X215079792Y-110780089D01*
X215137062Y-110769054D01*
X215216347Y-110751372D01*
X215286167Y-110734432D01*
X215367083Y-110714389D01*
X215439664Y-110697117D01*
X215482217Y-110687634D01*
X215528941Y-110672739D01*
X215552258Y-110656892D01*
X215582258Y-110643152D01*
X215640884Y-110638765D01*
X215715631Y-110643070D01*
X215793993Y-110655410D01*
X215857667Y-110672983D01*
X216057785Y-110732851D01*
X216258379Y-110770919D01*
X216349791Y-110780171D01*
X216492666Y-110789807D01*
X216492666Y-111105570D01*
X216493489Y-111233123D01*
X216496250Y-111323422D01*
X216501390Y-111381520D01*
X216509349Y-111412470D01*
X216520183Y-111421333D01*
X216565533Y-111402475D01*
X216592959Y-111351496D01*
X216598500Y-111304916D01*
X216604292Y-111252133D01*
X216617804Y-111219191D01*
X216630426Y-111188155D01*
X216642255Y-111129848D01*
X216648110Y-111082666D01*
X216669983Y-110894919D01*
X216696956Y-110745504D01*
X216730088Y-110630611D01*
X216770436Y-110546432D01*
X216810842Y-110496516D01*
X216851175Y-110448607D01*
X216872834Y-110403739D01*
X216873991Y-110394818D01*
X216884370Y-110342698D01*
X216894833Y-110320666D01*
X216909089Y-110307649D01*
X216915038Y-110330866D01*
X216915676Y-110354018D01*
X216936591Y-110428134D01*
X216970976Y-110470435D01*
X217027409Y-110537380D01*
X217073927Y-110617979D01*
X217102005Y-110695821D01*
X217106500Y-110731324D01*
X217113393Y-110775915D01*
X217125573Y-110795622D01*
X217137704Y-110822679D01*
X217142623Y-110873731D01*
X217142504Y-110882963D01*
X217146765Y-110937024D01*
X217160017Y-110970788D01*
X217162572Y-110972966D01*
X217173960Y-110999365D01*
X217185281Y-111057418D01*
X217194664Y-111136484D01*
X217197419Y-111171088D01*
X217206568Y-111282885D01*
X217220303Y-111358986D01*
X217245263Y-111405979D01*
X217288091Y-111430451D01*
X217355429Y-111438991D01*
X217453916Y-111438185D01*
X217466333Y-111437827D01*
X217667417Y-111431916D01*
X217673736Y-111345838D01*
X217682383Y-111287911D01*
X217704451Y-111256068D01*
X217749322Y-111234713D01*
X217807384Y-111221923D01*
X217890103Y-111213835D01*
X217986169Y-111210357D01*
X218084274Y-111211392D01*
X218173108Y-111216847D01*
X218241361Y-111226626D01*
X218275958Y-111239131D01*
X218296825Y-111265045D01*
X218308383Y-111309684D01*
X218312765Y-111383128D01*
X218313000Y-111414329D01*
X218317547Y-111507591D01*
X218330155Y-111575372D01*
X218341539Y-111600438D01*
X218370153Y-111629498D01*
X218391449Y-111626229D01*
X218406147Y-111588357D01*
X218414967Y-111513608D01*
X218418632Y-111399708D01*
X218418833Y-111356584D01*
X218418833Y-111103833D01*
X218478100Y-111103833D01*
X218528767Y-111110252D01*
X218557475Y-111123181D01*
X218590535Y-111136554D01*
X218648994Y-111145619D01*
X218719886Y-111150090D01*
X218790243Y-111149679D01*
X218847097Y-111144100D01*
X218877482Y-111133067D01*
X218879206Y-111130291D01*
X218901033Y-111115942D01*
X218957264Y-111107310D01*
X219051391Y-111103923D01*
X219074499Y-111103833D01*
X219170698Y-111105005D01*
X219232282Y-111112413D01*
X219266970Y-111131896D01*
X219282479Y-111169289D01*
X219286528Y-111230430D01*
X219286667Y-111264314D01*
X219286667Y-111357833D01*
X219388509Y-111357833D01*
X219480597Y-111371271D01*
X219546133Y-111409025D01*
X219579718Y-111467255D01*
X219583000Y-111496241D01*
X219594187Y-111538182D01*
X219614750Y-111548333D01*
X219640579Y-111530565D01*
X219646500Y-111504750D01*
X219654865Y-111475250D01*
X219668594Y-111474823D01*
X219701240Y-111474572D01*
X219721510Y-111462897D01*
X219761946Y-111453389D01*
X219808419Y-111479490D01*
X219843343Y-111521875D01*
X219875809Y-111542434D01*
X219912135Y-111548333D01*
X219951408Y-111555712D01*
X219964000Y-111569500D01*
X219981144Y-111588278D01*
X219995750Y-111590666D01*
X220023880Y-111577008D01*
X220027500Y-111565266D01*
X220034018Y-111550681D01*
X220052381Y-111564747D01*
X220065305Y-111601320D01*
X220071981Y-111679129D01*
X220072435Y-111798479D01*
X220072110Y-111814003D01*
X220070366Y-111914025D01*
X220071473Y-111979593D01*
X220076677Y-112018554D01*
X220087226Y-112038757D01*
X220104367Y-112048050D01*
X220109539Y-112049513D01*
X220146685Y-112077364D01*
X220158602Y-112106115D01*
X220167249Y-112131801D01*
X220190740Y-112146591D01*
X220239267Y-112154394D01*
X220293276Y-112157778D01*
X220369762Y-112158913D01*
X220417555Y-112151161D01*
X220449878Y-112131595D01*
X220460599Y-112120736D01*
X220497732Y-112088613D01*
X220523977Y-112077500D01*
X220562184Y-112086131D01*
X220609306Y-112106373D01*
X220648293Y-112129748D01*
X220662335Y-112146291D01*
X220678738Y-112160669D01*
X220714729Y-112159922D01*
X220751185Y-112146062D01*
X220762948Y-112135708D01*
X220769519Y-112107720D01*
X220776457Y-112043750D01*
X220783334Y-111950140D01*
X220789721Y-111833233D01*
X220795190Y-111699371D01*
X220797606Y-111622416D01*
X220802603Y-111452479D01*
X220808770Y-111254767D01*
X220815632Y-111043811D01*
X220822713Y-110834136D01*
X220829539Y-110640272D01*
X220831543Y-110585250D01*
X220838301Y-110400794D01*
X220846027Y-110188625D01*
X220854195Y-109963338D01*
X220862275Y-109739526D01*
X220869738Y-109531784D01*
X220872940Y-109442250D01*
X220882983Y-109166204D01*
X220891989Y-108930439D01*
X220900066Y-108732915D01*
X220907319Y-108571594D01*
X220913854Y-108444438D01*
X220919777Y-108349409D01*
X220925193Y-108284468D01*
X220930209Y-108247577D01*
X220934930Y-108236698D01*
X220935531Y-108237092D01*
G37*
X220935531Y-108237092D02*
X220939663Y-108260958D01*
X220944406Y-108321127D01*
X220949453Y-108411578D01*
X220954492Y-108526290D01*
X220959216Y-108659243D01*
X220961921Y-108750755D01*
X220969626Y-109021375D01*
X220978568Y-109315316D01*
X220988434Y-109623468D01*
X220998911Y-109936722D01*
X221009687Y-110245968D01*
X221020450Y-110542099D01*
X221030888Y-110816003D01*
X221040688Y-111058573D01*
X221042599Y-111103833D01*
X221048923Y-111263016D01*
X221054536Y-111424829D01*
X221059136Y-111578864D01*
X221062421Y-111714714D01*
X221064087Y-111821972D01*
X221064229Y-111848227D01*
X221065463Y-111948948D01*
X221068482Y-112036025D01*
X221072821Y-112099596D01*
X221077514Y-112128685D01*
X221107748Y-112157509D01*
X221159584Y-112156238D01*
X221225456Y-112125456D01*
X221239093Y-112116206D01*
X221303639Y-112070246D01*
X221390528Y-112116265D01*
X221445535Y-112143715D01*
X221484599Y-112160144D01*
X221493292Y-112162225D01*
X221499684Y-112142463D01*
X221504845Y-112088937D01*
X221508190Y-112010211D01*
X221509167Y-111930343D01*
X221509167Y-111698520D01*
X221641458Y-111692218D01*
X221773750Y-111685916D01*
X221780135Y-111598482D01*
X221797036Y-111521904D01*
X221841157Y-111462568D01*
X221848744Y-111455607D01*
X221910967Y-111400166D01*
X222335995Y-111400166D01*
X222495352Y-111400993D01*
X222616220Y-111403621D01*
X222702414Y-111408275D01*
X222757748Y-111415176D01*
X222786038Y-111424548D01*
X222788668Y-111426625D01*
X222827947Y-111459609D01*
X222861240Y-111484214D01*
X222882096Y-111502543D01*
X222895308Y-111528573D01*
X222902583Y-111571354D01*
X222905628Y-111639938D01*
X222906167Y-111722339D01*
X222908092Y-111827835D01*
X222915041Y-111894241D01*
X222928770Y-111924675D01*
X222951037Y-111922252D01*
X222983596Y-111890091D01*
X222993681Y-111877604D01*
X223042723Y-111837494D01*
X223115178Y-111820098D01*
X223123727Y-111819395D01*
X223180373Y-111812756D01*
X223208390Y-111795663D01*
X223221445Y-111755932D01*
X223225955Y-111728250D01*
X223234096Y-111679643D01*
X223238653Y-111670783D01*
X223241401Y-111699421D01*
X223241830Y-111708141D01*
X223256228Y-111774933D01*
X223295743Y-111811562D01*
X223366534Y-111823453D01*
X223372786Y-111823500D01*
X223450259Y-111840264D01*
X223504769Y-111885877D01*
X223528044Y-111953319D01*
X223528160Y-111955335D01*
X223542165Y-111993721D01*
X223585760Y-112009745D01*
X223588792Y-112010114D01*
X223647000Y-112016811D01*
X223647000Y-111315500D01*
X223790759Y-111315500D01*
X223868040Y-111314321D01*
X223918606Y-111306603D01*
X223958078Y-111286077D01*
X224002072Y-111246471D01*
X224028000Y-111220250D01*
X224082052Y-111167779D01*
X224123833Y-111139260D01*
X224169666Y-111127425D01*
X224235870Y-111125004D01*
X224241876Y-111125000D01*
X224362271Y-111125000D01*
X224364127Y-110744260D01*
X224365769Y-110594399D01*
X224369595Y-110480693D01*
X224376440Y-110396987D01*
X224387138Y-110337123D01*
X224402524Y-110294945D01*
X224423432Y-110264297D01*
X224430167Y-110257166D01*
X224444926Y-110232894D01*
X224469155Y-110184841D01*
X224478480Y-110165046D01*
X224511142Y-110111510D01*
X224546662Y-110077305D01*
X224556439Y-110072989D01*
X224591040Y-110048230D01*
X224626767Y-109999881D01*
X224634600Y-109985193D01*
X224658837Y-109939298D01*
X224671729Y-109928534D01*
X224678813Y-109949211D01*
X224679763Y-109955096D01*
X224698855Y-109996526D01*
X224739455Y-110049559D01*
X224767259Y-110078335D01*
X224826469Y-110144930D01*
X224879765Y-110221774D01*
X224894445Y-110248342D01*
X224910878Y-110285505D01*
X224923845Y-110327286D01*
X224933825Y-110379203D01*
X224941295Y-110446776D01*
X224946735Y-110535523D01*
X224950623Y-110650963D01*
X224953437Y-110798615D01*
X224955309Y-110950375D01*
X224957158Y-111125000D01*
X225080838Y-111125000D01*
X225150708Y-111126897D01*
X225198047Y-111137413D01*
X225239348Y-111163780D01*
X225291100Y-111213232D01*
X225298000Y-111220250D01*
X225349279Y-111270686D01*
X225388883Y-111299172D01*
X225432430Y-111311976D01*
X225495539Y-111315371D01*
X225535240Y-111315500D01*
X225679000Y-111315500D01*
X225679000Y-111664750D01*
X225679326Y-111798116D01*
X225681282Y-111894398D01*
X225686338Y-111958846D01*
X225695962Y-111996710D01*
X225711623Y-112013238D01*
X225734788Y-112013679D01*
X225766928Y-112003284D01*
X225773059Y-112000944D01*
X225794442Y-111980456D01*
X225787189Y-111963903D01*
X225785511Y-111929782D01*
X225817384Y-111881708D01*
X225870862Y-111837390D01*
X225937736Y-111823588D01*
X225945526Y-111823500D01*
X226015929Y-111811775D01*
X226052390Y-111786458D01*
X226076278Y-111760976D01*
X226092975Y-111770031D01*
X226103400Y-111786458D01*
X226143786Y-111815556D01*
X226207454Y-111823500D01*
X226261834Y-111829321D01*
X226294629Y-111843772D01*
X226297610Y-111848414D01*
X226315274Y-111863583D01*
X226338286Y-111850012D01*
X226354485Y-111817502D01*
X226356333Y-111801084D01*
X226344972Y-111767255D01*
X226329875Y-111759675D01*
X226316027Y-111753115D01*
X226326160Y-111743800D01*
X226334916Y-111720044D01*
X226341348Y-111672276D01*
X226344676Y-111615932D01*
X226344121Y-111566449D01*
X226338904Y-111539264D01*
X226336563Y-111537750D01*
X226333635Y-111518215D01*
X226331934Y-111466096D01*
X226331341Y-111391121D01*
X226331739Y-111303017D01*
X226333009Y-111211513D01*
X226335034Y-111126336D01*
X226337696Y-111057214D01*
X226340877Y-111013876D01*
X226343031Y-111004246D01*
X226342778Y-110979638D01*
X226332391Y-110962905D01*
X226321752Y-110939288D01*
X226329047Y-110934500D01*
X226343253Y-110916102D01*
X226349276Y-110871777D01*
X226349278Y-110871000D01*
X226342632Y-110826309D01*
X226326620Y-110807184D01*
X226326347Y-110807175D01*
X226320748Y-110798446D01*
X226333805Y-110787622D01*
X226353156Y-110766382D01*
X226338436Y-110737380D01*
X226336505Y-110735029D01*
X226320848Y-110708139D01*
X226333824Y-110701666D01*
X226347712Y-110688617D01*
X226342766Y-110675671D01*
X226330607Y-110634471D01*
X226328817Y-110601588D01*
X226330192Y-110556273D01*
X226331733Y-110484500D01*
X226333050Y-110405333D01*
X226335167Y-110257166D01*
X227052480Y-110257166D01*
X227058948Y-110534405D01*
X227060590Y-110637867D01*
X227060504Y-110724796D01*
X227058808Y-110787124D01*
X227055620Y-110816784D01*
X227054833Y-110818074D01*
X227051684Y-110840393D01*
X227050481Y-110897020D01*
X227051224Y-110979973D01*
X227053913Y-111081273D01*
X227054833Y-111107044D01*
X227065417Y-111389583D01*
X227255084Y-111395764D01*
X227350823Y-111400370D01*
X227416062Y-111408500D01*
X227462624Y-111422858D01*
X227502335Y-111446148D01*
X227514376Y-111455049D01*
X227584000Y-111508154D01*
X227584000Y-111825241D01*
X227584530Y-111949204D01*
X227586572Y-112037215D01*
X227590801Y-112095647D01*
X227597893Y-112130872D01*
X227608523Y-112149264D01*
X227619047Y-112155777D01*
X227660604Y-112150323D01*
X227693130Y-112121018D01*
X227708544Y-112097165D01*
X227719342Y-112065152D01*
X227726311Y-112017672D01*
X227730239Y-111947416D01*
X227731913Y-111847076D01*
X227732167Y-111758706D01*
X227732764Y-111634547D01*
X227735001Y-111546237D01*
X227739548Y-111487305D01*
X227747074Y-111451278D01*
X227758247Y-111431683D01*
X227766635Y-111425314D01*
X227787344Y-111404183D01*
X227777218Y-111391263D01*
X227761925Y-111362345D01*
X227753756Y-111308970D01*
X227753333Y-111293084D01*
X227753333Y-111209666D01*
X227965000Y-111209666D01*
X227965000Y-111290100D01*
X227958751Y-111349277D01*
X227943365Y-111391384D01*
X227939864Y-111395668D01*
X227931528Y-111414943D01*
X227957599Y-111428614D01*
X227982198Y-111434297D01*
X228028340Y-111448565D01*
X228049519Y-111465055D01*
X228049667Y-111466312D01*
X228067571Y-111480645D01*
X228111072Y-111485173D01*
X228164852Y-111480959D01*
X228213594Y-111469067D01*
X228240167Y-111453083D01*
X228283305Y-111430426D01*
X228360077Y-111421417D01*
X228369758Y-111421333D01*
X228435400Y-111417771D01*
X228466979Y-111405489D01*
X228473000Y-111389583D01*
X228484429Y-111361415D01*
X228494167Y-111357833D01*
X228506104Y-111338740D01*
X228514070Y-111289696D01*
X228515977Y-111246708D01*
X228517947Y-111184914D01*
X228523938Y-111160444D01*
X228535500Y-111168360D01*
X228538852Y-111173798D01*
X228566156Y-111197432D01*
X228593235Y-111185846D01*
X228613691Y-111145703D01*
X228621167Y-111088066D01*
X228623466Y-111040795D01*
X228633837Y-111028557D01*
X228654635Y-111041759D01*
X228691997Y-111058569D01*
X228727529Y-111044915D01*
X228752486Y-111033650D01*
X228765395Y-111046337D01*
X228771992Y-111091066D01*
X228773435Y-111109688D01*
X228780464Y-111166379D01*
X228795661Y-111192301D01*
X228826708Y-111199017D01*
X228832833Y-111199083D01*
X228862547Y-111195970D01*
X228879218Y-111179967D01*
X228887599Y-111141081D01*
X228892190Y-111074290D01*
X228892111Y-111003349D01*
X228885247Y-110948836D01*
X228876315Y-110927181D01*
X228856761Y-110887829D01*
X228854000Y-110866766D01*
X228871085Y-110839862D01*
X228910856Y-110827843D01*
X228956083Y-110831486D01*
X228989536Y-110851571D01*
X228994512Y-110860416D01*
X229022220Y-110888626D01*
X229058131Y-110885590D01*
X229079179Y-110860416D01*
X229107650Y-110836621D01*
X229155264Y-110829119D01*
X229202088Y-110837911D01*
X229227345Y-110860416D01*
X229255054Y-110888626D01*
X229290964Y-110885590D01*
X229312012Y-110860416D01*
X229342289Y-110836439D01*
X229396014Y-110828666D01*
X229446333Y-110833884D01*
X229466044Y-110853693D01*
X229467833Y-110869750D01*
X229458114Y-110910271D01*
X229446667Y-110923916D01*
X229437220Y-110949625D01*
X229429946Y-111007242D01*
X229425943Y-111086355D01*
X229425500Y-111124822D01*
X229426325Y-111215184D01*
X229430090Y-111272018D01*
X229438733Y-111304115D01*
X229454188Y-111320270D01*
X229469964Y-111326759D01*
X229515266Y-111328613D01*
X229537697Y-111317602D01*
X229574914Y-111300255D01*
X229620233Y-111294333D01*
X229652814Y-111296280D01*
X229670532Y-111308711D01*
X229677914Y-111341506D01*
X229679485Y-111404548D01*
X229679500Y-111423735D01*
X229679500Y-111553138D01*
X229743000Y-111543818D01*
X229787521Y-111541482D01*
X229804232Y-111560033D01*
X229806500Y-111594861D01*
X229814066Y-111639945D01*
X229845359Y-111661822D01*
X229870000Y-111667925D01*
X229933500Y-111680625D01*
X229933500Y-118025333D01*
X229656781Y-118025333D01*
X229543535Y-118024817D01*
X229466241Y-118022716D01*
X229418523Y-118018203D01*
X229394005Y-118010449D01*
X229386314Y-117998628D01*
X229386906Y-117990291D01*
X229411007Y-117957942D01*
X229432731Y-117949546D01*
X229471105Y-117939534D01*
X229482476Y-117933079D01*
X229485083Y-117908785D01*
X229459929Y-117885995D01*
X229424251Y-117877166D01*
X229389765Y-117861594D01*
X229383167Y-117834833D01*
X229386916Y-117813188D01*
X229404013Y-117800489D01*
X229443230Y-117794394D01*
X229513340Y-117792566D01*
X229541917Y-117792500D01*
X229625653Y-117790836D01*
X229674805Y-117784826D01*
X229697029Y-117772938D01*
X229700667Y-117760750D01*
X229692401Y-117744068D01*
X229662514Y-117734245D01*
X229603368Y-117729766D01*
X229540444Y-117729000D01*
X229459344Y-117728300D01*
X229412109Y-117724449D01*
X229390278Y-117714820D01*
X229385387Y-117696788D01*
X229386986Y-117681375D01*
X229411090Y-117638583D01*
X229441375Y-117626986D01*
X229478610Y-117610800D01*
X229489000Y-117591416D01*
X229470982Y-117566336D01*
X229441375Y-117555847D01*
X229401241Y-117536018D01*
X229385021Y-117501427D01*
X229394687Y-117467501D01*
X229427876Y-117450178D01*
X229470998Y-117434373D01*
X229483841Y-117411683D01*
X229464448Y-117393839D01*
X229437847Y-117390333D01*
X229395594Y-117376869D01*
X229380750Y-117346974D01*
X229394867Y-117316392D01*
X229429134Y-117301847D01*
X229472887Y-117284560D01*
X229480877Y-117258318D01*
X229451757Y-117234532D01*
X229437587Y-117230069D01*
X229395379Y-117206248D01*
X229382946Y-117172582D01*
X229401260Y-117143020D01*
X229430792Y-117132513D01*
X229468027Y-117115213D01*
X229478417Y-117094000D01*
X229460399Y-117066617D01*
X229430792Y-117055486D01*
X229391046Y-117034651D01*
X229383167Y-117008788D01*
X229388198Y-116987753D01*
X229409108Y-116974820D01*
X229454623Y-116967365D01*
X229533467Y-116962764D01*
X229536625Y-116962635D01*
X229619602Y-116957286D01*
X229667609Y-116948369D01*
X229687974Y-116934073D01*
X229690083Y-116924666D01*
X229680481Y-116907109D01*
X229646788Y-116895811D01*
X229581679Y-116888959D01*
X229536625Y-116886697D01*
X229456794Y-116882230D01*
X229410486Y-116875072D01*
X229388891Y-116862489D01*
X229383200Y-116841748D01*
X229383167Y-116839072D01*
X229395596Y-116806852D01*
X229437847Y-116797666D01*
X229476679Y-116787819D01*
X229482189Y-116766294D01*
X229456133Y-116745111D01*
X229429134Y-116737986D01*
X229391202Y-116718560D01*
X229384110Y-116685709D01*
X229406823Y-116653873D01*
X229436083Y-116640808D01*
X229475731Y-116623629D01*
X229489000Y-116606239D01*
X229471486Y-116583793D01*
X229436083Y-116564833D01*
X229392615Y-116534326D01*
X229382685Y-116497248D01*
X229405680Y-116466324D01*
X229441375Y-116455114D01*
X229483660Y-116443591D01*
X229499583Y-116427250D01*
X229481274Y-116409766D01*
X229441375Y-116399385D01*
X229397442Y-116381573D01*
X229381453Y-116350689D01*
X229395270Y-116320791D01*
X229429134Y-116307013D01*
X229472887Y-116289727D01*
X229480877Y-116263484D01*
X229451757Y-116239699D01*
X229437587Y-116235236D01*
X229393524Y-116210313D01*
X229383167Y-116182465D01*
X229388487Y-116161811D01*
X229410227Y-116149070D01*
X229457052Y-116141685D01*
X229536625Y-116137135D01*
X229619602Y-116131786D01*
X229667609Y-116122869D01*
X229687974Y-116108573D01*
X229690083Y-116099166D01*
X229680481Y-116081609D01*
X229646788Y-116070311D01*
X229581679Y-116063459D01*
X229536625Y-116061197D01*
X229456360Y-116056568D01*
X229409789Y-116049095D01*
X229388272Y-116036247D01*
X229383167Y-116016218D01*
X229401527Y-115981947D01*
X229448069Y-115964477D01*
X229491357Y-115947219D01*
X229496433Y-115926602D01*
X229465626Y-115911461D01*
X229433362Y-115908666D01*
X229394408Y-115901407D01*
X229385749Y-115872364D01*
X229386986Y-115861041D01*
X229411090Y-115818250D01*
X229441375Y-115806652D01*
X229481686Y-115791807D01*
X229482794Y-115768510D01*
X229445191Y-115743019D01*
X229436083Y-115739333D01*
X229392188Y-115710433D01*
X229388519Y-115676890D01*
X229425560Y-115645615D01*
X229429422Y-115643810D01*
X229472856Y-115615005D01*
X229483105Y-115588143D01*
X229459030Y-115571732D01*
X229439319Y-115570000D01*
X229395574Y-115558498D01*
X229379347Y-115522375D01*
X229375303Y-115504188D01*
X229364914Y-115491196D01*
X229341790Y-115482365D01*
X229299544Y-115476656D01*
X229231784Y-115473033D01*
X229132124Y-115470460D01*
X229049792Y-115468907D01*
X228727000Y-115463064D01*
X228727000Y-115592596D01*
X228728853Y-115665739D01*
X228736506Y-115707060D01*
X228753100Y-115726991D01*
X228769333Y-115733200D01*
X228787982Y-115741239D01*
X228800189Y-115758824D01*
X228807302Y-115793664D01*
X228810670Y-115853470D01*
X228811640Y-115945953D01*
X228811667Y-115975299D01*
X228812767Y-116081189D01*
X228816674Y-116151728D01*
X228824293Y-116193856D01*
X228836529Y-116214511D01*
X228843417Y-116218512D01*
X228867349Y-116248454D01*
X228875167Y-116299922D01*
X228865982Y-116356125D01*
X228843848Y-116395135D01*
X228843417Y-116395500D01*
X228828046Y-116429129D01*
X228817247Y-116492957D01*
X228811140Y-116575252D01*
X228809846Y-116664286D01*
X228813485Y-116748326D01*
X228822179Y-116815642D01*
X228836049Y-116854504D01*
X228838662Y-116857221D01*
X228874620Y-116871631D01*
X228935477Y-116882931D01*
X228970954Y-116886292D01*
X229076250Y-116892959D01*
X228994290Y-116929979D01*
X228923813Y-116954188D01*
X228854734Y-116966578D01*
X228843423Y-116967000D01*
X228774272Y-116981224D01*
X228735995Y-117021660D01*
X228730667Y-117076846D01*
X228739307Y-117101486D01*
X228761752Y-117121705D01*
X228804610Y-117140175D01*
X228874491Y-117159563D01*
X228978004Y-117182541D01*
X229007458Y-117188655D01*
X229055269Y-117203867D01*
X229064438Y-117219508D01*
X229038534Y-117232785D01*
X228981125Y-117240907D01*
X228939070Y-117242166D01*
X228868129Y-117243587D01*
X228828401Y-117250702D01*
X228808786Y-117267788D01*
X228798913Y-117296196D01*
X228785352Y-117350225D01*
X228507468Y-117342480D01*
X228359326Y-117335830D01*
X228237449Y-117323779D01*
X228125900Y-117304252D01*
X228025133Y-117279642D01*
X227890023Y-117241305D01*
X227796049Y-117209824D01*
X227743365Y-117184692D01*
X227732128Y-117165397D01*
X227762496Y-117151431D01*
X227834623Y-117142283D01*
X227948667Y-117137444D01*
X228069102Y-117136333D01*
X228186368Y-117135554D01*
X228290243Y-117133405D01*
X228372651Y-117130165D01*
X228425520Y-117126115D01*
X228439519Y-117123485D01*
X228455708Y-117109658D01*
X228465863Y-117078070D01*
X228471209Y-117020979D01*
X228472969Y-116930641D01*
X228473000Y-116911818D01*
X228473000Y-116713000D01*
X228102583Y-116713000D01*
X227964166Y-116712375D01*
X227863115Y-116710249D01*
X227794477Y-116706246D01*
X227753301Y-116699988D01*
X227734634Y-116691100D01*
X227732167Y-116684826D01*
X227741857Y-116661126D01*
X227774385Y-116638176D01*
X227834937Y-116613714D01*
X227928698Y-116585474D01*
X228007333Y-116564678D01*
X228137788Y-116532259D01*
X228233652Y-116507037D01*
X228300308Y-116482268D01*
X228343137Y-116451210D01*
X228367521Y-116407120D01*
X228378844Y-116343255D01*
X228382486Y-116252871D01*
X228383829Y-116129226D01*
X228384439Y-116092212D01*
X228387241Y-115962928D01*
X228390459Y-115869805D01*
X228394911Y-115806676D01*
X228401414Y-115767370D01*
X228410787Y-115745719D01*
X228423845Y-115735552D01*
X228432064Y-115732834D01*
X228455148Y-115720631D01*
X228467609Y-115692522D01*
X228472471Y-115638195D01*
X228473000Y-115593148D01*
X228473000Y-115464166D01*
X228134333Y-115464166D01*
X227999461Y-115465023D01*
X227902407Y-115467825D01*
X227838685Y-115472921D01*
X227803809Y-115480659D01*
X227793323Y-115490625D01*
X227792240Y-115519638D01*
X227790703Y-115583508D01*
X227788865Y-115674762D01*
X227786878Y-115785928D01*
X227785284Y-115884199D01*
X227782434Y-116023734D01*
X227778472Y-116126726D01*
X227772851Y-116198961D01*
X227765020Y-116246227D01*
X227754429Y-116274309D01*
X227747360Y-116283544D01*
X227719253Y-116301287D01*
X227697075Y-116290280D01*
X227680261Y-116247944D01*
X227668247Y-116171705D01*
X227660467Y-116058984D01*
X227656357Y-115907207D01*
X227655869Y-115866333D01*
X227654588Y-115747540D01*
X227653213Y-115642662D01*
X227651864Y-115559427D01*
X227650663Y-115505557D01*
X227649992Y-115489657D01*
X227635718Y-115474494D01*
X227592379Y-115467614D01*
X227513855Y-115468121D01*
X227505036Y-115468491D01*
X227362572Y-115474750D01*
X227297204Y-115598727D01*
X227228238Y-115703914D01*
X227137603Y-115805949D01*
X227036055Y-115894909D01*
X226934349Y-115960873D01*
X226878493Y-115985030D01*
X226801332Y-116005290D01*
X226737061Y-116006071D01*
X226687993Y-115996048D01*
X226611474Y-115979486D01*
X226536793Y-115968337D01*
X226525667Y-115967319D01*
X226451583Y-115961583D01*
X226444979Y-116065876D01*
X226448289Y-116154867D01*
X226467106Y-116229270D01*
X226469808Y-116235209D01*
X226492040Y-116293805D01*
X226514321Y-116372099D01*
X226524860Y-116418849D01*
X226545230Y-116493096D01*
X226572023Y-116555684D01*
X226589335Y-116581304D01*
X226652024Y-116657978D01*
X226690738Y-116733511D01*
X226710438Y-116821963D01*
X226716083Y-116937395D01*
X226716087Y-116940541D01*
X226717778Y-117031676D01*
X226724139Y-117091221D01*
X226737255Y-117129844D01*
X226758500Y-117157500D01*
X226794275Y-117202237D01*
X226791994Y-117229566D01*
X226750435Y-117242342D01*
X226721458Y-117244044D01*
X226668391Y-117244713D01*
X226583862Y-117245133D01*
X226478744Y-117245312D01*
X226363907Y-117245261D01*
X226250223Y-117244990D01*
X226148563Y-117244507D01*
X226069800Y-117243823D01*
X226044125Y-117243441D01*
X225992460Y-117231810D01*
X225974429Y-117205317D01*
X225993468Y-117172818D01*
X226011885Y-117160314D01*
X226031148Y-117140105D01*
X226044910Y-117099552D01*
X226055063Y-117030748D01*
X226061703Y-116952271D01*
X226072709Y-116840453D01*
X226090200Y-116758128D01*
X226118641Y-116692504D01*
X226162496Y-116630789D01*
X226181701Y-116608434D01*
X226254152Y-116499790D01*
X226301097Y-116372780D01*
X226308436Y-116336210D01*
X226324744Y-116278347D01*
X226348393Y-116238220D01*
X226352327Y-116234793D01*
X226368411Y-116200191D01*
X226373611Y-116136258D01*
X226369076Y-116054252D01*
X226355954Y-115965429D01*
X226335392Y-115881047D01*
X226309426Y-115814091D01*
X226277732Y-115745560D01*
X226242205Y-115659649D01*
X226220312Y-115601750D01*
X226192482Y-115524378D01*
X226413044Y-115524378D01*
X226420715Y-115537014D01*
X226438387Y-115574285D01*
X226441000Y-115595687D01*
X226457321Y-115659302D01*
X226500074Y-115728618D01*
X226534197Y-115765565D01*
X226578979Y-115798187D01*
X226603891Y-115794028D01*
X226610333Y-115761749D01*
X226601260Y-115721670D01*
X226590507Y-115708411D01*
X226566286Y-115679714D01*
X226537710Y-115629309D01*
X226514033Y-115575575D01*
X226504500Y-115537589D01*
X226489686Y-115503792D01*
X226471137Y-115483994D01*
X226441225Y-115467250D01*
X226420439Y-115484390D01*
X226419101Y-115486517D01*
X226413044Y-115524378D01*
X226192482Y-115524378D01*
X226174631Y-115474750D01*
X225972213Y-115468728D01*
X225818845Y-115464166D01*
X226589167Y-115464166D01*
X226589167Y-115518561D01*
X226602376Y-115569606D01*
X226635886Y-115636437D01*
X226680520Y-115704457D01*
X226727100Y-115759069D01*
X226753685Y-115780238D01*
X226806239Y-115800387D01*
X226851488Y-115786766D01*
X226878048Y-115765791D01*
X226917580Y-115716484D01*
X226956930Y-115646812D01*
X226985273Y-115577386D01*
X226991987Y-115548833D01*
X226995005Y-115510533D01*
X226986555Y-115485953D01*
X226959409Y-115472060D01*
X226906341Y-115465822D01*
X226820123Y-115464204D01*
X226790250Y-115464166D01*
X226589167Y-115464166D01*
X225818845Y-115464166D01*
X225769795Y-115462707D01*
X225758865Y-115994966D01*
X225755285Y-116161419D01*
X225751689Y-116290589D01*
X225747285Y-116387522D01*
X225741283Y-116457261D01*
X225732893Y-116504852D01*
X225721323Y-116535338D01*
X225705782Y-116553763D01*
X225685481Y-116565173D01*
X225668482Y-116571523D01*
X225660337Y-116594466D01*
X225652133Y-116653775D01*
X225644425Y-116743486D01*
X225637769Y-116857637D01*
X225634452Y-116936992D01*
X225627229Y-117085993D01*
X225616970Y-117226877D01*
X225604455Y-117353027D01*
X225590462Y-117457830D01*
X225575770Y-117534671D01*
X225561158Y-117576935D01*
X225558725Y-117580220D01*
X225542032Y-117577720D01*
X225525065Y-117545721D01*
X225512910Y-117496718D01*
X225509991Y-117460502D01*
X225501526Y-117390319D01*
X225485109Y-117333502D01*
X225474603Y-117283332D01*
X225467562Y-117193960D01*
X225464139Y-117068389D01*
X225464252Y-116929645D01*
X225467953Y-116585374D01*
X225362213Y-116537196D01*
X225350917Y-115474750D01*
X224631250Y-115474750D01*
X224631250Y-115728750D01*
X224710625Y-115735319D01*
X224762871Y-115743085D01*
X224785192Y-115761744D01*
X224789996Y-115802048D01*
X224790000Y-115804111D01*
X224780371Y-115853582D01*
X224758250Y-115866333D01*
X224746315Y-115871879D01*
X224737725Y-115892283D01*
X224731963Y-115933191D01*
X224728517Y-116000247D01*
X224726869Y-116099100D01*
X224726500Y-116214587D01*
X224725074Y-116348241D01*
X224721055Y-116462034D01*
X224714828Y-116549278D01*
X224706777Y-116603287D01*
X224703530Y-116613255D01*
X224652754Y-116677391D01*
X224576217Y-116718390D01*
X224487083Y-116729750D01*
X224470886Y-116728167D01*
X224410246Y-116715390D01*
X224363894Y-116691998D01*
X224329990Y-116652882D01*
X224306694Y-116592934D01*
X224292165Y-116507045D01*
X224284565Y-116390104D01*
X224282054Y-116237004D01*
X224282000Y-116203622D01*
X224281704Y-116131650D01*
X224368058Y-116131650D01*
X224374917Y-116185500D01*
X224397431Y-116213693D01*
X224441644Y-116224491D01*
X224504109Y-116226166D01*
X224573096Y-116224045D01*
X224611535Y-116214901D01*
X224631115Y-116194563D01*
X224637604Y-116178541D01*
X224646481Y-116129154D01*
X224650659Y-116058979D01*
X224650492Y-116025083D01*
X224646715Y-115961812D01*
X224636036Y-115929285D01*
X224612411Y-115915923D01*
X224591744Y-115912552D01*
X224554605Y-115912299D01*
X224539109Y-115931420D01*
X224536000Y-115981337D01*
X224536000Y-115981344D01*
X224531305Y-116033216D01*
X224513261Y-116054348D01*
X224495008Y-116056833D01*
X224463957Y-116044960D01*
X224449181Y-116003106D01*
X224447383Y-115988041D01*
X224433219Y-115935374D01*
X224409000Y-115919250D01*
X224389513Y-115930779D01*
X224377508Y-115970173D01*
X224370815Y-116043879D01*
X224368058Y-116131650D01*
X224281704Y-116131650D01*
X224281471Y-116075051D01*
X224279525Y-115983077D01*
X224275623Y-115921971D01*
X224269225Y-115886006D01*
X224259793Y-115869454D01*
X224250250Y-115866333D01*
X224225010Y-115847458D01*
X224218500Y-115803993D01*
X224221481Y-115766172D01*
X224237863Y-115746807D01*
X224278809Y-115738262D01*
X224319042Y-115735201D01*
X224419583Y-115728750D01*
X224419583Y-115614097D01*
X224451657Y-115614097D01*
X224454840Y-115685753D01*
X224468875Y-115723793D01*
X224499579Y-115736636D01*
X224535208Y-115735013D01*
X224565024Y-115728604D01*
X224581104Y-115711290D01*
X224587664Y-115672614D01*
X224588916Y-115602118D01*
X224588917Y-115601750D01*
X224587537Y-115530883D01*
X224580764Y-115491829D01*
X224564642Y-115474090D01*
X224538394Y-115467606D01*
X224492827Y-115471616D01*
X224465505Y-115503054D01*
X224453194Y-115567377D01*
X224451657Y-115614097D01*
X224419583Y-115614097D01*
X224419583Y-115474750D01*
X224040144Y-115468954D01*
X223895579Y-115467499D01*
X223788599Y-115468340D01*
X223714506Y-115471727D01*
X223668601Y-115477910D01*
X223646184Y-115487142D01*
X223643593Y-115490121D01*
X223637078Y-115520625D01*
X223631652Y-115584431D01*
X223627844Y-115672514D01*
X223626185Y-115775845D01*
X223626157Y-115786958D01*
X223624292Y-115914497D01*
X223617309Y-116006508D01*
X223602594Y-116069725D01*
X223577536Y-116110879D01*
X223539520Y-116136701D01*
X223485935Y-116153925D01*
X223483497Y-116154515D01*
X223392086Y-116183297D01*
X223336829Y-116219586D01*
X223311613Y-116268559D01*
X223308333Y-116302775D01*
X223314770Y-116358319D01*
X223337953Y-116384849D01*
X223350667Y-116389366D01*
X223383551Y-116415675D01*
X223394741Y-116459705D01*
X223383970Y-116503355D01*
X223352708Y-116528099D01*
X223331458Y-116540123D01*
X223317052Y-116568654D01*
X223306816Y-116622432D01*
X223298487Y-116705192D01*
X223288381Y-116814013D01*
X223275807Y-116933040D01*
X223264695Y-117026739D01*
X223253920Y-117130754D01*
X223246124Y-117243332D01*
X223243345Y-117323073D01*
X223240248Y-117388719D01*
X223233430Y-117451331D01*
X223224566Y-117502863D01*
X223215330Y-117535269D01*
X223207398Y-117540502D01*
X223202912Y-117517333D01*
X223199017Y-117476493D01*
X223192619Y-117415575D01*
X223191016Y-117400916D01*
X223184068Y-117332531D01*
X223173706Y-117222564D01*
X223159985Y-117071621D01*
X223142963Y-116880312D01*
X223125024Y-116675958D01*
X223116472Y-116595437D01*
X223106382Y-116548707D01*
X223091830Y-116527248D01*
X223072394Y-116522500D01*
X223042191Y-116506281D01*
X223030726Y-116468309D01*
X223037637Y-116424611D01*
X223062562Y-116391214D01*
X223075500Y-116384916D01*
X223106887Y-116361410D01*
X223117651Y-116311042D01*
X223117833Y-116299816D01*
X223117678Y-116269012D01*
X223112890Y-116246432D01*
X223096987Y-116227226D01*
X223063487Y-116206539D01*
X223005905Y-116179520D01*
X222917760Y-116141316D01*
X222890292Y-116129493D01*
X222844312Y-116105683D01*
X222821029Y-116085836D01*
X222820378Y-116083634D01*
X222818765Y-116057546D01*
X222815139Y-115997558D01*
X222810003Y-115912026D01*
X222803861Y-115809309D01*
X222802469Y-115785983D01*
X222794771Y-115680157D01*
X222785554Y-115589277D01*
X222775876Y-115521877D01*
X222766793Y-115486491D01*
X222765106Y-115483973D01*
X222737495Y-115477617D01*
X222671360Y-115472794D01*
X222570488Y-115469610D01*
X222438665Y-115468169D01*
X222279676Y-115468576D01*
X222227390Y-115469073D01*
X221710250Y-115474750D01*
X221714808Y-115633500D01*
X221735478Y-115789154D01*
X221785786Y-115930002D01*
X221861927Y-116045504D01*
X221864812Y-116048735D01*
X221894552Y-116086258D01*
X221937933Y-116146277D01*
X221985417Y-116215583D01*
X222070083Y-116342583D01*
X222072142Y-116755333D01*
X222074022Y-116892272D01*
X222077999Y-117022848D01*
X222083634Y-117137994D01*
X222090486Y-117228645D01*
X222097857Y-117284500D01*
X222114615Y-117372700D01*
X222130038Y-117463130D01*
X222135501Y-117499031D01*
X222142796Y-117558215D01*
X222139159Y-117585465D01*
X222119865Y-117590720D01*
X222093911Y-117586522D01*
X222052899Y-117584650D01*
X222039005Y-117606144D01*
X222038333Y-117619449D01*
X222028989Y-117664510D01*
X222003767Y-117671544D01*
X221966884Y-117639784D01*
X221961892Y-117633351D01*
X221921166Y-117592644D01*
X221888003Y-117582937D01*
X221870189Y-117605425D01*
X221869000Y-117619121D01*
X221856863Y-117666426D01*
X221838990Y-117698449D01*
X221816033Y-117725300D01*
X221796706Y-117722590D01*
X221767716Y-117691911D01*
X221730443Y-117655420D01*
X221699862Y-117649457D01*
X221664679Y-117675762D01*
X221632556Y-117712734D01*
X221576029Y-117781516D01*
X221561996Y-117718216D01*
X221546252Y-117651336D01*
X221533340Y-117618036D01*
X221517358Y-117610477D01*
X221492403Y-117620815D01*
X221489747Y-117622231D01*
X221449708Y-117659153D01*
X221435090Y-117686644D01*
X221414868Y-117723278D01*
X221389634Y-117719096D01*
X221358347Y-117673711D01*
X221348998Y-117654916D01*
X221318905Y-117600516D01*
X221293730Y-117585143D01*
X221265322Y-117607556D01*
X221243194Y-117638840D01*
X221205187Y-117696846D01*
X221175988Y-117625288D01*
X221146789Y-117553729D01*
X221084390Y-117625489D01*
X221046728Y-117667437D01*
X221030311Y-117679105D01*
X221029190Y-117662655D01*
X221032551Y-117644333D01*
X221051640Y-117539077D01*
X221066713Y-117431573D01*
X221078440Y-117313713D01*
X221087493Y-117177385D01*
X221094542Y-117014481D01*
X221099952Y-116829416D01*
X221105054Y-116654156D01*
X221111266Y-116515771D01*
X221119429Y-116408805D01*
X221130386Y-116327802D01*
X221144978Y-116267303D01*
X221164047Y-116221853D01*
X221188434Y-116185995D01*
X221201447Y-116171452D01*
X221228667Y-116138903D01*
X221264278Y-116091770D01*
X221265750Y-116089732D01*
X221303053Y-116040503D01*
X221334109Y-116003540D01*
X221334542Y-116003083D01*
X221357436Y-115967600D01*
X221361000Y-115952511D01*
X221374198Y-115930728D01*
X221379274Y-115929833D01*
X221395093Y-115910534D01*
X221411306Y-115859978D01*
X221425939Y-115789174D01*
X221437016Y-115709131D01*
X221442561Y-115630858D01*
X221441943Y-115580583D01*
X221435083Y-115474750D01*
X220397917Y-115474750D01*
X220386174Y-115559416D01*
X220371400Y-115628351D01*
X220350370Y-115687639D01*
X220346815Y-115694646D01*
X220332923Y-115736027D01*
X220316956Y-115808375D01*
X220301134Y-115900541D01*
X220290559Y-115977099D01*
X220275165Y-116097763D01*
X220262294Y-116182624D01*
X220249796Y-116237956D01*
X220235520Y-116270031D01*
X220217317Y-116285122D01*
X220193038Y-116289502D01*
X220183432Y-116289666D01*
X220125258Y-116298525D01*
X220075629Y-116320290D01*
X220049690Y-116347739D01*
X220048667Y-116353911D01*
X220066620Y-116369978D01*
X220096292Y-116374657D01*
X220136129Y-116377176D01*
X220163943Y-116388283D01*
X220181589Y-116414255D01*
X220190923Y-116461366D01*
X220193800Y-116535894D01*
X220192075Y-116644113D01*
X220190646Y-116693816D01*
X220186187Y-116805040D01*
X220180120Y-116906110D01*
X220173197Y-116986805D01*
X220166166Y-117036904D01*
X220165166Y-117041083D01*
X220130972Y-117125553D01*
X220078951Y-117204921D01*
X220018549Y-117267327D01*
X219959214Y-117300907D01*
X219957977Y-117301236D01*
X219889917Y-117318804D01*
X219879333Y-117585690D01*
X219874183Y-117688093D01*
X219867770Y-117774800D01*
X219860876Y-117837226D01*
X219854284Y-117866785D01*
X219853667Y-117867606D01*
X219834657Y-117866831D01*
X219816801Y-117838715D01*
X219805182Y-117798069D01*
X219804885Y-117759702D01*
X219811510Y-117744791D01*
X219822340Y-117703332D01*
X219814947Y-117685956D01*
X219805753Y-117651195D01*
X219798776Y-117586452D01*
X219795212Y-117504065D01*
X219794991Y-117480291D01*
X219793864Y-117394002D01*
X219789631Y-117341750D01*
X219780417Y-117315254D01*
X219764351Y-117306235D01*
X219755492Y-117305666D01*
X219671294Y-117292348D01*
X219603427Y-117248837D01*
X219544553Y-117169801D01*
X219528888Y-117140982D01*
X219504222Y-117090805D01*
X219486850Y-117046079D01*
X219475266Y-116997528D01*
X219467962Y-116935881D01*
X219463429Y-116851861D01*
X219460161Y-116736195D01*
X219459680Y-116715245D01*
X219457440Y-116588354D01*
X219458536Y-116497681D01*
X219464698Y-116437142D01*
X219477657Y-116400652D01*
X219499144Y-116382126D01*
X219530888Y-116375480D01*
X219556542Y-116374657D01*
X219593719Y-116366231D01*
X219604167Y-116352642D01*
X219585571Y-116329170D01*
X219539613Y-116307171D01*
X219481035Y-116292507D01*
X219445720Y-116289666D01*
X219422290Y-116287511D01*
X219404762Y-116276908D01*
X219391305Y-116251651D01*
X219380086Y-116205535D01*
X219369273Y-116132353D01*
X219357033Y-116025901D01*
X219350888Y-115968478D01*
X219339225Y-115873173D01*
X219326048Y-115788254D01*
X219313446Y-115726388D01*
X219307919Y-115707808D01*
X219294421Y-115650725D01*
X219287100Y-115577774D01*
X219286667Y-115557709D01*
X219286667Y-115463507D01*
X218690517Y-115469128D01*
X218094368Y-115474750D01*
X218055090Y-115545076D01*
X218037374Y-115578863D01*
X218028937Y-115608225D01*
X218030812Y-115643395D01*
X218044032Y-115694606D01*
X218069629Y-115772090D01*
X218081507Y-115806737D01*
X218115523Y-115903301D01*
X218149772Y-115996360D01*
X218178553Y-116070559D01*
X218187016Y-116090952D01*
X218213965Y-116147370D01*
X218240325Y-116174616D01*
X218280186Y-116183225D01*
X218311252Y-116183833D01*
X218432292Y-116203509D01*
X218537821Y-116260010D01*
X218624261Y-116349540D01*
X218688030Y-116468309D01*
X218725551Y-116612521D01*
X218727265Y-116624691D01*
X218733978Y-116745492D01*
X218715597Y-116841420D01*
X218668874Y-116923860D01*
X218629319Y-116968180D01*
X218574458Y-117018121D01*
X218528498Y-117043102D01*
X218473966Y-117051270D01*
X218450296Y-117051666D01*
X218334279Y-117033489D01*
X218236994Y-116978628D01*
X218158035Y-116886584D01*
X218096997Y-116756861D01*
X218053473Y-116588961D01*
X218048300Y-116559677D01*
X218038500Y-116503247D01*
X218191332Y-116503247D01*
X218195486Y-116573965D01*
X218218627Y-116664263D01*
X218260647Y-116745786D01*
X218315231Y-116812895D01*
X218376061Y-116859950D01*
X218436823Y-116881309D01*
X218491199Y-116871332D01*
X218511170Y-116855875D01*
X218579984Y-116765546D01*
X218606998Y-116676820D01*
X218592518Y-116586897D01*
X218548937Y-116508977D01*
X218465796Y-116416087D01*
X218380696Y-116364789D01*
X218314233Y-116353166D01*
X218247563Y-116370049D01*
X218206484Y-116420284D01*
X218191332Y-116503247D01*
X218038500Y-116503247D01*
X218030757Y-116458664D01*
X218012530Y-116360159D01*
X217996756Y-116280927D01*
X217992465Y-116261160D01*
X217980265Y-116185464D01*
X217985488Y-116133261D01*
X217995053Y-116110585D01*
X218006086Y-116079981D01*
X218003666Y-116044190D01*
X217985349Y-115992263D01*
X217952988Y-115922133D01*
X217917985Y-115854126D01*
X217888107Y-115804238D01*
X217869154Y-115782024D01*
X217867729Y-115781666D01*
X217842643Y-115798400D01*
X217810138Y-115838546D01*
X217780409Y-115887018D01*
X217763647Y-115928734D01*
X217762667Y-115937143D01*
X217752502Y-115972735D01*
X217744766Y-115980731D01*
X217736577Y-116005509D01*
X217729957Y-116062286D01*
X217725930Y-116140728D01*
X217725257Y-116177772D01*
X217721938Y-116270101D01*
X217714518Y-116352806D01*
X217704398Y-116411788D01*
X217700824Y-116423336D01*
X217685332Y-116485829D01*
X217678075Y-116558529D01*
X217678000Y-116565417D01*
X217661739Y-116679713D01*
X217617940Y-116800470D01*
X217554082Y-116910357D01*
X217503713Y-116969354D01*
X217450876Y-117016935D01*
X217406769Y-117041495D01*
X217352589Y-117050542D01*
X217297587Y-117051666D01*
X217222789Y-117048609D01*
X217172680Y-117035510D01*
X217129820Y-117006481D01*
X217109984Y-116988312D01*
X217033246Y-116887557D01*
X216992539Y-116770320D01*
X216990138Y-116701527D01*
X217114138Y-116701527D01*
X217116624Y-116711553D01*
X217139422Y-116756838D01*
X217177230Y-116810777D01*
X217183927Y-116818947D01*
X217247847Y-116870792D01*
X217315998Y-116880698D01*
X217386766Y-116848651D01*
X217418892Y-116820685D01*
X217472490Y-116748221D01*
X217512666Y-116658255D01*
X217534792Y-116565622D01*
X217534239Y-116485157D01*
X217529334Y-116466665D01*
X217488044Y-116397613D01*
X217428062Y-116363726D01*
X217355719Y-116368167D01*
X217342104Y-116373185D01*
X217270469Y-116417338D01*
X217204781Y-116482864D01*
X217152114Y-116559149D01*
X217119541Y-116635575D01*
X217114138Y-116701527D01*
X216990138Y-116701527D01*
X216988083Y-116642688D01*
X217020097Y-116510751D01*
X217088162Y-116381535D01*
X217180100Y-116280121D01*
X217292504Y-116215719D01*
X217396082Y-116190773D01*
X217455389Y-116181251D01*
X217491897Y-116164084D01*
X217519022Y-116128561D01*
X217547480Y-116069889D01*
X217586879Y-115982907D01*
X217613708Y-115921021D01*
X217633173Y-115870907D01*
X217650482Y-115819241D01*
X217668831Y-115759370D01*
X217687965Y-115691362D01*
X217693387Y-115646199D01*
X217684249Y-115606391D01*
X217659700Y-115554452D01*
X217658796Y-115552681D01*
X217613319Y-115463538D01*
X216355083Y-115474750D01*
X216348809Y-115993333D01*
X216347379Y-116181744D01*
X216348223Y-116331440D01*
X216351462Y-116445982D01*
X216357215Y-116528933D01*
X216365600Y-116583855D01*
X216369012Y-116596583D01*
X216414682Y-116711778D01*
X216476529Y-116826700D01*
X216544028Y-116922221D01*
X216555394Y-116935250D01*
X216605792Y-116999510D01*
X216638353Y-117066566D01*
X216655699Y-117146885D01*
X216660450Y-117250933D01*
X216657671Y-117343775D01*
X216647365Y-117465676D01*
X216630116Y-117564862D01*
X216607454Y-117635623D01*
X216580907Y-117672250D01*
X216568682Y-117676083D01*
X216553003Y-117657520D01*
X216533024Y-117609936D01*
X216520636Y-117570250D01*
X216497162Y-117485796D01*
X216473196Y-117399725D01*
X216465754Y-117373039D01*
X216434044Y-117285665D01*
X216391972Y-117232797D01*
X216329386Y-117206749D01*
X216236999Y-117199833D01*
X216142745Y-117208529D01*
X216053442Y-117231752D01*
X215980440Y-117265200D01*
X215935088Y-117304576D01*
X215928674Y-117316632D01*
X215927874Y-117351742D01*
X215937287Y-117413315D01*
X215952768Y-117479717D01*
X215987292Y-117614789D01*
X216007440Y-117712200D01*
X216012719Y-117774280D01*
X216002639Y-117803361D01*
X215976709Y-117801773D01*
X215934437Y-117771845D01*
X215898230Y-117738556D01*
X215801800Y-117627998D01*
X215724359Y-117505090D01*
X215671284Y-117380468D01*
X215647950Y-117264767D01*
X215647335Y-117242166D01*
X215653953Y-117185259D01*
X215675464Y-117123264D01*
X215715972Y-117046998D01*
X215778292Y-116949209D01*
X215812467Y-116891841D01*
X215833403Y-116844807D01*
X215836500Y-116829837D01*
X215847799Y-116801400D01*
X215857667Y-116797666D01*
X215875035Y-116779994D01*
X215878833Y-116756582D01*
X215887632Y-116716691D01*
X215898090Y-116703597D01*
X215918555Y-116669146D01*
X215935220Y-116595039D01*
X215947879Y-116483798D01*
X215956331Y-116337947D01*
X215960371Y-116160009D01*
X215959796Y-115952507D01*
X215959628Y-115940416D01*
X215952917Y-115474750D01*
X215187135Y-115469195D01*
X214986454Y-115467850D01*
X214824011Y-115467134D01*
X214695710Y-115467215D01*
X214597458Y-115468260D01*
X214525161Y-115470436D01*
X214474725Y-115473911D01*
X214442056Y-115478853D01*
X214423060Y-115485427D01*
X214413643Y-115493803D01*
X214410523Y-115500945D01*
X214407136Y-115532224D01*
X214403625Y-115599261D01*
X214400207Y-115695483D01*
X214397098Y-115814317D01*
X214394513Y-115949190D01*
X214393500Y-116019397D01*
X214391845Y-116178624D01*
X214391671Y-116300694D01*
X214393232Y-116390765D01*
X214396782Y-116453996D01*
X214402574Y-116495545D01*
X214410863Y-116520570D01*
X214418695Y-116531427D01*
X214453119Y-116549367D01*
X214517467Y-116570248D01*
X214599847Y-116590410D01*
X214630000Y-116596479D01*
X214837560Y-116636126D01*
X215007249Y-116669255D01*
X215142848Y-116696909D01*
X215248140Y-116720136D01*
X215326905Y-116739979D01*
X215382926Y-116757484D01*
X215419982Y-116773697D01*
X215441857Y-116789662D01*
X215452330Y-116806425D01*
X215455176Y-116824578D01*
X215439106Y-116844680D01*
X215388389Y-116866537D01*
X215300430Y-116891042D01*
X215190917Y-116915347D01*
X215098069Y-116934735D01*
X215009653Y-116953590D01*
X214943063Y-116968196D01*
X214936917Y-116969589D01*
X214806601Y-116994864D01*
X214657500Y-117015064D01*
X214485146Y-117030487D01*
X214285068Y-117041431D01*
X214052797Y-117048195D01*
X213783864Y-117051077D01*
X213714542Y-117051223D01*
X213063667Y-117051666D01*
X213063667Y-116808250D01*
X213065031Y-116695294D01*
X213069464Y-116619863D01*
X213077475Y-116577228D01*
X213089574Y-116562656D01*
X213090125Y-116562592D01*
X213118998Y-116561708D01*
X213182891Y-116560631D01*
X213274494Y-116559455D01*
X213386494Y-116558276D01*
X213497583Y-116557300D01*
X213878583Y-116554250D01*
X213878583Y-115474750D01*
X213373221Y-115469068D01*
X213192028Y-115467835D01*
X213050768Y-115468728D01*
X212947091Y-115471830D01*
X212878645Y-115477221D01*
X212843081Y-115484983D01*
X212838763Y-115487535D01*
X212817121Y-115525385D01*
X212809667Y-115571342D01*
X212802869Y-115619250D01*
X212788500Y-115644083D01*
X212773312Y-115674473D01*
X212767977Y-115730003D01*
X212772123Y-115794731D01*
X212785380Y-115852716D01*
X212793791Y-115871611D01*
X212822511Y-115910693D01*
X212871122Y-115965894D01*
X212922529Y-116018701D01*
X212982990Y-116083960D01*
X213008732Y-116127132D01*
X212999714Y-116147640D01*
X212955895Y-116144911D01*
X212931089Y-116137972D01*
X212826256Y-116107472D01*
X212752635Y-116093189D01*
X212702504Y-116094724D01*
X212668141Y-116111674D01*
X212656208Y-116123698D01*
X212627945Y-116170777D01*
X212619167Y-116206095D01*
X212608886Y-116245634D01*
X212598000Y-116257916D01*
X212584470Y-116285669D01*
X212577220Y-116338311D01*
X212576833Y-116354415D01*
X212572619Y-116406978D01*
X212562110Y-116435897D01*
X212558100Y-116437833D01*
X212548142Y-116458550D01*
X212544912Y-116519988D01*
X212548390Y-116621075D01*
X212558553Y-116760740D01*
X212566334Y-116846795D01*
X212572707Y-116933933D01*
X212571129Y-117003578D01*
X212559546Y-117072771D01*
X212535908Y-117158550D01*
X212524281Y-117196045D01*
X212496375Y-117282242D01*
X212471093Y-117355941D01*
X212452459Y-117405583D01*
X212447570Y-117416504D01*
X212431232Y-117464387D01*
X212428666Y-117485583D01*
X212419210Y-117531813D01*
X212409676Y-117554662D01*
X212386671Y-117603126D01*
X212368776Y-117644333D01*
X212356512Y-117668624D01*
X212349601Y-117663410D01*
X212346365Y-117623859D01*
X212345432Y-117577156D01*
X212349051Y-117486382D01*
X212359858Y-117392923D01*
X212366974Y-117354906D01*
X212378960Y-117280927D01*
X212373591Y-117223016D01*
X212355527Y-117171989D01*
X212321492Y-117114030D01*
X212287675Y-117098046D01*
X212255427Y-117123693D01*
X212226097Y-117190627D01*
X212221481Y-117206145D01*
X212205771Y-117271689D01*
X212206023Y-117319280D01*
X212223976Y-117370837D01*
X212236694Y-117397874D01*
X212262374Y-117467726D01*
X212277300Y-117542350D01*
X212281018Y-117610879D01*
X212273076Y-117662444D01*
X212253018Y-117686178D01*
X212248750Y-117686666D01*
X212220636Y-117672150D01*
X212217000Y-117659621D01*
X212210775Y-117628372D01*
X212194452Y-117568466D01*
X212171555Y-117491327D01*
X212145608Y-117408380D01*
X212120136Y-117331049D01*
X212098665Y-117270757D01*
X212091469Y-117252750D01*
X212055898Y-117150263D01*
X212028518Y-117034401D01*
X212010535Y-116915894D01*
X212003154Y-116805472D01*
X212007580Y-116713866D01*
X212024153Y-116653400D01*
X212032068Y-116608987D01*
X212027647Y-116539485D01*
X212023176Y-116511916D01*
X212009747Y-116438444D01*
X211998501Y-116374059D01*
X211995073Y-116353166D01*
X211982511Y-116302699D01*
X211959821Y-116233410D01*
X211945494Y-116195043D01*
X211904221Y-116089836D01*
X211813640Y-116096376D01*
X211743376Y-116105138D01*
X211682852Y-116118653D01*
X211672318Y-116122208D01*
X211603505Y-116140143D01*
X211567106Y-116132784D01*
X211565343Y-116104511D01*
X211600440Y-116059707D01*
X211628409Y-116035666D01*
X211723564Y-115952716D01*
X211783768Y-115877066D01*
X211812967Y-115799306D01*
X211815107Y-115710027D01*
X211800361Y-115625600D01*
X211783276Y-115556196D01*
X211771402Y-115514579D01*
X212099854Y-115514579D01*
X212109924Y-115570514D01*
X212122302Y-115616758D01*
X212146853Y-115699431D01*
X212170664Y-115781418D01*
X212179745Y-115813416D01*
X212199341Y-115873330D01*
X212218639Y-115917242D01*
X212222897Y-115923930D01*
X212232096Y-115960640D01*
X212232754Y-116025490D01*
X212225648Y-116105321D01*
X212211555Y-116186978D01*
X212205971Y-116210291D01*
X212199069Y-116247112D01*
X212210591Y-116263806D01*
X212250399Y-116268322D01*
X212278180Y-116268500D01*
X212365462Y-116268500D01*
X212351944Y-116123047D01*
X212354696Y-115961894D01*
X212395822Y-115809172D01*
X212430543Y-115734328D01*
X212447427Y-115680735D01*
X212449833Y-115656203D01*
X212459488Y-115615563D01*
X212471000Y-115601750D01*
X212486250Y-115573135D01*
X212492167Y-115526417D01*
X212492167Y-115464166D01*
X212302916Y-115464166D01*
X212217450Y-115466297D01*
X212149010Y-115471996D01*
X212107925Y-115480224D01*
X212101119Y-115484466D01*
X212099854Y-115514579D01*
X211771402Y-115514579D01*
X211768260Y-115503571D01*
X211760305Y-115482725D01*
X211733794Y-115472103D01*
X211680357Y-115466185D01*
X211615153Y-115465085D01*
X211553338Y-115468916D01*
X211510071Y-115477789D01*
X211503917Y-115480816D01*
X211480421Y-115512447D01*
X211467731Y-115549284D01*
X211456314Y-115598066D01*
X211438221Y-115669789D01*
X211422734Y-115728750D01*
X211399826Y-115817079D01*
X211373478Y-115922632D01*
X211351314Y-116014500D01*
X211331858Y-116095018D01*
X211314882Y-116161790D01*
X211303651Y-116202027D01*
X211302658Y-116205000D01*
X211289439Y-116249266D01*
X211271784Y-116316381D01*
X211253889Y-116389369D01*
X211239952Y-116451256D01*
X211234622Y-116480166D01*
X211225652Y-116523974D01*
X211207560Y-116596259D01*
X211183497Y-116684985D01*
X211157091Y-116776500D01*
X211139930Y-116842803D01*
X211128730Y-116901485D01*
X211128472Y-116903500D01*
X211119244Y-116957745D01*
X211111538Y-116988166D01*
X211074794Y-117106898D01*
X211050672Y-117201882D01*
X211040749Y-117252750D01*
X211028491Y-117311726D01*
X211016247Y-117352949D01*
X211013571Y-117358583D01*
X211000589Y-117396153D01*
X211000143Y-117400916D01*
X210994434Y-117436012D01*
X210981218Y-117496704D01*
X210964182Y-117567763D01*
X210947012Y-117633957D01*
X210933395Y-117680058D01*
X210930975Y-117686666D01*
X210916389Y-117733421D01*
X210905188Y-117798227D01*
X210901326Y-117828913D01*
X210888650Y-117861306D01*
X210852961Y-117880094D01*
X210807511Y-117889142D01*
X210732770Y-117893440D01*
X210644533Y-117889170D01*
X210605593Y-117884280D01*
X210491917Y-117866185D01*
X210486565Y-114211323D01*
X210486373Y-114080201D01*
X211246690Y-114080201D01*
X211246962Y-114238749D01*
X211247817Y-114375781D01*
X211249219Y-114486457D01*
X211251135Y-114565935D01*
X211253531Y-114609376D01*
X211254339Y-114614659D01*
X211266537Y-114664736D01*
X211683560Y-114654349D01*
X211865774Y-114648260D01*
X212006696Y-114640061D01*
X212107320Y-114629673D01*
X212168640Y-114617016D01*
X212174667Y-114614856D01*
X212225613Y-114593263D01*
X212256829Y-114577108D01*
X212259333Y-114575132D01*
X212283927Y-114558844D01*
X212328693Y-114534182D01*
X212330280Y-114533361D01*
X212431933Y-114459864D01*
X212527666Y-114349584D01*
X212613260Y-114208036D01*
X212662648Y-114098916D01*
X212685919Y-114013170D01*
X212701250Y-113899777D01*
X212707679Y-113772843D01*
X212704238Y-113646476D01*
X212697916Y-113583276D01*
X212685500Y-113504093D01*
X212672360Y-113444107D01*
X212660789Y-113413161D01*
X212657752Y-113411000D01*
X212643637Y-113393222D01*
X212640333Y-113368246D01*
X212624835Y-113310573D01*
X212588803Y-113247378D01*
X212916611Y-113247378D01*
X212917200Y-113391551D01*
X212918870Y-113548024D01*
X212919117Y-113565424D01*
X212922046Y-113745290D01*
X212925230Y-113887873D01*
X212929006Y-113998220D01*
X212933714Y-114081382D01*
X212939693Y-114142407D01*
X212947280Y-114186345D01*
X212956815Y-114218245D01*
X212963988Y-114234460D01*
X212987801Y-114288968D01*
X212999816Y-114330347D01*
X213000167Y-114335002D01*
X213012715Y-114361016D01*
X213021333Y-114363500D01*
X213040521Y-114380459D01*
X213042500Y-114392786D01*
X213060644Y-114433968D01*
X213109544Y-114485256D01*
X213180897Y-114540427D01*
X213266403Y-114593256D01*
X213357761Y-114637518D01*
X213381167Y-114646749D01*
X213426388Y-114654324D01*
X213501506Y-114657448D01*
X213595740Y-114656666D01*
X213698312Y-114652522D01*
X213798442Y-114645559D01*
X213885351Y-114636321D01*
X213948258Y-114625352D01*
X213972239Y-114616935D01*
X214093142Y-114531819D01*
X214186341Y-114441876D01*
X214243708Y-114356271D01*
X214275615Y-114286171D01*
X214300769Y-114222890D01*
X214319718Y-114160959D01*
X214612410Y-114160959D01*
X214613010Y-114311859D01*
X214614604Y-114430087D01*
X214617268Y-114518862D01*
X214621077Y-114581400D01*
X214626108Y-114620922D01*
X214632438Y-114640644D01*
X214635053Y-114643521D01*
X214666618Y-114650186D01*
X214733001Y-114654370D01*
X214826772Y-114656282D01*
X214940501Y-114656130D01*
X215066758Y-114654122D01*
X215198114Y-114650467D01*
X215327138Y-114645374D01*
X215446400Y-114639052D01*
X215548471Y-114631708D01*
X215625920Y-114623552D01*
X215671319Y-114614791D01*
X215672458Y-114614397D01*
X215722557Y-114592847D01*
X215750039Y-114574007D01*
X215751833Y-114569987D01*
X215768757Y-114555280D01*
X215779623Y-114554000D01*
X215814004Y-114537423D01*
X215861464Y-114493788D01*
X215913140Y-114432242D01*
X215950943Y-114377248D01*
X215974691Y-114312829D01*
X215988184Y-114222330D01*
X215990022Y-114160710D01*
X216242240Y-114160710D01*
X216242835Y-114311483D01*
X216244422Y-114429581D01*
X216247076Y-114518222D01*
X216250873Y-114580622D01*
X216255891Y-114619998D01*
X216262205Y-114639568D01*
X216264887Y-114642435D01*
X216292539Y-114646866D01*
X216356597Y-114650477D01*
X216451139Y-114653144D01*
X216570245Y-114654744D01*
X216707992Y-114655154D01*
X216841917Y-114654415D01*
X217392250Y-114649250D01*
X217398358Y-114464545D01*
X217404467Y-114279840D01*
X217042083Y-114274045D01*
X216679700Y-114268250D01*
X216681669Y-113747136D01*
X217656833Y-113747136D01*
X217657102Y-113974877D01*
X217657969Y-114163384D01*
X217659526Y-114315751D01*
X217661863Y-114435072D01*
X217665073Y-114524445D01*
X217669245Y-114586963D01*
X217674471Y-114625722D01*
X217680842Y-114643817D01*
X217683292Y-114645815D01*
X217722180Y-114652758D01*
X217787725Y-114656621D01*
X217866636Y-114657533D01*
X217945620Y-114655621D01*
X218011386Y-114651014D01*
X218050644Y-114643840D01*
X218053946Y-114642237D01*
X218060759Y-114629244D01*
X218066247Y-114597639D01*
X218070487Y-114544207D01*
X218073556Y-114465731D01*
X218075529Y-114358993D01*
X218076483Y-114220777D01*
X218076494Y-114047865D01*
X218075637Y-113837041D01*
X218075113Y-113748270D01*
X218075107Y-113747251D01*
X218376500Y-113747251D01*
X218376769Y-113974977D01*
X218377636Y-114163468D01*
X218379193Y-114315819D01*
X218381531Y-114435127D01*
X218384740Y-114524485D01*
X218388913Y-114586991D01*
X218394140Y-114625738D01*
X218400513Y-114643822D01*
X218402958Y-114645815D01*
X218442178Y-114652843D01*
X218508017Y-114656698D01*
X218587161Y-114657525D01*
X218666296Y-114655469D01*
X218732110Y-114650676D01*
X218771288Y-114643291D01*
X218774396Y-114641753D01*
X218783021Y-114627653D01*
X218789472Y-114594943D01*
X218793905Y-114539429D01*
X218796475Y-114456919D01*
X218797338Y-114343217D01*
X218796652Y-114194130D01*
X218795443Y-114075869D01*
X218793027Y-113926038D01*
X218789565Y-113788934D01*
X218785310Y-113670638D01*
X218780518Y-113577227D01*
X218775440Y-113514781D01*
X218770990Y-113490375D01*
X218764865Y-113459054D01*
X218776402Y-113453333D01*
X218798427Y-113469849D01*
X218799833Y-113478372D01*
X218808176Y-113505380D01*
X218833483Y-113564891D01*
X218876170Y-113657783D01*
X218936652Y-113784931D01*
X219015346Y-113947213D01*
X219112668Y-114145504D01*
X219210009Y-114342333D01*
X219362209Y-114649250D01*
X219596462Y-114655205D01*
X219707013Y-114656672D01*
X219782133Y-114654026D01*
X219828579Y-114646650D01*
X219853108Y-114633927D01*
X219855264Y-114631581D01*
X219861803Y-114610614D01*
X219867010Y-114563458D01*
X219870938Y-114487610D01*
X219873639Y-114380570D01*
X219875167Y-114239838D01*
X219875574Y-114062915D01*
X219874914Y-113847298D01*
X219874463Y-113768331D01*
X220556667Y-113768331D01*
X220557020Y-113995626D01*
X220558137Y-114183382D01*
X220560097Y-114334387D01*
X220562983Y-114451428D01*
X220566877Y-114537295D01*
X220571860Y-114594775D01*
X220578014Y-114626656D01*
X220582067Y-114634433D01*
X220614277Y-114646222D01*
X220675543Y-114654711D01*
X220752683Y-114659446D01*
X220832517Y-114659972D01*
X220901861Y-114655836D01*
X220946519Y-114646985D01*
X220956679Y-114638832D01*
X220964608Y-114619971D01*
X220970584Y-114585713D01*
X220974888Y-114531364D01*
X220977798Y-114452235D01*
X220979595Y-114343635D01*
X220980558Y-114200872D01*
X220980899Y-114070193D01*
X220981797Y-113506250D01*
X221030683Y-113643833D01*
X221062630Y-113734661D01*
X221094950Y-113827991D01*
X221115118Y-113887250D01*
X221139491Y-113955305D01*
X221162025Y-114010906D01*
X221171167Y-114029837D01*
X221188751Y-114077126D01*
X221191667Y-114098916D01*
X221201086Y-114145185D01*
X221210556Y-114167995D01*
X221232549Y-114215375D01*
X221252435Y-114262958D01*
X221266476Y-114292732D01*
X221286190Y-114310106D01*
X221321909Y-114318415D01*
X221383962Y-114320988D01*
X221432898Y-114321166D01*
X221535083Y-114319140D01*
X221601783Y-114311774D01*
X221639709Y-114297140D01*
X221655574Y-114273308D01*
X221657333Y-114256651D01*
X221667593Y-114217078D01*
X221678500Y-114204750D01*
X221695408Y-114175316D01*
X221699667Y-114144234D01*
X221706809Y-114097533D01*
X221716920Y-114076691D01*
X221730534Y-114048705D01*
X221752723Y-113990341D01*
X221779752Y-113911729D01*
X221794522Y-113866083D01*
X221822638Y-113780925D01*
X221847924Y-113710736D01*
X221866629Y-113665649D01*
X221872519Y-113655475D01*
X221887936Y-113618292D01*
X221890167Y-113597266D01*
X221899265Y-113565230D01*
X221909927Y-113559166D01*
X221928790Y-113541229D01*
X221938820Y-113511541D01*
X221942296Y-113498122D01*
X221939928Y-113522248D01*
X221937852Y-113538000D01*
X221934569Y-113580067D01*
X221930903Y-113657396D01*
X221927094Y-113762917D01*
X221923382Y-113889562D01*
X221920008Y-114030263D01*
X221918423Y-114108965D01*
X221915212Y-114275849D01*
X221913824Y-114405175D01*
X221916079Y-114501717D01*
X221923799Y-114570250D01*
X221938802Y-114615548D01*
X221962911Y-114642387D01*
X221997944Y-114655541D01*
X222045722Y-114659785D01*
X222108065Y-114659893D01*
X222128437Y-114659833D01*
X222184210Y-114660904D01*
X222230101Y-114661629D01*
X222267067Y-114658272D01*
X222296062Y-114647102D01*
X222318045Y-114624383D01*
X222325919Y-114605590D01*
X222571644Y-114605590D01*
X222580467Y-114644468D01*
X222581611Y-114645722D01*
X222608093Y-114652365D01*
X222665664Y-114657326D01*
X222743087Y-114659733D01*
X222763129Y-114659833D01*
X222849822Y-114658449D01*
X222905484Y-114652554D01*
X222941378Y-114639528D01*
X222968765Y-114616754D01*
X222974251Y-114610755D01*
X223011869Y-114555033D01*
X223041280Y-114489545D01*
X223041441Y-114489047D01*
X223064917Y-114416416D01*
X223409337Y-114410598D01*
X223538019Y-114408780D01*
X223630580Y-114408723D01*
X223693215Y-114410979D01*
X223732120Y-114416100D01*
X223753488Y-114424639D01*
X223763515Y-114437148D01*
X223765424Y-114442348D01*
X223785985Y-114494680D01*
X223796712Y-114516671D01*
X223813403Y-114559554D01*
X223816333Y-114577837D01*
X223833623Y-114616349D01*
X223886748Y-114642262D01*
X223977597Y-114656201D01*
X224062450Y-114659160D01*
X224164099Y-114657099D01*
X224228698Y-114646828D01*
X224261384Y-114623638D01*
X224267295Y-114582824D01*
X224251568Y-114519681D01*
X224242794Y-114493961D01*
X224218936Y-114430624D01*
X224198788Y-114384739D01*
X224190212Y-114370490D01*
X224178177Y-114339452D01*
X224176167Y-114317351D01*
X224166506Y-114264169D01*
X224157469Y-114241504D01*
X224133328Y-114190272D01*
X224125105Y-114170276D01*
X224476424Y-114170276D01*
X224477552Y-114329069D01*
X224479868Y-114452078D01*
X224483418Y-114541484D01*
X224488245Y-114599463D01*
X224494396Y-114628197D01*
X224496018Y-114630917D01*
X224527481Y-114644384D01*
X224588191Y-114654252D01*
X224665171Y-114659952D01*
X224745443Y-114660914D01*
X224816031Y-114656568D01*
X224862352Y-114646985D01*
X224874972Y-114636851D01*
X224884034Y-114613656D01*
X224890094Y-114571418D01*
X224893709Y-114504155D01*
X224895435Y-114405886D01*
X224895833Y-114287152D01*
X224895833Y-113940166D01*
X224982333Y-113940166D01*
X225031455Y-113943697D01*
X225072362Y-113958819D01*
X225116937Y-113992330D01*
X225177065Y-114051024D01*
X225178163Y-114052149D01*
X225265458Y-114158552D01*
X225352610Y-114296701D01*
X225391363Y-114369271D01*
X225447823Y-114479538D01*
X225492077Y-114557644D01*
X225531164Y-114609135D01*
X225572124Y-114639555D01*
X225621996Y-114654450D01*
X225687821Y-114659363D01*
X225760258Y-114659833D01*
X225852268Y-114657209D01*
X225923630Y-114650056D01*
X225964726Y-114639452D01*
X225969131Y-114636401D01*
X225974422Y-114613015D01*
X225961655Y-114567136D01*
X225929105Y-114493951D01*
X225891296Y-114419443D01*
X225806988Y-114258963D01*
X225738879Y-114131583D01*
X225683887Y-114032715D01*
X225638933Y-113957770D01*
X225600935Y-113902161D01*
X225566812Y-113861299D01*
X225533483Y-113830596D01*
X225497868Y-113805464D01*
X225466435Y-113786729D01*
X225416476Y-113755558D01*
X225386582Y-113731805D01*
X225382830Y-113725776D01*
X225400111Y-113709497D01*
X225441405Y-113688271D01*
X226185687Y-113688271D01*
X226185988Y-113855673D01*
X226187161Y-114020139D01*
X226189194Y-114176108D01*
X226192076Y-114318015D01*
X226195796Y-114440298D01*
X226200342Y-114537392D01*
X226205703Y-114603735D01*
X226211869Y-114633763D01*
X226212400Y-114634433D01*
X226241783Y-114643072D01*
X226306585Y-114650091D01*
X226400157Y-114655513D01*
X226515853Y-114659361D01*
X226647024Y-114661659D01*
X226787023Y-114662430D01*
X226929202Y-114661698D01*
X227066912Y-114659486D01*
X227193507Y-114655818D01*
X227302338Y-114650717D01*
X227386758Y-114644207D01*
X227440119Y-114636311D01*
X227455375Y-114630041D01*
X227468749Y-114590113D01*
X227474667Y-114516034D01*
X227473842Y-114444832D01*
X227467583Y-114289416D01*
X227054833Y-114278833D01*
X226928307Y-114274811D01*
X226818009Y-114269816D01*
X226730244Y-114264258D01*
X226671320Y-114258545D01*
X226647543Y-114253087D01*
X226647375Y-114252375D01*
X226650011Y-114224634D01*
X226651907Y-114166855D01*
X226651969Y-114160664D01*
X227714573Y-114160664D01*
X227715167Y-114311415D01*
X227716752Y-114429489D01*
X227719404Y-114518105D01*
X227723200Y-114580480D01*
X227728215Y-114619830D01*
X227734526Y-114639373D01*
X227737220Y-114642237D01*
X227771732Y-114650797D01*
X227834869Y-114656477D01*
X227913008Y-114659099D01*
X227992527Y-114658486D01*
X228059805Y-114654460D01*
X228100852Y-114646985D01*
X228114225Y-114636160D01*
X228123576Y-114611414D01*
X228129576Y-114566373D01*
X228132899Y-114494664D01*
X228134216Y-114389913D01*
X228134333Y-114329485D01*
X228134333Y-114024833D01*
X228205258Y-114024833D01*
X228324731Y-114042514D01*
X228432640Y-114091519D01*
X228477730Y-114126385D01*
X228509267Y-114164930D01*
X228549366Y-114226204D01*
X228591425Y-114298365D01*
X228628841Y-114369576D01*
X228655013Y-114427998D01*
X228663500Y-114459509D01*
X228673313Y-114493216D01*
X228696941Y-114545369D01*
X228725664Y-114598918D01*
X228750765Y-114636810D01*
X228757647Y-114643634D01*
X228787818Y-114650716D01*
X228849085Y-114656192D01*
X228930218Y-114659196D01*
X228963698Y-114659509D01*
X229058811Y-114658226D01*
X229122554Y-114650159D01*
X229157399Y-114629568D01*
X229165819Y-114590712D01*
X229150285Y-114527852D01*
X229113270Y-114435249D01*
X229086637Y-114374083D01*
X229021018Y-114228922D01*
X228966286Y-114118156D01*
X228919307Y-114036239D01*
X228876948Y-113977620D01*
X228842908Y-113942559D01*
X228769185Y-113877830D01*
X228830635Y-113846053D01*
X228882951Y-113809432D01*
X228940057Y-113755268D01*
X228992389Y-113694612D01*
X229030386Y-113638513D01*
X229044500Y-113598939D01*
X229055165Y-113560018D01*
X229065667Y-113548583D01*
X229079357Y-113519332D01*
X229085683Y-113462503D01*
X229084793Y-113392181D01*
X229076840Y-113322447D01*
X229062692Y-113269120D01*
X229023447Y-113176102D01*
X228992433Y-113112773D01*
X228963629Y-113068958D01*
X228931018Y-113034485D01*
X228916315Y-113021667D01*
X228859272Y-112977137D01*
X228802491Y-112942454D01*
X228739723Y-112916396D01*
X228664719Y-112897738D01*
X228571230Y-112885259D01*
X228453008Y-112877736D01*
X228303805Y-112873945D01*
X228155500Y-112872769D01*
X227721583Y-112871250D01*
X227716053Y-113748270D01*
X227714894Y-113974022D01*
X227714573Y-114160664D01*
X226651969Y-114160664D01*
X226652665Y-114091333D01*
X226652667Y-114088333D01*
X226652667Y-113940166D01*
X226934183Y-113940166D01*
X227071664Y-113938267D01*
X227168250Y-113932498D01*
X227225215Y-113922756D01*
X227241100Y-113914766D01*
X227254895Y-113879242D01*
X227263738Y-113810196D01*
X227266500Y-113726531D01*
X227264644Y-113639501D01*
X227258021Y-113586361D01*
X227245043Y-113558789D01*
X227233019Y-113550847D01*
X227200091Y-113546032D01*
X227133940Y-113542031D01*
X227043677Y-113539218D01*
X226938409Y-113537973D01*
X226920810Y-113537944D01*
X226642083Y-113537888D01*
X226642083Y-113262806D01*
X227002975Y-113262819D01*
X227145196Y-113262112D01*
X227250540Y-113259181D01*
X227324451Y-113252834D01*
X227372374Y-113241879D01*
X227399752Y-113225122D01*
X227412029Y-113201372D01*
X227414667Y-113172618D01*
X227421059Y-113130171D01*
X227437334Y-113066197D01*
X227448774Y-113028927D01*
X227464485Y-112981773D01*
X227474664Y-112944346D01*
X227475287Y-112915526D01*
X227462332Y-112894193D01*
X227431774Y-112879225D01*
X227379591Y-112869503D01*
X227301760Y-112863906D01*
X227194256Y-112861314D01*
X227053057Y-112860605D01*
X226874140Y-112860661D01*
X226844576Y-112860666D01*
X226667125Y-112860789D01*
X226527312Y-112861360D01*
X226420441Y-112862682D01*
X226341815Y-112865056D01*
X226286739Y-112868786D01*
X226250517Y-112874173D01*
X226228454Y-112881520D01*
X226215853Y-112891130D01*
X226208911Y-112901608D01*
X226202800Y-112933779D01*
X226197639Y-113001959D01*
X226193416Y-113100584D01*
X226190121Y-113224091D01*
X226187742Y-113366917D01*
X226186267Y-113523498D01*
X226185687Y-113688271D01*
X225441405Y-113688271D01*
X225442394Y-113687763D01*
X225447017Y-113685814D01*
X225499684Y-113653383D01*
X225558223Y-113602313D01*
X225581370Y-113577376D01*
X225618169Y-113526675D01*
X225664252Y-113451810D01*
X225715791Y-113360409D01*
X225768955Y-113260098D01*
X225819916Y-113158506D01*
X225864843Y-113063262D01*
X225899907Y-112981992D01*
X225921278Y-112922325D01*
X225925307Y-112892317D01*
X225912561Y-112876772D01*
X225883724Y-112867550D01*
X225830991Y-112863675D01*
X225746554Y-112864170D01*
X225708359Y-112865187D01*
X225504149Y-112871250D01*
X225416949Y-113040583D01*
X225377144Y-113116839D01*
X225344300Y-113177832D01*
X225323390Y-113214410D01*
X225319167Y-113220500D01*
X225303817Y-113244369D01*
X225277739Y-113291872D01*
X225266250Y-113314025D01*
X225200067Y-113407823D01*
X225112472Y-113481351D01*
X225015476Y-113525356D01*
X224983550Y-113531808D01*
X224896936Y-113543426D01*
X224885250Y-112871250D01*
X224483083Y-112871250D01*
X224477552Y-113736625D01*
X224476439Y-113973521D01*
X224476424Y-114170276D01*
X224125105Y-114170276D01*
X224106100Y-114124068D01*
X224072204Y-114033809D01*
X224038583Y-113940166D01*
X224003366Y-113841477D01*
X223977367Y-113770507D01*
X223955942Y-113714975D01*
X223934446Y-113662601D01*
X223926510Y-113643833D01*
X223907786Y-113593542D01*
X223884158Y-113521972D01*
X223869632Y-113474500D01*
X223847088Y-113403474D01*
X223825834Y-113345124D01*
X223815204Y-113321328D01*
X223797978Y-113273866D01*
X223795167Y-113252250D01*
X223785668Y-113206063D01*
X223776063Y-113183171D01*
X223759015Y-113140619D01*
X223738803Y-113077219D01*
X223731525Y-113051166D01*
X223710797Y-112972357D01*
X223692939Y-112918679D01*
X223670010Y-112885529D01*
X223634074Y-112868305D01*
X223577191Y-112862404D01*
X223491421Y-112863222D01*
X223410963Y-112865305D01*
X223153447Y-112871250D01*
X223122386Y-112966500D01*
X223099676Y-113032003D01*
X223079006Y-113084971D01*
X223072829Y-113098504D01*
X223056827Y-113151758D01*
X223054333Y-113178166D01*
X223044522Y-113233643D01*
X223034698Y-113257828D01*
X223019491Y-113293968D01*
X222995797Y-113358799D01*
X222967826Y-113440627D01*
X222956707Y-113474500D01*
X222928744Y-113557187D01*
X222903751Y-113624823D01*
X222885686Y-113666936D01*
X222881092Y-113674524D01*
X222867263Y-113710277D01*
X222863833Y-113743316D01*
X222857956Y-113781127D01*
X222847958Y-113792180D01*
X222834128Y-113810866D01*
X222813406Y-113859567D01*
X222791333Y-113924472D01*
X222767880Y-113998020D01*
X222747376Y-114058019D01*
X222735594Y-114088333D01*
X222681433Y-114211772D01*
X222636046Y-114332136D01*
X222601345Y-114442506D01*
X222579240Y-114535963D01*
X222571644Y-114605590D01*
X222325919Y-114605590D01*
X222333969Y-114586381D01*
X222344793Y-114529364D01*
X222351471Y-114449596D01*
X222354960Y-114343344D01*
X222356217Y-114206874D01*
X222356197Y-114036453D01*
X222355856Y-113828346D01*
X222355833Y-113771819D01*
X222355520Y-113585835D01*
X222354625Y-113412375D01*
X222353220Y-113256167D01*
X222351371Y-113121939D01*
X222349150Y-113014418D01*
X222346624Y-112938331D01*
X222343864Y-112898407D01*
X222342985Y-112894147D01*
X222331484Y-112880080D01*
X222305212Y-112870490D01*
X222257436Y-112864586D01*
X222181428Y-112861577D01*
X222070455Y-112860672D01*
X222058228Y-112860666D01*
X221786319Y-112860666D01*
X221755573Y-112929458D01*
X221730053Y-112991598D01*
X221700936Y-113069495D01*
X221688841Y-113104083D01*
X221645579Y-113225746D01*
X221609352Y-113314721D01*
X221591364Y-113352504D01*
X221575188Y-113400463D01*
X221572667Y-113421583D01*
X221563128Y-113467728D01*
X221553453Y-113490662D01*
X221534723Y-113536060D01*
X221512200Y-113603393D01*
X221490381Y-113677377D01*
X221473764Y-113742725D01*
X221466845Y-113784153D01*
X221466833Y-113785096D01*
X221455920Y-113805069D01*
X221445667Y-113802583D01*
X221427521Y-113772556D01*
X221424500Y-113750848D01*
X221416882Y-113698021D01*
X221396796Y-113619362D01*
X221368397Y-113527971D01*
X221335839Y-113436952D01*
X221303275Y-113359405D01*
X221295030Y-113342495D01*
X221278855Y-113294536D01*
X221276333Y-113273416D01*
X221266539Y-113227545D01*
X221256407Y-113204337D01*
X221240060Y-113164861D01*
X221218079Y-113100147D01*
X221200017Y-113040583D01*
X221177553Y-112969123D01*
X221156248Y-112912530D01*
X221143268Y-112887125D01*
X221117581Y-112874803D01*
X221060235Y-112866511D01*
X220967574Y-112861916D01*
X220852673Y-112860666D01*
X220738508Y-112861425D01*
X220659909Y-112864233D01*
X220610125Y-112869889D01*
X220582408Y-112879190D01*
X220570007Y-112892936D01*
X220569514Y-112894147D01*
X220566691Y-112922102D01*
X220564082Y-112987652D01*
X220561757Y-113086058D01*
X220559786Y-113212582D01*
X220558239Y-113362486D01*
X220557185Y-113531031D01*
X220556694Y-113713480D01*
X220556667Y-113768331D01*
X219874463Y-113768331D01*
X219874281Y-113736625D01*
X219868750Y-112871250D01*
X219681448Y-112865103D01*
X219573396Y-112864735D01*
X219499151Y-112871499D01*
X219464490Y-112883570D01*
X219454567Y-112899511D01*
X219447016Y-112931941D01*
X219441555Y-112985657D01*
X219437903Y-113065458D01*
X219435778Y-113176143D01*
X219434899Y-113322509D01*
X219434833Y-113389266D01*
X219435899Y-113555751D01*
X219438966Y-113698479D01*
X219443835Y-113812772D01*
X219450311Y-113893951D01*
X219457914Y-113936558D01*
X219472504Y-113991783D01*
X219472719Y-114023953D01*
X219460929Y-114027031D01*
X219439508Y-113994986D01*
X219436997Y-113989766D01*
X219408955Y-113931539D01*
X219386726Y-113887250D01*
X219361166Y-113837922D01*
X219348396Y-113813166D01*
X219334744Y-113785433D01*
X219305644Y-113725522D01*
X219263985Y-113639410D01*
X219212659Y-113533077D01*
X219154554Y-113412498D01*
X219128361Y-113358083D01*
X219068204Y-113233229D01*
X219013535Y-113120068D01*
X218967253Y-113024577D01*
X218932259Y-112952737D01*
X218911453Y-112910524D01*
X218907605Y-112903000D01*
X218891040Y-112888754D01*
X218854861Y-112878610D01*
X218792619Y-112871679D01*
X218697864Y-112867076D01*
X218633528Y-112865306D01*
X218376500Y-112859363D01*
X218376500Y-113747251D01*
X218075107Y-113747251D01*
X218069583Y-112871250D01*
X217863208Y-112865191D01*
X217656833Y-112859133D01*
X217656833Y-113747136D01*
X216681669Y-113747136D01*
X216682221Y-113601330D01*
X216682577Y-113404572D01*
X216681911Y-113246314D01*
X216680089Y-113122735D01*
X216676973Y-113030011D01*
X216672427Y-112964319D01*
X216666315Y-112921836D01*
X216658501Y-112898739D01*
X216657125Y-112896643D01*
X216637882Y-112878433D01*
X216606866Y-112867823D01*
X216554890Y-112863481D01*
X216472767Y-112864073D01*
X216439379Y-112865062D01*
X216249250Y-112871250D01*
X216243720Y-113748270D01*
X216242561Y-113974044D01*
X216242240Y-114160710D01*
X215990022Y-114160710D01*
X215991214Y-114120792D01*
X215983575Y-114023261D01*
X215965058Y-113944777D01*
X215957153Y-113926812D01*
X215917978Y-113869402D01*
X215865239Y-113813743D01*
X215810688Y-113770437D01*
X215766074Y-113750084D01*
X215760792Y-113749666D01*
X215733620Y-113741269D01*
X215743867Y-113717548D01*
X215790417Y-113680707D01*
X215798276Y-113675583D01*
X215877227Y-113601225D01*
X215924960Y-113499121D01*
X215941833Y-113368480D01*
X215941868Y-113358413D01*
X215929136Y-113237922D01*
X215894739Y-113129819D01*
X215843036Y-113046324D01*
X215823614Y-113026856D01*
X215759991Y-112980441D01*
X215686044Y-112939304D01*
X215617113Y-112911102D01*
X215575506Y-112903000D01*
X215527870Y-112894118D01*
X215505850Y-112881383D01*
X215476343Y-112873668D01*
X215407263Y-112868225D01*
X215301313Y-112865147D01*
X215161197Y-112864529D01*
X215051825Y-112865508D01*
X214619417Y-112871250D01*
X214613887Y-113748270D01*
X214612728Y-113974168D01*
X214612410Y-114160959D01*
X214319718Y-114160959D01*
X214319969Y-114160139D01*
X214334012Y-114091632D01*
X214343698Y-114011080D01*
X214349824Y-113912195D01*
X214353189Y-113788690D01*
X214354590Y-113634278D01*
X214354833Y-113480880D01*
X214354463Y-113304048D01*
X214353207Y-113165121D01*
X214350845Y-113059676D01*
X214347158Y-112983289D01*
X214341926Y-112931538D01*
X214334929Y-112899998D01*
X214325948Y-112884248D01*
X214325176Y-112883570D01*
X214285393Y-112870618D01*
X214207974Y-112864473D01*
X214108218Y-112865103D01*
X213920917Y-112871250D01*
X213910333Y-113474500D01*
X213906669Y-113664181D01*
X213902481Y-113816345D01*
X213896918Y-113935809D01*
X213889131Y-114027389D01*
X213878271Y-114095899D01*
X213863487Y-114146157D01*
X213843931Y-114182977D01*
X213818752Y-114211175D01*
X213787101Y-114235567D01*
X213774576Y-114243940D01*
X213730006Y-114261967D01*
X213668626Y-114273861D01*
X213603372Y-114278957D01*
X213547177Y-114276588D01*
X213512977Y-114266086D01*
X213508167Y-114257666D01*
X213491278Y-114238331D01*
X213479744Y-114236500D01*
X213454167Y-114219121D01*
X213421531Y-114175017D01*
X213405585Y-114146541D01*
X213392088Y-114117926D01*
X213381465Y-114087775D01*
X213373316Y-114050723D01*
X213367239Y-114001403D01*
X213362835Y-113934449D01*
X213359703Y-113844496D01*
X213357442Y-113726177D01*
X213355652Y-113574126D01*
X213354633Y-113463916D01*
X213349417Y-112871250D01*
X213143635Y-112865199D01*
X213049111Y-112862772D01*
X212988546Y-112863447D01*
X212953583Y-112869073D01*
X212935866Y-112881500D01*
X212927039Y-112902578D01*
X212924140Y-112913789D01*
X212920868Y-112948711D01*
X212918491Y-113019953D01*
X212917057Y-113121510D01*
X212916611Y-113247378D01*
X212588803Y-113247378D01*
X212583472Y-113238030D01*
X212523941Y-113158998D01*
X212453940Y-113081862D01*
X212381164Y-113015004D01*
X212313313Y-112966809D01*
X212258081Y-112945659D01*
X212252044Y-112945333D01*
X212221823Y-112934849D01*
X212217000Y-112924166D01*
X212198709Y-112908909D01*
X212157733Y-112903000D01*
X212106430Y-112895782D01*
X212076819Y-112881352D01*
X212047078Y-112873417D01*
X211978089Y-112867907D01*
X211872875Y-112864936D01*
X211734457Y-112864618D01*
X211654544Y-112865477D01*
X211253917Y-112871250D01*
X211248029Y-113717916D01*
X211247034Y-113904976D01*
X211246690Y-114080201D01*
X210486373Y-114080201D01*
X210481213Y-110556460D01*
X210528898Y-110549688D01*
X210562215Y-110536931D01*
X210573564Y-110503090D01*
X210573462Y-110474125D01*
X210575824Y-110426378D01*
X210594528Y-110407741D01*
X210619709Y-110405333D01*
X210686415Y-110396503D01*
X210742401Y-110374107D01*
X210774482Y-110344286D01*
X210777667Y-110331773D01*
X210785593Y-110314805D01*
X210814564Y-110304842D01*
X210872370Y-110300301D01*
X210936417Y-110299500D01*
X211022867Y-110301614D01*
X211073307Y-110308691D01*
X211093882Y-110321827D01*
X211095167Y-110327852D01*
X211114136Y-110358570D01*
X211162348Y-110385364D01*
X211226758Y-110402327D01*
X211266241Y-110405333D01*
X211308728Y-110408645D01*
X211317317Y-110424001D01*
X211307654Y-110446133D01*
X211295136Y-110501395D01*
X211317889Y-110542281D01*
X211356248Y-110557554D01*
X211374310Y-110562004D01*
X211387057Y-110573760D01*
X211395603Y-110599442D01*
X211401064Y-110645673D01*
X211404553Y-110719072D01*
X211407187Y-110826262D01*
X211407949Y-110864572D01*
X211413815Y-111165060D01*
X211513782Y-111171488D01*
X211613750Y-111177916D01*
X211616726Y-111350816D01*
X211619538Y-111433610D01*
X211624367Y-111500261D01*
X211630303Y-111539272D01*
X211632026Y-111543656D01*
X211634431Y-111572287D01*
X211631357Y-111576587D01*
X211626335Y-111601502D01*
X211621846Y-111660393D01*
X211618333Y-111744905D01*
X211616240Y-111846680D01*
X211616058Y-111865059D01*
X211616104Y-111984699D01*
X211618921Y-112067648D01*
X211625014Y-112119489D01*
X211634887Y-112145803D01*
X211641939Y-112151353D01*
X211677915Y-112157413D01*
X211739939Y-112161337D01*
X211786796Y-112162166D01*
X211855808Y-112159844D01*
X211893585Y-112150456D01*
X211911088Y-112130371D01*
X211914533Y-112119833D01*
X211935795Y-112085434D01*
X211954885Y-112077500D01*
X211972975Y-112064254D01*
X211982165Y-112020328D01*
X211984167Y-111960338D01*
X211992354Y-111865682D01*
X212015075Y-111796504D01*
X212019001Y-111790013D01*
X212040529Y-111733907D01*
X212058504Y-111637758D01*
X212071993Y-111510299D01*
X212081740Y-111389235D01*
X212093224Y-111247428D01*
X212104705Y-111106327D01*
X212110966Y-111029750D01*
X212121623Y-110895746D01*
X212133168Y-110744226D01*
X212143848Y-110598445D01*
X212148853Y-110527179D01*
X212161646Y-110396491D01*
X212178351Y-110305439D01*
X212197442Y-110254390D01*
X212217389Y-110243712D01*
X212236668Y-110273773D01*
X212253751Y-110344940D01*
X212267110Y-110457582D01*
X212270065Y-110497976D01*
X212288424Y-110777749D01*
X212304749Y-111016769D01*
X212319165Y-111216561D01*
X212331796Y-111378651D01*
X212342767Y-111504563D01*
X212352204Y-111595823D01*
X212360231Y-111653957D01*
X212366891Y-111680337D01*
X212383749Y-111733662D01*
X212386333Y-111759712D01*
X212395144Y-111794263D01*
X212407500Y-111802333D01*
X212418561Y-111821772D01*
X212426134Y-111873268D01*
X212428667Y-111939916D01*
X212430986Y-112018028D01*
X212439017Y-112061297D01*
X212454365Y-112077015D01*
X212458990Y-112077500D01*
X212488973Y-112095158D01*
X212503082Y-112120878D01*
X212516995Y-112146427D01*
X212545212Y-112158034D01*
X212599542Y-112159251D01*
X212626216Y-112157920D01*
X212735583Y-112151583D01*
X212741526Y-111892291D01*
X212747469Y-111633000D01*
X212935712Y-111633000D01*
X212947250Y-110860416D01*
X213116583Y-110849833D01*
X213285917Y-110839250D01*
X213292549Y-110770458D01*
X213302238Y-110722672D01*
X213326898Y-110704162D01*
X213359789Y-110701666D01*
X213410558Y-110690470D01*
X213427239Y-110667808D01*
X213450233Y-110652518D01*
X213505960Y-110641151D01*
X213585005Y-110633705D01*
X213677952Y-110630180D01*
X213775383Y-110630575D01*
X213867882Y-110634888D01*
X213946033Y-110643119D01*
X214000418Y-110655267D01*
X214020522Y-110667868D01*
X214054730Y-110694366D01*
X214090292Y-110701666D01*
X214118241Y-110704837D01*
X214134259Y-110720813D01*
X214142534Y-110759294D01*
X214147257Y-110829978D01*
X214147448Y-110833958D01*
X214153750Y-110966250D01*
X214566500Y-110978366D01*
X214566500Y-111284516D01*
X214566846Y-111404176D01*
X214568439Y-111487880D01*
X214572115Y-111542002D01*
X214578707Y-111572918D01*
X214589050Y-111587002D01*
X214603978Y-111590630D01*
X214606569Y-111590666D01*
X214646345Y-111575104D01*
X214659485Y-111557185D01*
X214663134Y-111527185D01*
X214666381Y-111461247D01*
X214669069Y-111365765D01*
X214671044Y-111247136D01*
X214672151Y-111111752D01*
X214672333Y-111028018D01*
X214672333Y-110532333D01*
X214926333Y-110532333D01*
X214926657Y-111056208D01*
X214927348Y-111234100D01*
X214929450Y-111373532D01*
X214933376Y-111478365D01*
X214939542Y-111552460D01*
X214948359Y-111599677D01*
X214960242Y-111623879D01*
X214975605Y-111628926D01*
X214987467Y-111623879D01*
X214996921Y-111598112D01*
X215003917Y-111533402D01*
X215008507Y-111428789D01*
X215010745Y-111283314D01*
X215011000Y-111200149D01*
X215011000Y-110790964D01*
X215079792Y-110780089D01*
X215137062Y-110769054D01*
X215216347Y-110751372D01*
X215286167Y-110734432D01*
X215367083Y-110714389D01*
X215439664Y-110697117D01*
X215482217Y-110687634D01*
X215528941Y-110672739D01*
X215552258Y-110656892D01*
X215582258Y-110643152D01*
X215640884Y-110638765D01*
X215715631Y-110643070D01*
X215793993Y-110655410D01*
X215857667Y-110672983D01*
X216057785Y-110732851D01*
X216258379Y-110770919D01*
X216349791Y-110780171D01*
X216492666Y-110789807D01*
X216492666Y-111105570D01*
X216493489Y-111233123D01*
X216496250Y-111323422D01*
X216501390Y-111381520D01*
X216509349Y-111412470D01*
X216520183Y-111421333D01*
X216565533Y-111402475D01*
X216592959Y-111351496D01*
X216598500Y-111304916D01*
X216604292Y-111252133D01*
X216617804Y-111219191D01*
X216630426Y-111188155D01*
X216642255Y-111129848D01*
X216648110Y-111082666D01*
X216669983Y-110894919D01*
X216696956Y-110745504D01*
X216730088Y-110630611D01*
X216770436Y-110546432D01*
X216810842Y-110496516D01*
X216851175Y-110448607D01*
X216872834Y-110403739D01*
X216873991Y-110394818D01*
X216884370Y-110342698D01*
X216894833Y-110320666D01*
X216909089Y-110307649D01*
X216915038Y-110330866D01*
X216915676Y-110354018D01*
X216936591Y-110428134D01*
X216970976Y-110470435D01*
X217027409Y-110537380D01*
X217073927Y-110617979D01*
X217102005Y-110695821D01*
X217106500Y-110731324D01*
X217113393Y-110775915D01*
X217125573Y-110795622D01*
X217137704Y-110822679D01*
X217142623Y-110873731D01*
X217142504Y-110882963D01*
X217146765Y-110937024D01*
X217160017Y-110970788D01*
X217162572Y-110972966D01*
X217173960Y-110999365D01*
X217185281Y-111057418D01*
X217194664Y-111136484D01*
X217197419Y-111171088D01*
X217206568Y-111282885D01*
X217220303Y-111358986D01*
X217245263Y-111405979D01*
X217288091Y-111430451D01*
X217355429Y-111438991D01*
X217453916Y-111438185D01*
X217466333Y-111437827D01*
X217667417Y-111431916D01*
X217673736Y-111345838D01*
X217682383Y-111287911D01*
X217704451Y-111256068D01*
X217749322Y-111234713D01*
X217807384Y-111221923D01*
X217890103Y-111213835D01*
X217986169Y-111210357D01*
X218084274Y-111211392D01*
X218173108Y-111216847D01*
X218241361Y-111226626D01*
X218275958Y-111239131D01*
X218296825Y-111265045D01*
X218308383Y-111309684D01*
X218312765Y-111383128D01*
X218313000Y-111414329D01*
X218317547Y-111507591D01*
X218330155Y-111575372D01*
X218341539Y-111600438D01*
X218370153Y-111629498D01*
X218391449Y-111626229D01*
X218406147Y-111588357D01*
X218414967Y-111513608D01*
X218418632Y-111399708D01*
X218418833Y-111356584D01*
X218418833Y-111103833D01*
X218478100Y-111103833D01*
X218528767Y-111110252D01*
X218557475Y-111123181D01*
X218590535Y-111136554D01*
X218648994Y-111145619D01*
X218719886Y-111150090D01*
X218790243Y-111149679D01*
X218847097Y-111144100D01*
X218877482Y-111133067D01*
X218879206Y-111130291D01*
X218901033Y-111115942D01*
X218957264Y-111107310D01*
X219051391Y-111103923D01*
X219074499Y-111103833D01*
X219170698Y-111105005D01*
X219232282Y-111112413D01*
X219266970Y-111131896D01*
X219282479Y-111169289D01*
X219286528Y-111230430D01*
X219286667Y-111264314D01*
X219286667Y-111357833D01*
X219388509Y-111357833D01*
X219480597Y-111371271D01*
X219546133Y-111409025D01*
X219579718Y-111467255D01*
X219583000Y-111496241D01*
X219594187Y-111538182D01*
X219614750Y-111548333D01*
X219640579Y-111530565D01*
X219646500Y-111504750D01*
X219654865Y-111475250D01*
X219668594Y-111474823D01*
X219701240Y-111474572D01*
X219721510Y-111462897D01*
X219761946Y-111453389D01*
X219808419Y-111479490D01*
X219843343Y-111521875D01*
X219875809Y-111542434D01*
X219912135Y-111548333D01*
X219951408Y-111555712D01*
X219964000Y-111569500D01*
X219981144Y-111588278D01*
X219995750Y-111590666D01*
X220023880Y-111577008D01*
X220027500Y-111565266D01*
X220034018Y-111550681D01*
X220052381Y-111564747D01*
X220065305Y-111601320D01*
X220071981Y-111679129D01*
X220072435Y-111798479D01*
X220072110Y-111814003D01*
X220070366Y-111914025D01*
X220071473Y-111979593D01*
X220076677Y-112018554D01*
X220087226Y-112038757D01*
X220104367Y-112048050D01*
X220109539Y-112049513D01*
X220146685Y-112077364D01*
X220158602Y-112106115D01*
X220167249Y-112131801D01*
X220190740Y-112146591D01*
X220239267Y-112154394D01*
X220293276Y-112157778D01*
X220369762Y-112158913D01*
X220417555Y-112151161D01*
X220449878Y-112131595D01*
X220460599Y-112120736D01*
X220497732Y-112088613D01*
X220523977Y-112077500D01*
X220562184Y-112086131D01*
X220609306Y-112106373D01*
X220648293Y-112129748D01*
X220662335Y-112146291D01*
X220678738Y-112160669D01*
X220714729Y-112159922D01*
X220751185Y-112146062D01*
X220762948Y-112135708D01*
X220769519Y-112107720D01*
X220776457Y-112043750D01*
X220783334Y-111950140D01*
X220789721Y-111833233D01*
X220795190Y-111699371D01*
X220797606Y-111622416D01*
X220802603Y-111452479D01*
X220808770Y-111254767D01*
X220815632Y-111043811D01*
X220822713Y-110834136D01*
X220829539Y-110640272D01*
X220831543Y-110585250D01*
X220838301Y-110400794D01*
X220846027Y-110188625D01*
X220854195Y-109963338D01*
X220862275Y-109739526D01*
X220869738Y-109531784D01*
X220872940Y-109442250D01*
X220882983Y-109166204D01*
X220891989Y-108930439D01*
X220900066Y-108732915D01*
X220907319Y-108571594D01*
X220913854Y-108444438D01*
X220919777Y-108349409D01*
X220925193Y-108284468D01*
X220930209Y-108247577D01*
X220934930Y-108236698D01*
X220935531Y-108237092D01*
G36*
X230039333Y-118131166D02*
G01*
X210396667Y-118131166D01*
X210396667Y-107505500D01*
X210460167Y-107505500D01*
X210460167Y-118067666D01*
X229975833Y-118067666D01*
X229975833Y-107505500D01*
X210460167Y-107505500D01*
X210396667Y-107505500D01*
X210396667Y-107442000D01*
X230039333Y-107442000D01*
X230039333Y-118131166D01*
G37*
X230039333Y-118131166D02*
X210396667Y-118131166D01*
X210396667Y-107505500D01*
X210460167Y-107505500D01*
X210460167Y-118067666D01*
X229975833Y-118067666D01*
X229975833Y-107505500D01*
X210460167Y-107505500D01*
X210396667Y-107505500D01*
X210396667Y-107442000D01*
X230039333Y-107442000D01*
X230039333Y-118131166D01*
D10*
X199196000Y-73660000D02*
G75*
G03*
X199196000Y-73660000I-2620000J0D01*
G01*
X196576000Y-71080000D02*
X196576000Y-76240000D01*
X196616000Y-71080000D02*
X196616000Y-76240000D01*
X196656000Y-71081000D02*
X196656000Y-76239000D01*
X196696000Y-71082000D02*
X196696000Y-76238000D01*
X196736000Y-71084000D02*
X196736000Y-76236000D01*
X196776000Y-71087000D02*
X196776000Y-76233000D01*
X196816000Y-71091000D02*
X196816000Y-72620000D01*
X196816000Y-74700000D02*
X196816000Y-76229000D01*
X196856000Y-71095000D02*
X196856000Y-72620000D01*
X196856000Y-74700000D02*
X196856000Y-76225000D01*
X196896000Y-71099000D02*
X196896000Y-72620000D01*
X196896000Y-74700000D02*
X196896000Y-76221000D01*
X196936000Y-71104000D02*
X196936000Y-72620000D01*
X196936000Y-74700000D02*
X196936000Y-76216000D01*
X196976000Y-71110000D02*
X196976000Y-72620000D01*
X196976000Y-74700000D02*
X196976000Y-76210000D01*
X197016000Y-71117000D02*
X197016000Y-72620000D01*
X197016000Y-74700000D02*
X197016000Y-76203000D01*
X197056000Y-71124000D02*
X197056000Y-72620000D01*
X197056000Y-74700000D02*
X197056000Y-76196000D01*
X197096000Y-71132000D02*
X197096000Y-72620000D01*
X197096000Y-74700000D02*
X197096000Y-76188000D01*
X197136000Y-71140000D02*
X197136000Y-72620000D01*
X197136000Y-74700000D02*
X197136000Y-76180000D01*
X197176000Y-71149000D02*
X197176000Y-72620000D01*
X197176000Y-74700000D02*
X197176000Y-76171000D01*
X197216000Y-71159000D02*
X197216000Y-72620000D01*
X197216000Y-74700000D02*
X197216000Y-76161000D01*
X197256000Y-71169000D02*
X197256000Y-72620000D01*
X197256000Y-74700000D02*
X197256000Y-76151000D01*
X197297000Y-71180000D02*
X197297000Y-72620000D01*
X197297000Y-74700000D02*
X197297000Y-76140000D01*
X197337000Y-71192000D02*
X197337000Y-72620000D01*
X197337000Y-74700000D02*
X197337000Y-76128000D01*
X197377000Y-71205000D02*
X197377000Y-72620000D01*
X197377000Y-74700000D02*
X197377000Y-76115000D01*
X197417000Y-71218000D02*
X197417000Y-72620000D01*
X197417000Y-74700000D02*
X197417000Y-76102000D01*
X197457000Y-71232000D02*
X197457000Y-72620000D01*
X197457000Y-74700000D02*
X197457000Y-76088000D01*
X197497000Y-71246000D02*
X197497000Y-72620000D01*
X197497000Y-74700000D02*
X197497000Y-76074000D01*
X197537000Y-71262000D02*
X197537000Y-72620000D01*
X197537000Y-74700000D02*
X197537000Y-76058000D01*
X197577000Y-71278000D02*
X197577000Y-72620000D01*
X197577000Y-74700000D02*
X197577000Y-76042000D01*
X197617000Y-71295000D02*
X197617000Y-72620000D01*
X197617000Y-74700000D02*
X197617000Y-76025000D01*
X197657000Y-71312000D02*
X197657000Y-72620000D01*
X197657000Y-74700000D02*
X197657000Y-76008000D01*
X197697000Y-71331000D02*
X197697000Y-72620000D01*
X197697000Y-74700000D02*
X197697000Y-75989000D01*
X197737000Y-71350000D02*
X197737000Y-72620000D01*
X197737000Y-74700000D02*
X197737000Y-75970000D01*
X197777000Y-71370000D02*
X197777000Y-72620000D01*
X197777000Y-74700000D02*
X197777000Y-75950000D01*
X197817000Y-71392000D02*
X197817000Y-72620000D01*
X197817000Y-74700000D02*
X197817000Y-75928000D01*
X197857000Y-71413000D02*
X197857000Y-72620000D01*
X197857000Y-74700000D02*
X197857000Y-75907000D01*
X197897000Y-71436000D02*
X197897000Y-72620000D01*
X197897000Y-74700000D02*
X197897000Y-75884000D01*
X197937000Y-71460000D02*
X197937000Y-72620000D01*
X197937000Y-74700000D02*
X197937000Y-75860000D01*
X197977000Y-71485000D02*
X197977000Y-72620000D01*
X197977000Y-74700000D02*
X197977000Y-75835000D01*
X198017000Y-71511000D02*
X198017000Y-72620000D01*
X198017000Y-74700000D02*
X198017000Y-75809000D01*
X198057000Y-71538000D02*
X198057000Y-72620000D01*
X198057000Y-74700000D02*
X198057000Y-75782000D01*
X198097000Y-71565000D02*
X198097000Y-72620000D01*
X198097000Y-74700000D02*
X198097000Y-75755000D01*
X198137000Y-71595000D02*
X198137000Y-72620000D01*
X198137000Y-74700000D02*
X198137000Y-75725000D01*
X198177000Y-71625000D02*
X198177000Y-72620000D01*
X198177000Y-74700000D02*
X198177000Y-75695000D01*
X198217000Y-71656000D02*
X198217000Y-72620000D01*
X198217000Y-74700000D02*
X198217000Y-75664000D01*
X198257000Y-71689000D02*
X198257000Y-72620000D01*
X198257000Y-74700000D02*
X198257000Y-75631000D01*
X198297000Y-71723000D02*
X198297000Y-72620000D01*
X198297000Y-74700000D02*
X198297000Y-75597000D01*
X198337000Y-71759000D02*
X198337000Y-72620000D01*
X198337000Y-74700000D02*
X198337000Y-75561000D01*
X198377000Y-71796000D02*
X198377000Y-72620000D01*
X198377000Y-74700000D02*
X198377000Y-75524000D01*
X198417000Y-71834000D02*
X198417000Y-72620000D01*
X198417000Y-74700000D02*
X198417000Y-75486000D01*
X198457000Y-71875000D02*
X198457000Y-72620000D01*
X198457000Y-74700000D02*
X198457000Y-75445000D01*
X198497000Y-71917000D02*
X198497000Y-72620000D01*
X198497000Y-74700000D02*
X198497000Y-75403000D01*
X198537000Y-71961000D02*
X198537000Y-72620000D01*
X198537000Y-74700000D02*
X198537000Y-75359000D01*
X198577000Y-72007000D02*
X198577000Y-72620000D01*
X198577000Y-74700000D02*
X198577000Y-75313000D01*
X198617000Y-72055000D02*
X198617000Y-72620000D01*
X198617000Y-74700000D02*
X198617000Y-75265000D01*
X198657000Y-72106000D02*
X198657000Y-72620000D01*
X198657000Y-74700000D02*
X198657000Y-75214000D01*
X198697000Y-72160000D02*
X198697000Y-72620000D01*
X198697000Y-74700000D02*
X198697000Y-75160000D01*
X198737000Y-72217000D02*
X198737000Y-72620000D01*
X198737000Y-74700000D02*
X198737000Y-75103000D01*
X198777000Y-72277000D02*
X198777000Y-72620000D01*
X198777000Y-74700000D02*
X198777000Y-75043000D01*
X198817000Y-72341000D02*
X198817000Y-72620000D01*
X198817000Y-74700000D02*
X198817000Y-74979000D01*
X198857000Y-72409000D02*
X198857000Y-72620000D01*
X198857000Y-74700000D02*
X198857000Y-74911000D01*
X198897000Y-72482000D02*
X198897000Y-74838000D01*
X198937000Y-72562000D02*
X198937000Y-74758000D01*
X198977000Y-72649000D02*
X198977000Y-74671000D01*
X199017000Y-72745000D02*
X199017000Y-74575000D01*
X199057000Y-72855000D02*
X199057000Y-74465000D01*
X199097000Y-72983000D02*
X199097000Y-74337000D01*
X199137000Y-73142000D02*
X199137000Y-74178000D01*
X199177000Y-73376000D02*
X199177000Y-73944000D01*
X193771225Y-72185000D02*
X194271225Y-72185000D01*
X194021225Y-71935000D02*
X194021225Y-72435000D01*
X237550000Y-74870000D02*
X237550000Y-76200000D01*
X236220000Y-74870000D02*
X237550000Y-74870000D01*
X234950000Y-74870000D02*
X234950000Y-77530000D01*
X234950000Y-77530000D02*
X229810000Y-77530000D01*
X234950000Y-74870000D02*
X229810000Y-74870000D01*
X229810000Y-74870000D02*
X229810000Y-77530000D01*
D11*
X239141000Y-76200000D02*
X239141000Y-66548000D01*
X239141000Y-66548000D02*
X228092000Y-66548000D01*
X228092000Y-66548000D02*
X228092000Y-78105000D01*
X228092000Y-78105000D02*
X239141000Y-78105000D01*
X239141000Y-78105000D02*
X239141000Y-76009500D01*
D10*
X204918000Y-68640000D02*
X204918000Y-67310000D01*
X206248000Y-68640000D02*
X204918000Y-68640000D01*
X207518000Y-68640000D02*
X207518000Y-65980000D01*
X207518000Y-65980000D02*
X222818000Y-65980000D01*
X207518000Y-68640000D02*
X222818000Y-68640000D01*
X222818000Y-68640000D02*
X222818000Y-65980000D01*
D11*
X201168000Y-67310000D02*
X201168000Y-106489500D01*
X201168000Y-106489500D02*
X226504500Y-106489500D01*
X226504500Y-106489500D02*
X226504500Y-65468500D01*
X226441000Y-65468500D02*
X201168000Y-65468500D01*
X201168000Y-65468500D02*
X201168000Y-67818000D01*
D10*
X240886000Y-92964000D02*
G75*
G03*
X240886000Y-92964000I-6230000J0D01*
G01*
X228256000Y-94463999D02*
G75*
G02*
X228256000Y-91464000I6400000J1499999D01*
G01*
X241700000Y-97782000D02*
X242700000Y-97282000D01*
X241700000Y-96782000D02*
X241700000Y-97782000D01*
X242700000Y-97282000D02*
X241700000Y-96782000D01*
X244400000Y-101872000D02*
X243090000Y-101872000D01*
X244400000Y-101872000D02*
X244400000Y-101872000D01*
X244400000Y-106272000D02*
X244400000Y-101872000D01*
X250900000Y-106272000D02*
X244400000Y-106272000D01*
X250900000Y-93372000D02*
X250900000Y-106272000D01*
X244400000Y-93372000D02*
X250900000Y-93372000D01*
X244400000Y-97772000D02*
X244400000Y-93372000D01*
X243090000Y-97772000D02*
X244400000Y-97772000D01*
X243090000Y-107572000D02*
X243090000Y-92072000D01*
X252210000Y-107572000D02*
X243090000Y-107572000D01*
X252210000Y-92072000D02*
X252210000Y-107572000D01*
X243090000Y-92072000D02*
X252210000Y-92072000D01*
X180280000Y-68640000D02*
X180280000Y-67310000D01*
X181610000Y-68640000D02*
X180280000Y-68640000D01*
X182880000Y-68640000D02*
X182880000Y-65980000D01*
X182880000Y-65980000D02*
X195640000Y-65980000D01*
X182880000Y-68640000D02*
X195640000Y-68640000D01*
X195640000Y-68640000D02*
X195640000Y-65980000D01*
D13*
X192134000Y-96924000D02*
X192134000Y-83924000D01*
X192134000Y-83924000D02*
X173634000Y-83924000D01*
X173634000Y-83924000D02*
X173634000Y-96924000D01*
X173634000Y-96924000D02*
X192134000Y-96924000D01*
D10*
X190230000Y-110656000D02*
X194730000Y-110656000D01*
X188980000Y-106656000D02*
X188980000Y-108156000D01*
X194730000Y-104156000D02*
X190230000Y-104156000D01*
X195980000Y-108156000D02*
X195980000Y-106656000D01*
X246066000Y-76260000D02*
X248726000Y-76260000D01*
X246066000Y-71120000D02*
X246066000Y-76260000D01*
X248726000Y-71120000D02*
X248726000Y-76260000D01*
X246066000Y-71120000D02*
X248726000Y-71120000D01*
X246066000Y-69850000D02*
X246066000Y-68520000D01*
X246066000Y-68520000D02*
X247396000Y-68520000D01*
X202676000Y-118276000D02*
X207176000Y-118276000D01*
X201426000Y-114276000D02*
X201426000Y-115776000D01*
X207176000Y-111776000D02*
X202676000Y-111776000D01*
X208426000Y-115776000D02*
X208426000Y-114276000D01*
X177784000Y-118276000D02*
X182284000Y-118276000D01*
X176534000Y-114276000D02*
X176534000Y-115776000D01*
X182284000Y-111776000D02*
X177784000Y-111776000D01*
X183534000Y-115776000D02*
X183534000Y-114276000D01*
X190230000Y-125896000D02*
X194730000Y-125896000D01*
X188980000Y-121896000D02*
X188980000Y-123396000D01*
X194730000Y-119396000D02*
X190230000Y-119396000D01*
X195980000Y-123396000D02*
X195980000Y-121896000D01*
X228584000Y-125388000D02*
X233084000Y-125388000D01*
X227334000Y-121388000D02*
X227334000Y-122888000D01*
X233084000Y-118888000D02*
X228584000Y-118888000D01*
X234334000Y-122888000D02*
X234334000Y-121388000D01*
X245348000Y-125388000D02*
X249848000Y-125388000D01*
X244098000Y-121388000D02*
X244098000Y-122888000D01*
X249848000Y-118888000D02*
X245348000Y-118888000D01*
X251098000Y-122888000D02*
X251098000Y-121388000D01*
D11*
X244434380Y-70842095D02*
X243434380Y-70842095D01*
X243434380Y-70604000D01*
X243482000Y-70461142D01*
X243577238Y-70365904D01*
X243672476Y-70318285D01*
X243862952Y-70270666D01*
X244005809Y-70270666D01*
X244196285Y-70318285D01*
X244291523Y-70365904D01*
X244386761Y-70461142D01*
X244434380Y-70604000D01*
X244434380Y-70842095D01*
X244434380Y-69318285D02*
X244434380Y-69889714D01*
X244434380Y-69604000D02*
X243434380Y-69604000D01*
X243577238Y-69699238D01*
X243672476Y-69794476D01*
X243720095Y-69889714D01*
X244264380Y-66555904D02*
X243264380Y-66555904D01*
X244264380Y-65984476D02*
X243692952Y-66413047D01*
X243264380Y-65984476D02*
X243835809Y-66555904D01*
X200239333Y-74017142D02*
X200191714Y-74064761D01*
X200048857Y-74112380D01*
X199953619Y-74112380D01*
X199810761Y-74064761D01*
X199715523Y-73969523D01*
X199667904Y-73874285D01*
X199620285Y-73683809D01*
X199620285Y-73540952D01*
X199667904Y-73350476D01*
X199715523Y-73255238D01*
X199810761Y-73160000D01*
X199953619Y-73112380D01*
X200048857Y-73112380D01*
X200191714Y-73160000D01*
X200239333Y-73207619D01*
X201191714Y-74112380D02*
X200620285Y-74112380D01*
X200906000Y-74112380D02*
X200906000Y-73112380D01*
X200810761Y-73255238D01*
X200715523Y-73350476D01*
X200620285Y-73398095D01*
X238002380Y-76961904D02*
X238811904Y-76961904D01*
X238907142Y-76914285D01*
X238954761Y-76866666D01*
X239002380Y-76771428D01*
X239002380Y-76580952D01*
X238954761Y-76485714D01*
X238907142Y-76438095D01*
X238811904Y-76390476D01*
X238002380Y-76390476D01*
X238097619Y-75961904D02*
X238050000Y-75914285D01*
X238002380Y-75819047D01*
X238002380Y-75580952D01*
X238050000Y-75485714D01*
X238097619Y-75438095D01*
X238192857Y-75390476D01*
X238288095Y-75390476D01*
X238430952Y-75438095D01*
X239002380Y-76009523D01*
X239002380Y-75390476D01*
X203370380Y-68071904D02*
X204179904Y-68071904D01*
X204275142Y-68024285D01*
X204322761Y-67976666D01*
X204370380Y-67881428D01*
X204370380Y-67690952D01*
X204322761Y-67595714D01*
X204275142Y-67548095D01*
X204179904Y-67500476D01*
X203370380Y-67500476D01*
X203370380Y-67119523D02*
X203370380Y-66500476D01*
X203751333Y-66833809D01*
X203751333Y-66690952D01*
X203798952Y-66595714D01*
X203846571Y-66548095D01*
X203941809Y-66500476D01*
X204179904Y-66500476D01*
X204275142Y-66548095D01*
X204322761Y-66595714D01*
X204370380Y-66690952D01*
X204370380Y-66976666D01*
X204322761Y-67071904D01*
X204275142Y-67119523D01*
X233775047Y-88892571D02*
X233917904Y-88940190D01*
X233965523Y-88987809D01*
X234013142Y-89083047D01*
X234013142Y-89225904D01*
X233965523Y-89321142D01*
X233917904Y-89368761D01*
X233822666Y-89416380D01*
X233441714Y-89416380D01*
X233441714Y-88416380D01*
X233775047Y-88416380D01*
X233870285Y-88464000D01*
X233917904Y-88511619D01*
X233965523Y-88606857D01*
X233965523Y-88702095D01*
X233917904Y-88797333D01*
X233870285Y-88844952D01*
X233775047Y-88892571D01*
X233441714Y-88892571D01*
X234346476Y-88416380D02*
X235013142Y-88416380D01*
X234346476Y-89416380D01*
X235013142Y-89416380D01*
X235917904Y-89416380D02*
X235346476Y-89416380D01*
X235632190Y-89416380D02*
X235632190Y-88416380D01*
X235536952Y-88559238D01*
X235441714Y-88654476D01*
X235346476Y-88702095D01*
X246189714Y-91336761D02*
X246332571Y-91384380D01*
X246570666Y-91384380D01*
X246665904Y-91336761D01*
X246713523Y-91289142D01*
X246761142Y-91193904D01*
X246761142Y-91098666D01*
X246713523Y-91003428D01*
X246665904Y-90955809D01*
X246570666Y-90908190D01*
X246380190Y-90860571D01*
X246284952Y-90812952D01*
X246237333Y-90765333D01*
X246189714Y-90670095D01*
X246189714Y-90574857D01*
X246237333Y-90479619D01*
X246284952Y-90432000D01*
X246380190Y-90384380D01*
X246618285Y-90384380D01*
X246761142Y-90432000D01*
X247142095Y-91098666D02*
X247618285Y-91098666D01*
X247046857Y-91384380D02*
X247380190Y-90384380D01*
X247713523Y-91384380D01*
X248237333Y-90384380D02*
X248427809Y-90384380D01*
X248523047Y-90432000D01*
X248618285Y-90527238D01*
X248665904Y-90717714D01*
X248665904Y-91051047D01*
X248618285Y-91241523D01*
X248523047Y-91336761D01*
X248427809Y-91384380D01*
X248237333Y-91384380D01*
X248142095Y-91336761D01*
X248046857Y-91241523D01*
X247999238Y-91051047D01*
X247999238Y-90717714D01*
X248046857Y-90527238D01*
X248142095Y-90432000D01*
X248237333Y-90384380D01*
X249618285Y-91384380D02*
X249046857Y-91384380D01*
X249332571Y-91384380D02*
X249332571Y-90384380D01*
X249237333Y-90527238D01*
X249142095Y-90622476D01*
X249046857Y-90670095D01*
X178732380Y-67643333D02*
X179446666Y-67643333D01*
X179589523Y-67690952D01*
X179684761Y-67786190D01*
X179732380Y-67929047D01*
X179732380Y-68024285D01*
X179732380Y-66643333D02*
X179732380Y-67214761D01*
X179732380Y-66929047D02*
X178732380Y-66929047D01*
X178875238Y-67024285D01*
X178970476Y-67119523D01*
X179018095Y-67214761D01*
X177506380Y-100075904D02*
X178315904Y-100075904D01*
X178411142Y-100028285D01*
X178458761Y-99980666D01*
X178506380Y-99885428D01*
X178506380Y-99694952D01*
X178458761Y-99599714D01*
X178411142Y-99552095D01*
X178315904Y-99504476D01*
X177506380Y-99504476D01*
X178506380Y-98504476D02*
X178506380Y-99075904D01*
X178506380Y-98790190D02*
X177506380Y-98790190D01*
X177649238Y-98885428D01*
X177744476Y-98980666D01*
X177792095Y-99075904D01*
X191265714Y-102322380D02*
X191265714Y-103131904D01*
X191313333Y-103227142D01*
X191360952Y-103274761D01*
X191456190Y-103322380D01*
X191646666Y-103322380D01*
X191741904Y-103274761D01*
X191789523Y-103227142D01*
X191837142Y-103131904D01*
X191837142Y-102322380D01*
X192313333Y-102655714D02*
X192313333Y-103655714D01*
X192313333Y-102703333D02*
X192408571Y-102655714D01*
X192599047Y-102655714D01*
X192694285Y-102703333D01*
X192741904Y-102750952D01*
X192789523Y-102846190D01*
X192789523Y-103131904D01*
X192741904Y-103227142D01*
X192694285Y-103274761D01*
X192599047Y-103322380D01*
X192408571Y-103322380D01*
X192313333Y-103274761D01*
X193741904Y-103322380D02*
X193170476Y-103322380D01*
X193456190Y-103322380D02*
X193456190Y-102322380D01*
X193360952Y-102465238D01*
X193265714Y-102560476D01*
X193170476Y-102608095D01*
X246062666Y-67924761D02*
X246205523Y-67972380D01*
X246443619Y-67972380D01*
X246538857Y-67924761D01*
X246586476Y-67877142D01*
X246634095Y-67781904D01*
X246634095Y-67686666D01*
X246586476Y-67591428D01*
X246538857Y-67543809D01*
X246443619Y-67496190D01*
X246253142Y-67448571D01*
X246157904Y-67400952D01*
X246110285Y-67353333D01*
X246062666Y-67258095D01*
X246062666Y-67162857D01*
X246110285Y-67067619D01*
X246157904Y-67020000D01*
X246253142Y-66972380D01*
X246491238Y-66972380D01*
X246634095Y-67020000D01*
X246967428Y-66972380D02*
X247205523Y-67972380D01*
X247396000Y-67258095D01*
X247586476Y-67972380D01*
X247824571Y-66972380D01*
X248110285Y-66972380D02*
X248776952Y-66972380D01*
X248348380Y-67972380D01*
X203330761Y-110942380D02*
X202997428Y-110466190D01*
X202759333Y-110942380D02*
X202759333Y-109942380D01*
X203140285Y-109942380D01*
X203235523Y-109990000D01*
X203283142Y-110037619D01*
X203330761Y-110132857D01*
X203330761Y-110275714D01*
X203283142Y-110370952D01*
X203235523Y-110418571D01*
X203140285Y-110466190D01*
X202759333Y-110466190D01*
X203759333Y-110942380D02*
X203759333Y-110275714D01*
X203759333Y-109942380D02*
X203711714Y-109990000D01*
X203759333Y-110037619D01*
X203806952Y-109990000D01*
X203759333Y-109942380D01*
X203759333Y-110037619D01*
X204664095Y-110275714D02*
X204664095Y-111085238D01*
X204616476Y-111180476D01*
X204568857Y-111228095D01*
X204473619Y-111275714D01*
X204330761Y-111275714D01*
X204235523Y-111228095D01*
X204664095Y-110894761D02*
X204568857Y-110942380D01*
X204378380Y-110942380D01*
X204283142Y-110894761D01*
X204235523Y-110847142D01*
X204187904Y-110751904D01*
X204187904Y-110466190D01*
X204235523Y-110370952D01*
X204283142Y-110323333D01*
X204378380Y-110275714D01*
X204568857Y-110275714D01*
X204664095Y-110323333D01*
X205140285Y-110942380D02*
X205140285Y-109942380D01*
X205568857Y-110942380D02*
X205568857Y-110418571D01*
X205521238Y-110323333D01*
X205426000Y-110275714D01*
X205283142Y-110275714D01*
X205187904Y-110323333D01*
X205140285Y-110370952D01*
X205902190Y-110275714D02*
X206283142Y-110275714D01*
X206045047Y-109942380D02*
X206045047Y-110799523D01*
X206092666Y-110894761D01*
X206187904Y-110942380D01*
X206283142Y-110942380D01*
X207140285Y-110942380D02*
X206568857Y-110942380D01*
X206854571Y-110942380D02*
X206854571Y-109942380D01*
X206759333Y-110085238D01*
X206664095Y-110180476D01*
X206568857Y-110228095D01*
X178867333Y-110942380D02*
X178391142Y-110942380D01*
X178391142Y-109942380D01*
X179581619Y-110894761D02*
X179486380Y-110942380D01*
X179295904Y-110942380D01*
X179200666Y-110894761D01*
X179153047Y-110799523D01*
X179153047Y-110418571D01*
X179200666Y-110323333D01*
X179295904Y-110275714D01*
X179486380Y-110275714D01*
X179581619Y-110323333D01*
X179629238Y-110418571D01*
X179629238Y-110513809D01*
X179153047Y-110609047D01*
X179914952Y-110275714D02*
X180295904Y-110275714D01*
X180057809Y-110942380D02*
X180057809Y-110085238D01*
X180105428Y-109990000D01*
X180200666Y-109942380D01*
X180295904Y-109942380D01*
X180486380Y-110275714D02*
X180867333Y-110275714D01*
X180629238Y-109942380D02*
X180629238Y-110799523D01*
X180676857Y-110894761D01*
X180772095Y-110942380D01*
X180867333Y-110942380D01*
X181724476Y-110942380D02*
X181153047Y-110942380D01*
X181438761Y-110942380D02*
X181438761Y-109942380D01*
X181343523Y-110085238D01*
X181248285Y-110180476D01*
X181153047Y-110228095D01*
X190313333Y-118562380D02*
X190313333Y-117562380D01*
X190551428Y-117562380D01*
X190694285Y-117610000D01*
X190789523Y-117705238D01*
X190837142Y-117800476D01*
X190884761Y-117990952D01*
X190884761Y-118133809D01*
X190837142Y-118324285D01*
X190789523Y-118419523D01*
X190694285Y-118514761D01*
X190551428Y-118562380D01*
X190313333Y-118562380D01*
X191456190Y-118562380D02*
X191360952Y-118514761D01*
X191313333Y-118467142D01*
X191265714Y-118371904D01*
X191265714Y-118086190D01*
X191313333Y-117990952D01*
X191360952Y-117943333D01*
X191456190Y-117895714D01*
X191599047Y-117895714D01*
X191694285Y-117943333D01*
X191741904Y-117990952D01*
X191789523Y-118086190D01*
X191789523Y-118371904D01*
X191741904Y-118467142D01*
X191694285Y-118514761D01*
X191599047Y-118562380D01*
X191456190Y-118562380D01*
X192122857Y-117895714D02*
X192313333Y-118562380D01*
X192503809Y-118086190D01*
X192694285Y-118562380D01*
X192884761Y-117895714D01*
X193265714Y-117895714D02*
X193265714Y-118562380D01*
X193265714Y-117990952D02*
X193313333Y-117943333D01*
X193408571Y-117895714D01*
X193551428Y-117895714D01*
X193646666Y-117943333D01*
X193694285Y-118038571D01*
X193694285Y-118562380D01*
X194694285Y-118562380D02*
X194122857Y-118562380D01*
X194408571Y-118562380D02*
X194408571Y-117562380D01*
X194313333Y-117705238D01*
X194218095Y-117800476D01*
X194122857Y-117848095D01*
X229290761Y-126928571D02*
X229433619Y-126976190D01*
X229481238Y-127023809D01*
X229528857Y-127119047D01*
X229528857Y-127261904D01*
X229481238Y-127357142D01*
X229433619Y-127404761D01*
X229338380Y-127452380D01*
X228957428Y-127452380D01*
X228957428Y-126452380D01*
X229290761Y-126452380D01*
X229386000Y-126500000D01*
X229433619Y-126547619D01*
X229481238Y-126642857D01*
X229481238Y-126738095D01*
X229433619Y-126833333D01*
X229386000Y-126880952D01*
X229290761Y-126928571D01*
X228957428Y-126928571D01*
X229957428Y-127452380D02*
X229957428Y-126452380D01*
X229957428Y-126833333D02*
X230052666Y-126785714D01*
X230243142Y-126785714D01*
X230338380Y-126833333D01*
X230386000Y-126880952D01*
X230433619Y-126976190D01*
X230433619Y-127261904D01*
X230386000Y-127357142D01*
X230338380Y-127404761D01*
X230243142Y-127452380D01*
X230052666Y-127452380D01*
X229957428Y-127404761D01*
X230719333Y-126785714D02*
X231100285Y-126785714D01*
X230862190Y-126452380D02*
X230862190Y-127309523D01*
X230909809Y-127404761D01*
X231005047Y-127452380D01*
X231100285Y-127452380D01*
X231433619Y-126785714D02*
X231433619Y-127452380D01*
X231433619Y-126880952D02*
X231481238Y-126833333D01*
X231576476Y-126785714D01*
X231719333Y-126785714D01*
X231814571Y-126833333D01*
X231862190Y-126928571D01*
X231862190Y-127452380D01*
X232862190Y-127452380D02*
X232290761Y-127452380D01*
X232576476Y-127452380D02*
X232576476Y-126452380D01*
X232481238Y-126595238D01*
X232386000Y-126690476D01*
X232290761Y-126738095D01*
X245999238Y-127166666D02*
X246475428Y-127166666D01*
X245904000Y-127452380D02*
X246237333Y-126452380D01*
X246570666Y-127452380D01*
X246904000Y-127452380D02*
X246904000Y-126452380D01*
X246904000Y-126833333D02*
X246999238Y-126785714D01*
X247189714Y-126785714D01*
X247284952Y-126833333D01*
X247332571Y-126880952D01*
X247380190Y-126976190D01*
X247380190Y-127261904D01*
X247332571Y-127357142D01*
X247284952Y-127404761D01*
X247189714Y-127452380D01*
X246999238Y-127452380D01*
X246904000Y-127404761D01*
X247665904Y-126785714D02*
X248046857Y-126785714D01*
X247808761Y-126452380D02*
X247808761Y-127309523D01*
X247856380Y-127404761D01*
X247951619Y-127452380D01*
X248046857Y-127452380D01*
X248380190Y-126785714D02*
X248380190Y-127452380D01*
X248380190Y-126880952D02*
X248427809Y-126833333D01*
X248523047Y-126785714D01*
X248665904Y-126785714D01*
X248761142Y-126833333D01*
X248808761Y-126928571D01*
X248808761Y-127452380D01*
X249808761Y-127452380D02*
X249237333Y-127452380D01*
X249523047Y-127452380D02*
X249523047Y-126452380D01*
X249427809Y-126595238D01*
X249332571Y-126690476D01*
X249237333Y-126738095D01*
M02*
