G04 #@! TF.GenerationSoftware,KiCad,Pcbnew,5.1.9+dfsg1-1*
G04 #@! TF.CreationDate,2022-04-23T11:51:13+01:00*
G04 #@! TF.ProjectId,dmb2022,646d6232-3032-4322-9e6b-696361645f70,rev?*
G04 #@! TF.SameCoordinates,Original*
G04 #@! TF.FileFunction,Soldermask,Bot*
G04 #@! TF.FilePolarity,Negative*
%FSLAX46Y46*%
G04 Gerber Fmt 4.6, Leading zero omitted, Abs format (unit mm)*
G04 Created by KiCad (PCBNEW 5.1.9+dfsg1-1) date 2022-04-23 11:51:13*
%MOMM*%
%LPD*%
G01*
G04 APERTURE LIST*
%ADD10O,1.600000X1.600000*%
%ADD11R,1.600000X1.600000*%
%ADD12R,2.000000X2.000000*%
%ADD13C,2.000000*%
%ADD14C,1.600000*%
%ADD15O,1.700000X1.700000*%
%ADD16R,1.700000X1.700000*%
%ADD17C,1.700000*%
G04 APERTURE END LIST*
D10*
X242062000Y-73914000D03*
D11*
X242062000Y-66294000D03*
D12*
X240538000Y-79248000D03*
D13*
X188548000Y-79248000D03*
D14*
X197826000Y-73660000D03*
D11*
X195326000Y-73660000D03*
D15*
X231140000Y-76200000D03*
X233680000Y-76200000D03*
D16*
X236220000Y-76200000D03*
D15*
X221488000Y-67310000D03*
X218948000Y-67310000D03*
X216408000Y-67310000D03*
X213868000Y-67310000D03*
X211328000Y-67310000D03*
X208788000Y-67310000D03*
D16*
X206248000Y-67310000D03*
D13*
X237156000Y-92964000D03*
D12*
X232156000Y-92964000D03*
D17*
X248920000Y-102362000D03*
X248920000Y-99822000D03*
X248920000Y-97282000D03*
X246380000Y-102362000D03*
X246380000Y-99822000D03*
G36*
G01*
X245530000Y-97882000D02*
X245530000Y-96682000D01*
G75*
G02*
X245780000Y-96432000I250000J0D01*
G01*
X246980000Y-96432000D01*
G75*
G02*
X247230000Y-96682000I0J-250000D01*
G01*
X247230000Y-97882000D01*
G75*
G02*
X246980000Y-98132000I-250000J0D01*
G01*
X245780000Y-98132000D01*
G75*
G02*
X245530000Y-97882000I0J250000D01*
G01*
G37*
D15*
X194310000Y-67310000D03*
X191770000Y-67310000D03*
X189230000Y-67310000D03*
X186690000Y-67310000D03*
X184150000Y-67310000D03*
D16*
X181610000Y-67310000D03*
D13*
X195730000Y-105156000D03*
X195730000Y-109656000D03*
X189230000Y-105156000D03*
X189230000Y-109656000D03*
D15*
X247396000Y-74930000D03*
X247396000Y-72390000D03*
D16*
X247396000Y-69850000D03*
D13*
X208176000Y-112776000D03*
X208176000Y-117276000D03*
X201676000Y-112776000D03*
X201676000Y-117276000D03*
X183284000Y-112776000D03*
X183284000Y-117276000D03*
X176784000Y-112776000D03*
X176784000Y-117276000D03*
X195730000Y-120396000D03*
X195730000Y-124896000D03*
X189230000Y-120396000D03*
X189230000Y-124896000D03*
X234084000Y-119888000D03*
X234084000Y-124388000D03*
X227584000Y-119888000D03*
X227584000Y-124388000D03*
X250848000Y-119888000D03*
X250848000Y-124388000D03*
X244348000Y-119888000D03*
X244348000Y-124388000D03*
M02*
