M48
INCH,TZ
T1C0.0157
T2C0.0315
T3C0.0354
T4C0.0394
T5C0.0402
T6C0.0433
%
G90
G05
T1
X72100Y-40000
X73100Y-39839
X73900Y-39900
X75200Y-30200
X76900Y-39200
X77152Y-31152
X77152Y-34348
X77152Y-35348
X78500Y-34800
X79800Y-37700
X79900Y-31200
X81900Y-32000
X85200Y-32000
X86200Y-31200
X87200Y-30200
X94700Y-39500
T2
X76900Y-29000
X77884Y-29000
T3
X95300Y-26100
X95300Y-29100
T4
X71500Y-26500
X72500Y-26500
X73500Y-26500
X74500Y-26500
X75500Y-26500
X76500Y-26500
X81200Y-26500
X82200Y-26500
X83200Y-26500
X84200Y-26500
X85200Y-26500
X86200Y-26500
X87200Y-26500
X91000Y-30000
X91400Y-36600
X92000Y-30000
X93000Y-30000
X93369Y-36600
X97000Y-38300
X97000Y-39300
X97000Y-40300
X97400Y-27500
X97400Y-28500
X97400Y-29500
X98000Y-38300
X98000Y-39300
X98000Y-40300
T5
X74231Y-31200
X94700Y-31200
T6
X69600Y-44400
X69600Y-46172
X72159Y-44400
X72159Y-46172
X74500Y-41400
X74500Y-43172
X74500Y-47400
X74500Y-49172
X77059Y-41400
X77059Y-43172
X77059Y-47400
X77059Y-49172
X79400Y-44400
X79400Y-46172
X81959Y-44400
X81959Y-46172
X89600Y-47200
X89600Y-48972
X92159Y-47200
X92159Y-48972
X96200Y-47200
X96200Y-48972
X98759Y-47200
X98759Y-48972
T0
M30
